<?xml version="1.0" standalone="no"?>
<!DOCTYPE svg PUBLIC "-//W3C//DTD SVG 1.1//EN" "http://www.w3.org/Graphics/SVG/1.1/DTD/svg11.dtd" >
<svg xmlns="http://www.w3.org/2000/svg" xmlns:xlink="http://www.w3.org/1999/xlink" version="1.1">
<metadata>
Created by FontForge 20170731 at Sun Jan  8 19:04:32 2023
 By Aleksey,,,
Copyright (c) 2012 Natanael Gama (www.ndiscovered.com), with Reserved Font Name "Cinzel Decorative"
</metadata>
<defs>
<font id="CinzelDecorative-Regular" horiz-adv-x="1458" >
  <font-face 
    font-family="Cinzel Decorative"
    font-weight="400"
    font-stretch="normal"
    units-per-em="2048"
    panose-1="0 0 5 0 0 0 0 0 0 0"
    ascent="1638"
    descent="-410"
    x-height="1434"
    cap-height="1475"
    bbox="-410 -582 3184 1934.74"
    underline-thickness="102"
    underline-position="-307"
    unicode-range="U+0020-FB02"
  />
<missing-glyph horiz-adv-x="1024" 
d="M190 1638h650v-2048h-650v2048zM682 1434v67h-338v-67h133v-76h-135v-68h340v68h-135v76h135zM547 1094v143h-205v-213h340v70h-135zM410 1167h67v-73h-67v73zM682 901v68h-340v-68h135v-76h-135v-67h205v143h135zM682 641v205h-68v-135h-272v-70h340zM682 365v231h-205
v-115h70v47h67v-96h-204v164h-68v-231h340zM682 10v232h-340v-232h340zM410 174h204v-96h-204v96zM682 -104v67h-340v-67h143l-143 -97v-67h340v67h-209l143 97h66z" />
    <glyph glyph-name=".notdef" horiz-adv-x="1024" 
d="M190 1638h650v-2048h-650v2048zM682 1434v67h-338v-67h133v-76h-135v-68h340v68h-135v76h135zM547 1094v143h-205v-213h340v70h-135zM410 1167h67v-73h-67v73zM682 901v68h-340v-68h135v-76h-135v-67h205v143h135zM682 641v205h-68v-135h-272v-70h340zM682 365v231h-205
v-115h70v47h67v-96h-204v164h-68v-231h340zM682 10v232h-340v-232h340zM410 174h204v-96h-204v96zM682 -104v67h-340v-67h143l-143 -97v-67h340v67h-209l143 97h66z" />
    <glyph glyph-name=".null" horiz-adv-x="0" 
 />
    <glyph glyph-name="nonmarkingreturn" horiz-adv-x="682" 
 />
    <glyph glyph-name="space" unicode=" " horiz-adv-x="512" 
 />
    <glyph glyph-name="exclam" unicode="!" horiz-adv-x="471" 
d="M286 825l-43 -477h-20l-41 477l-25 612h154zM236 -8q-38 0 -65.5 27t-27.5 65t27.5 65t65.5 27t65 -27t27 -65t-27 -65t-65 -27z" />
    <glyph glyph-name="quotedbl" unicode="&#x22;" horiz-adv-x="645" 
d="M134 1434l144 28q1 -45 -6 -104t-23 -126.5t-49.5 -125t-78.5 -82.5l-19 11q28 134 34 211t-2 188zM401 1434l143 28q1 -45 -6 -104t-23 -126.5t-49.5 -125t-78.5 -82.5l-18 11q28 134 34 211t-2 188z" />
    <glyph glyph-name="numbersign" unicode="#" horiz-adv-x="1097" 
d="M1057 1018v-62h-231l-79 -450h220v-62h-231l-78 -444h-66l78 444h-344l-78 -444h-66l79 444h-220v62h231l79 450h-220v62h231l73 416h66l-74 -416h344l74 416h65l-73 -416h220zM337 506h344l80 450h-345z" />
    <glyph glyph-name="dollar" unicode="$" horiz-adv-x="960" 
d="M512 822l235 -218q103 -95 103 -248q0 -172 -102.5 -278t-270.5 -107q-5 0 -15.5 0.5t-15.5 0.5l-14 -181l-61 6l14 180q-183 21 -265 106q-12 45 -5.5 132t29.5 154h18q-12 -139 49.5 -226.5t177.5 -105.5l50 658l-180 167q-111 103 -111 256q0 140 99 242t237 102h14
l12 152l62 -2l-12 -153q73 -6 125 -18h80v-24v-227h-20q0 86 -51 140.5t-138 66.5zM345 977l108 -101l40 524q-96 -4 -163.5 -73.5t-67.5 -159.5q0 -112 83 -190zM457 34q117 4 195.5 80t78.5 191q0 119 -80 193l-153 143l-47 -607h6z" />
    <glyph glyph-name="percent" unicode="%" horiz-adv-x="1400" 
d="M1062 1452l46 -18l-763 -1457l-53 23l730 1385q-7 -4 -34 -18t-39 -20t-38 -17t-44.5 -15.5t-44.5 -7.5t-51 -1q-58 5 -135 45q50 -96 23 -250q-30 -166 -124.5 -264t-218.5 -98q-125 0 -185.5 98t-30.5 264q29 163 120.5 260t214.5 101v1h6h3q37 0 72 -11
q42 -11 121.5 -56.5t135.5 -49.5q53 -4 104 12.5t116 54t69 39.5zM551 1100q26 149 -4.5 235t-110.5 86q-79 0 -140 -86t-87 -235t4.5 -234.5t109.5 -85.5q80 0 141 85.5t87 234.5zM1087 695q125 0 185.5 -98t30.5 -264t-124.5 -264t-219.5 -98t-185 98t-30 264t124.5 264
t218.5 98zM1194 333q26 149 -4.5 234.5t-109.5 85.5q-80 0 -141 -85.5t-87 -234.5t4.5 -235t110.5 -86q79 0 140 86t87 235z" />
    <glyph glyph-name="ampersand" unicode="&#x26;" horiz-adv-x="1675" 
d="M2334 -125l8 -18q-92 -79 -196.5 -117t-201.5 -37.5t-198.5 30t-186.5 75.5t-167 108q-35 26 -222 180q-148 -97 -315 -117q-128 -15 -255.5 9t-230.5 81t-168.5 152.5t-69.5 212.5q-5 144 60.5 245t174.5 159q-84 126 -88 257q-6 164 100 266t295 101
q116 -1 207.5 -40.5t148.5 -104.5l-27 -232h-21q-6 145 -88 230.5t-208 86.5q-124 -1 -197.5 -82.5t-68.5 -209.5q4 -121 84.5 -229t257.5 -261q263 -226 471 -400q91 83 155.5 192.5t99 233.5t25 257t-60.5 257t-164 241t-279 203l9 12q172 -70 293.5 -181t180 -237.5
t73.5 -268t-16.5 -275.5t-100 -257t-168.5 -216q117 -97 130 -107q83 -67 158 -115.5t171 -91t186.5 -57.5t197.5 -0.5t212 65.5zM853 41q143 15 269 95q-312 259 -452 382q-184 160 -269 271q-68 -64 -96.5 -149t-25.5 -175q3 -92 51 -175.5t125 -142t182 -88t216 -18.5z
" />
    <glyph glyph-name="quotesingle" unicode="'" horiz-adv-x="348" 
d="M104 1434l143 28q1 -45 -6 -104t-23 -126.5t-49.5 -125t-78.5 -82.5l-18 11q28 134 34 211t-2 188z" />
    <glyph glyph-name="parenleft" unicode="(" horiz-adv-x="692" 
d="M620 1499l12 -16q-83 -40 -153 -153.5t-111.5 -284.5t-39.5 -358q4 -293 93 -542t207 -331l-12 -19q-175 92 -302 344.5t-130 543.5q-3 288 125.5 520t310.5 296z" />
    <glyph glyph-name="parenright" unicode=")" horiz-adv-x="692" 
d="M61 1483l13 16q118 -42 217.5 -159t159.5 -291.5t58 -365.5q-3 -291 -130 -543.5t-302 -344.5l-12 19q118 83 207.5 331.5t93.5 541.5q2 187 -40 358t-112 284.5t-153 153.5z" />
    <glyph glyph-name="asterisk" unicode="*" horiz-adv-x="790" 
d="M719 1349l-7 -73l-205 -39l-96 3l79 -55l144 -151l-38 -63l-71 -17l-101 183l-27 93v0l-28 -93l-99 -184l-72 17l-38 63l143 152l80 55l-96 -3l-206 38l-7 73l49 56l189 -89l76 -59v0l-32 91l-27 207l67 29l68 -29l-26 -207l-32 -91l76 59l189 90zM383 1240zM410 1240z
" />
    <glyph glyph-name="plus" unicode="+" horiz-adv-x="985" 
d="M539 680h366v-92h-366v-365h-92v365h-365v92h365v366h92v-366z" />
    <glyph glyph-name="comma" unicode="," horiz-adv-x="378" 
d="M114 132q12 28 42.5 38.5t63.5 -4t49 -52.5q46 -111 -12 -202t-160 -94l-5 16q43 14 66 39t25.5 51.5t-4 50.5t-20.5 41q-3 3 -13.5 15.5t-15 18t-11.5 17t-9 20.5t-1.5 21t5.5 24z" />
    <glyph glyph-name="hyphen" unicode="-" horiz-adv-x="778" 
d="M70 597l12 46h614l13 -46l-13 -46h-614z" />
    <glyph glyph-name="period" unicode="." horiz-adv-x="366" 
d="M184 -8q-38 0 -65 27t-27 65t27 65t65 27t65 -27t27 -65t-27 -65t-65 -27z" />
    <glyph glyph-name="slash" unicode="/" horiz-adv-x="831" 
d="M14 10l738 1452l64 -36l-739 -1455z" />
    <glyph glyph-name="zero" unicode="0" horiz-adv-x="1372" 
d="M686 1257q263 0 423.5 -177t160.5 -466t-160.5 -466t-423.5 -177t-423.5 177t-160.5 466t160.5 466t423.5 177zM686 1196q-199 0 -320 -160t-121 -422t121 -421.5t320 -159.5t320 159.5t121 421.5t-121 422t-320 160z" />
    <glyph glyph-name="one" unicode="1" horiz-adv-x="704" 
d="M138 20h43q46 0 79 32.5t33 78.5v969q0 45 -33.5 76.5t-79.5 31.5h-43v21h443v-21h-43q-46 0 -78.5 -32t-32.5 -78v-968q0 -45 33.5 -77.5t79.5 -32.5h42l1 -20h-444v20z" />
    <glyph glyph-name="two" unicode="2" horiz-adv-x="1132" 
d="M205 932h-21l-36 209q58 51 163.5 83.5t206.5 32.5q207 0 330 -93.5t123 -255.5q0 -47 -14 -97t-32 -92t-56 -94.5t-64.5 -87t-80.5 -87t-80.5 -78.5t-89 -77t-81 -66t-81 -63t-66.5 -51h478q89 0 137.5 32t105.5 120h20l-98 -267h-850v18q75 62 137 116t150 135.5
t154.5 157.5t128 159.5t95 165.5t33.5 152q0 141 -80 221t-219 77q-148 -3 -232 -72.5t-81 -197.5z" />
    <glyph glyph-name="three" unicode="3" horiz-adv-x="1030" 
d="M567 608q131 -21 225 -119t95 -251q0 -118 -62.5 -224t-165 -177.5t-244.5 -102t-292 -4.5l4 20q162 -4 300.5 57.5t222.5 177t84 258.5q-1 168 -115.5 253t-305.5 86l4 21q70 0 138 23.5t122.5 66.5t86.5 111t28 148q-5 101 -68 170t-184 70q-126 -1 -196 -76.5
t-63 -198.5h-20l-36 191q119 135 319 145q181 9 292.5 -79.5t111.5 -225.5q0 -125 -88 -227t-193 -113z" />
    <glyph glyph-name="four" unicode="4" horiz-adv-x="1193" 
d="M1073 458l-43 -153h-179v-380q1 -46 34 -77.5t79 -31.5h23v-21h-404v21h22q46 0 79 30.5t34 75.5v383h-636v20l750 932h19v-75v0v-765h89q52 0 71 8.5t41 32.5h21zM718 1016l-483 -599h483v599z" />
    <glyph glyph-name="five" unicode="5" horiz-adv-x="1019" 
d="M865 1288l-68 -215l-481 -31l-95 -323q85 22 167.5 25t155 -12t133.5 -49.5t104.5 -85.5t66 -123t18.5 -159q-3 -80 -25.5 -152t-59 -126t-84.5 -101t-101.5 -78.5t-111 -58.5t-112.5 -40t-106.5 -23t-92.5 -8.5t-70 4.5l4 20q54 -1 126.5 19t153.5 64.5t150.5 107
t118.5 156t56 200.5q7 102 -35 178t-120.5 113.5t-187 41t-234.5 -40.5l-18 8l160 556l405 31q110 0 162 102h21z" />
    <glyph glyph-name="six" unicode="6" horiz-adv-x="1146" 
d="M821 1504l8 -15q-142 -46 -248.5 -138t-169.5 -217.5t-93.5 -269.5t-30.5 -308q0 -239 81.5 -382t235.5 -143q94 0 158.5 56t92 140t25.5 186q-2 157 -74 248t-202 90q-66 0 -126 -27t-99 -78l-11 18q52 63 120.5 103.5t139.5 54t141 -3t126 -60.5t94 -125.5t45 -191.5
q6 -89 -21.5 -173t-82 -150t-139.5 -107t-187 -42q-138 -2 -245 66.5t-167.5 203.5t-58.5 317q2 130 28.5 256t82 244.5t134 211.5t193 156.5t250.5 79.5z" />
    <glyph glyph-name="seven" unicode="7" horiz-adv-x="1028" 
d="M129 1225l-57 -232h20q23 63 58.5 93t95.5 30h578l-180 -473q-77 -201 -335 -848h143q35 148 125.5 415.5t149.5 425.5l220 593z" />
    <glyph glyph-name="eight" unicode="8" horiz-adv-x="1130" 
d="M682 763q38 -19 65.5 -34t64 -38.5t62 -45.5t53 -53.5t44 -65t27 -77t10.5 -91.5q0 -173 -121.5 -280t-321.5 -107q-203 0 -326 110.5t-116 289.5q6 127 79 219.5t217 159.5q-223 159 -223 369q0 148 100 244t269 99q162 3 265.5 -90t102.5 -255q1 -124 -64.5 -216.5
t-186.5 -137.5zM567 1401q-101 0 -159 -73.5t-58 -181.5q0 -199 211 -321q14 -8 46 -24q175 130 173 332q1 123 -57 195.5t-156 72.5zM567 33q140 0 213.5 87.5t73.5 210.5q0 38 -8.5 72t-19.5 59t-33.5 50t-39 40.5t-48 35t-49 28.5l-52.5 27t-49 25q-64 34 -76 42
q-199 -135 -202 -360q-2 -147 76 -232t214 -85z" />
    <glyph glyph-name="nine" unicode="9" horiz-adv-x="1146" 
d="M327 -281l-8 15q140 40 246.5 131t169.5 216.5t94.5 268.5t31.5 301q-1 255 -81 398t-235 143q-94 0 -158.5 -54t-92.5 -138.5t-26 -190.5q3 -154 75 -247.5t202 -90.5q66 2 125.5 28.5t98.5 77.5l11 -18q-50 -64 -119.5 -104t-141.5 -52t-143.5 6t-128 61.5t-93 124
t-39.5 185.5q-6 213 115.5 341.5t314.5 131.5q215 3 342 -152.5t127 -436.5q0 -125 -25.5 -251t-81 -246t-134 -215t-194 -158t-252.5 -75z" />
    <glyph glyph-name="colon" unicode=":" horiz-adv-x="366" 
d="M184 775q-38 0 -65 27t-27 65t27 65t65 27t65 -27t27 -65t-27 -65t-65 -27zM184 -8q-38 0 -65 27t-27 65t27 65t65 27t65 -27t27 -65t-27 -65t-65 -27z" />
    <glyph glyph-name="semicolon" unicode=";" horiz-adv-x="376" 
d="M184 834q-38 0 -65 27t-27 65t27 65t65 27t65 -27t27 -65t-27 -65t-65 -27zM114 132q12 28 42.5 38.5t63.5 -4t49 -52.5q46 -111 -12 -202t-160 -94l-5 16q43 14 66 39t25.5 51.5t-4 50.5t-20.5 41q-3 3 -13.5 15.5t-15 18t-11.5 17t-9 20.5t-1.5 21t5.5 24z" />
    <glyph glyph-name="less" unicode="&#x3c;" horiz-adv-x="985" 
d="M82 680l823 392v-99l-702 -338l702 -340v-98l-823 391v92z" />
    <glyph glyph-name="equal" unicode="=" horiz-adv-x="985" 
d="M82 745v92h823v-92h-823zM82 387v92h823v-92h-823z" />
    <glyph glyph-name="greater" unicode="&#x3e;" horiz-adv-x="985" 
d="M82 973v99l823 -392v-92l-823 -391v98l701 340z" />
    <glyph glyph-name="question" unicode="?" horiz-adv-x="845" 
d="M61 1086l-20 194q47 87 125.5 134.5t176.5 47.5q187 0 294 -92.5t107 -254.5q0 -77 -32 -146t-80.5 -120.5t-98.5 -98t-93.5 -99.5t-57.5 -104q-17 -45 -15.5 -94.5t35.5 -94.5l-13 -10q-91 83 -91 196q0 53 30 108t73 104t86 101.5t73 119.5t30 138q0 134 -66 210
t-181 76q-122 0 -193 -84t-68 -231h-21zM369 -8q-38 0 -65 27t-27 65t27 65t65 27t65 -27t27 -65t-27 -65t-65 -27z" />
    <glyph glyph-name="at" unicode="@" horiz-adv-x="2000" 
d="M1263 1408q203 -27 350.5 -136t214.5 -275.5t45 -363.5q-14 -127 -55.5 -246.5t-111.5 -226t-162.5 -191.5t-215 -140t-262.5 -74t-312 9.5t-356 106.5l-8 20q177 -69 345.5 -86t309.5 14.5t262.5 103.5t210 178t146 241.5t76.5 290.5q35 291 -96 486t-381 228
q-308 40 -560.5 -107t-383.5 -441q-65 -146 -79 -282.5t26.5 -220.5t125.5 -85q32 0 65 12.5t65.5 39t60.5 53t61 69t54.5 71t54 75t46.5 65.5l261 354q95 118 112 158h13l87 -842q6 -41 28 -61t52 -20h10l-3 -16h-324l3 16h14q29 0 56.5 25.5t28.5 66.5l-11 203h-336
q-61 -85 -104.5 -138.5t-93.5 -101t-98.5 -69.5t-101.5 -22q-112 -1 -186.5 89.5t-83.5 237.5t64 333q133 315 423.5 480.5t653.5 118.5zM1124 526l-22 397l-239 -341q-8 -11 -21.5 -30t-18.5 -26h301z" />
    <glyph glyph-name="A" unicode="A" 
d="M1934 -391l2 -21q-81 -30 -161 -32.5t-158 22.5t-152.5 81.5t-142.5 142t-130 206.5t-113 272l-79 234h-562l-142 -365q-21 -57 6 -93t72 -36h18v-20h-412v20h18q49 0 96.5 29.5t77.5 88.5l507 1218q-158 225 -431 126l-6 21q100 42 186.5 51t149 -4.5t120 -60t93 -89
t73.5 -120t56.5 -125t47.5 -129.5l249 -708q19 -52 38.5 -101.5t45 -106t52.5 -105.5t59.5 -101.5t67 -93t75 -80.5t82.5 -65t90.5 -44.5t99 -20t107.5 8.5zM731 1268l-269 -693h517l-162 478q-45 133 -86 215z" />
    <glyph glyph-name="B" unicode="B" horiz-adv-x="1216" 
d="M724 836q201 -30 306 -143t105 -277q0 -199 -159.5 -322t-419.5 -123q-127 0 -229.5 32t-177.5 94.5t-114 161t-35 225.5l23 4q41 -304 253 -395v1193q-2 56 -41 91.5t-91 35.5h-26v21h164h181q192 0 308 -88.5t116 -243.5q0 -96 -44.5 -167.5t-118.5 -98.5zM562 46
q199 -1 309.5 105t110.5 275q0 76 -23 136.5t-64 100t-90 67.5t-108.5 42t-111.5 20t-107 6v20q49 0 92.5 15t81 46t60 87.5t22.5 131.5q0 270 -299 270h-26v-1312q69 -10 153 -10z" />
    <glyph glyph-name="C" unicode="C" horiz-adv-x="1681" 
d="M1610 768h21q13 -388 -182 -592.5t-542 -204.5q-176 0 -328 57.5t-258.5 157t-167.5 238t-61 295.5t60 294.5t164 236t250 155.5t313 57q140 0 284.5 -38t238.5 -100l41 -289h-17q-30 115 -115 200t-196 125.5t-234 40.5q-180 0 -325.5 -88.5t-227.5 -243.5t-82 -346
q0 -144 49 -271t135.5 -219.5t213 -146t274.5 -53.5q152 0 279.5 50t219 143t142.5 232t51 310z" />
    <glyph glyph-name="D" unicode="D" horiz-adv-x="1716" 
d="M859 1433q330 -7 533 -201.5t203 -514.5q0 -212 -92.5 -375.5t-259.5 -252.5t-384 -89h-459h-233v21h26q51 0 88 33.5t42 83.5v1235q-103 -3 -182.5 -18t-129 -35.5t-89 -55.5t-60 -64t-44.5 -74l-23 8q31 91 79 150t124.5 92.5t169 47t230.5 15.5q113 2 461 -6zM859 61
q262 0 422 180.5t160 475.5q0 294 -159.5 474t-422.5 180q-291 0 -402 1v-1311h402z" />
    <glyph glyph-name="E" unicode="E" horiz-adv-x="1243" 
d="M1214 331h21l-120 -331h-992v21h26q54 0 92 37.5t39 90.5v1147q-5 50 -42 83.5t-88 33.5h-26v21h163h251q64 1 139 12.5t105 24.5v-60v-34v-165l-21 1v36q0 49 -33 84t-81 38h-234v-633h390q41 1 70 30.5t29 70.5v30h20v-324h-20v30q0 41 -28.5 70.5t-68.5 30.5h-391
v-613h437q79 0 138.5 19t101.5 57.5t69.5 83t53.5 108.5z" />
    <glyph glyph-name="F" unicode="F" horiz-adv-x="1185" 
d="M1166 839v30h20v-324h-20v31q0 40 -28 69t-69 31h-655v-527q1 -53 39 -90.5t92 -37.5h26v-21h-448v21h26q54 0 92 37.5t39 90.5v1147q-5 50 -42 83.5t-88 33.5h-26v21h163h435q64 1 139 12.5t105 24.5v-60v-35v-136h-20v30q0 41 -29 70.5t-70 30.5h-434v-633h654
q41 1 70 30.5t29 70.5z" />
    <glyph glyph-name="G" unicode="G" horiz-adv-x="1732" 
d="M2286 -285l1 -20q-236 -75 -421 -41.5t-308 156t-162 309.5q-195 -148 -476 -148q-225 1 -407.5 98t-286 267.5t-103.5 380.5q0 214 104 385t286 265.5t407 94.5q281 0 496 -138l42 -289h-17q-46 175 -182 270.5t-339 95.5q-182 0 -329 -86.5t-231 -243.5t-84 -354
q0 -193 83.5 -349t231 -245t329.5 -90q132 0 253 47t208 130v363q0 45 -27 69t-77 24h-32v21h401v-21h-31q-50 0 -76.5 -24t-25.5 -68v-316q14 -325 212.5 -463.5t560.5 -79.5z" />
    <glyph glyph-name="H" unicode="H" horiz-adv-x="1665" 
d="M1492 20h26l1 -20h-448v20h26q52 0 90 36.5t41 88.5l1 533h-792v-535q0 -114 -20.5 -195t-62 -132t-94 -79.5t-127.5 -45.5l-10 18q93 48 137 150.5t44 283.5v1142q-2 53 -40 90.5t-91 37.5h-26l-1 21h164h121h163v-21h-26q-53 0 -91.5 -37t-39.5 -90v-547h792l1 510
q0 114 20.5 195.5t62.5 132.5t94 79.5t127 45.5l10 -19q-93 -48 -137 -150.5t-44 -283.5l-2 -1100q1 -53 39 -91t92 -38z" />
    <glyph glyph-name="I" unicode="I" horiz-adv-x="804" 
d="M657 20h26l1 -20h-448v20h26q54 0 92 38t39 91v1230l-219 -13q-199 -11 -207 -135q-5 -65 33 -106.5t116 -44.5v-12q-92 -25 -156.5 26t-61.5 137q7 167 264 194q4 0 205 14t317 36l3 -21q-88 -14 -124 -59t-37 -126v-1120q1 -53 39 -91t92 -38z" />
    <glyph glyph-name="J" unicode="J" horiz-adv-x="694" 
d="M408 1434h163v-21h-26q-53 0 -91 -37.5t-40 -90.5v-1121q0 -102 -22.5 -185t-61 -137.5t-88.5 -93t-105 -56.5t-111.5 -22.5t-106.5 4t-91 27.5l8 23q50 -17 105 -18.5t116.5 21.5t110 71.5t80.5 144t32 227.5v1114q-1 53 -39 91t-92 38h-26v21h163v-1z" />
    <glyph glyph-name="K" unicode="K" horiz-adv-x="1370" 
d="M545 20h26v-20h-448v20h26q54 0 92 38t39 91v1136q-2 53 -40 90.5t-91 37.5h-26v21h163h122h163v-21h-26q-53 0 -91.5 -37t-39.5 -90v-1137q1 -53 39 -91t92 -38zM619 768l696 -744q136 -145 304 -238t345 -93v-21q-417 -95 -806 318l-679 723l483 606q26 35 9.5 65.5
t-58.5 30.5h-20v18h433v-18h-9q-65 0 -123 -25.5t-98 -70.5z" />
    <glyph glyph-name="L" unicode="L" horiz-adv-x="821" 
d="M1887 -227l10 -17q-100 -69 -203 -109.5t-191.5 -54.5t-187.5 -4.5t-176 29.5t-174 58.5t-163.5 71.5t-162.5 80t-155 73q-220 98 -361 100v21h27q53 0 91 37t39 91v1135q-1 53 -39 91t-92 38h-26v20h157v1h134v-1h157v-20h-26q-54 0 -92 -38t-39 -91v-1182q0 -28 2 -43
t10.5 -35.5t29.5 -35.5t56 -27q264 -92 434.5 -144t310.5 -84.5t243.5 -33t191.5 16t195 57.5z" />
    <glyph glyph-name="M" unicode="M" horiz-adv-x="1906" 
d="M1535 1462l191 -1213q45 -285 190.5 -437.5t360.5 -143.5v-20q-122 -18 -228 3.5t-184.5 74t-139 131t-96 172.5t-50.5 201l-125 913l-426 -963q-57 -124 -70 -209h-20l-530 1153l-91 -1008v0v-5q-1 -1 -1 -4q1 -36 26 -62.5t54 -25.5h32v-19h-396v21h32q56 0 98 33
t51 90l130 1117q-197 390 -480 353v20q67 12 124 14t109.5 -13.5t96 -36t82 -51.5t68.5 -61.5t55.5 -66.5t43 -65t30.5 -58l494 -1069l551 1235h18z" />
    <glyph glyph-name="N" unicode="N" horiz-adv-x="1722" 
d="M2150 -291l8 -20q-80 -25 -155 -29.5t-140.5 12t-122.5 42.5t-113.5 71t-100.5 87t-96 99l-1082 1196l2 -1024q2 -51 38 -87t88 -36h38v-20h-422v20h38q52 0 89 36t38 88v1126q-12 15 -38.5 48.5t-44.5 56t-48.5 57.5t-55.5 59.5t-60 54.5t-66 49t-71 36.5t-78 24
t-82.5 5t-89.5 -14.5l-8 21q68 29 134 38t120.5 3t112 -30.5t100 -51.5t93.5 -72.5t85.5 -81t81.5 -88.5l1031 -1147v1052q-1 52 -37.5 88t-88.5 36h-38v21h422l-1 -21h-37q-52 0 -88.5 -35.5t-38.5 -86.5v-1157l24 -27q15 -17 51 -60q66 -81 110.5 -127.5t127.5 -114
t176.5 -91.5t194.5 -5z" />
    <glyph glyph-name="O" unicode="O" horiz-adv-x="1902" 
d="M587 961l-20 -5q-9 35 -6 75t9.5 82.5t27 84.5t47.5 80.5t69 72t92.5 58.5t118.5 39t146 14q208 0 371 -96.5t250.5 -261t87.5 -365.5q0 -225 -107 -400.5t-295 -271.5t-424 -96q-175 0 -328 55.5t-264 154.5t-175 243t-64 313q0 218 102.5 388t292.5 267l12 -18
q-91 -59 -149 -166.5t-79 -215t-21 -224.5q0 -174 51.5 -314.5t142 -232t212 -140t263.5 -48.5q195 0 347.5 87.5t238.5 249.5t86 373q0 104 -22 200.5t-68.5 180t-112.5 145t-159.5 97t-204.5 35.5q-122 0 -220 -42.5t-153.5 -108t-81 -142t-13.5 -147.5z" />
    <glyph glyph-name="P" unicode="P" horiz-adv-x="1269" 
d="M1178 1044q6 -192 -95 -319t-274 -137q-74 -4 -137 14t-110.5 69t-57.5 130l18 6q12 -46 42.5 -78.5t68.5 -47t81 -20.5t81 3q114 21 174 126t55 254q-7 194 -118.5 284t-297.5 69q-32 -4 -104 -17t-90 -16v-1215q1 -55 40 -91.5t91 -36.5h26v-21h-448v21h27
q52 0 91 36.5t40 91.5v1109q0 53 -33.5 83.5t-97.5 26.5q-13 0 -25 -3l-3 21q105 11 283.5 40.5t210.5 33.5q249 31 402 -79.5t160 -336.5z" />
    <glyph glyph-name="Q" unicode="Q" horiz-adv-x="1882" 
d="M3176 -172l8 -10q-26 -43 -84 -87.5t-142 -87t-196 -71.5t-236 -40.5t-273 5.5t-297 66q-89 30 -302 115.5t-408.5 156t-320.5 94.5q-2 0 -6.5 0.5t-6.5 1.5v21q3 0 9 -0.5t9 -0.5q106 -1 202.5 24t181.5 79t148 132.5t100.5 192t39.5 251.5q3 153 -46 289t-135.5 234.5
t-209.5 156.5t-263 61q-145 4 -273 -47t-219 -142.5t-143.5 -222t-52.5 -280.5q0 -209 104 -362t265 -189q61 -16 129 -7.5t127 33.5t106.5 76t69.5 119l19 -6q-39 -147 -160 -227t-308 -54q-121 17 -219 73t-161 138.5t-96.5 185t-33.5 216.5q0 164 64.5 306.5t176 243
t267.5 156t334 51.5q174 -4 326.5 -65t260.5 -163t169 -243.5t59 -300.5q-1 -132 -41 -247t-104.5 -197t-149 -144t-174 -96.5t-181.5 -47.5q122 -24 285.5 -69.5t338.5 -99t239 -71.5q153 -42 322.5 -62.5t336.5 -16t313.5 49.5t231.5 129z" />
    <glyph glyph-name="R" unicode="R" horiz-adv-x="1335" 
d="M1264 74q57 -60 91 -95t89 -87t94 -81.5t93 -63.5t100 -50t101 -24t109 -1v-20q-81 -22 -157.5 -23.5t-145.5 17t-131.5 48.5t-124.5 78t-115.5 99.5t-111.5 118.5q-55 63 -278 309.5t-273 302.5q-43 48 -71 72t-52 27v19q96 0 109 1q25 2 43 4t49.5 8.5t54.5 15t52 25
t50 37.5t40 52.5t30 70.5q15 58 13 123q-5 138 -69.5 224.5t-184.5 86.5l-255 1v-1220q1 -52 38.5 -90.5t93.5 -38.5h25v-20h-447v20h27q52 0 90.5 36.5t39.5 91.5v1137q-1 53 -39 90.5t-92 37.5h-26v21h553q181 0 290 -101.5t109 -269.5q0 -109 -45 -202t-125 -148
t-177 -55q71 -76 239.5 -262.5t296.5 -321.5z" />
    <glyph glyph-name="S" unicode="S" horiz-adv-x="1124" 
d="M446 977l380 -299q99 -79 156 -177t68 -193t-18 -186.5t-91 -160.5t-162 -111.5t-221 -42.5q-109 0 -200 35t-149.5 93t-91 135.5t-32 159.5t35.5 168.5t104 159.5l19 -14q-55 -72 -82 -151t-25 -151.5t29.5 -139t76 -115t121 -77.5t158.5 -29q93 0 170.5 33.5
t126.5 88.5t72 127.5t15 148t-52.5 153.5t-122.5 140l-369 290q-65 51 -92.5 121t-27.5 137q0 64 23.5 124.5t67 109.5t113 78.5t152.5 29.5q77 0 178 -21h81l1 -24l4 -227h-20q-1 99 -70 155t-168 56q-109 0 -178.5 -68.5t-69.5 -171.5q0 -111 90 -184z" />
    <glyph glyph-name="T" unicode="T" horiz-adv-x="1265" 
d="M139 1436h840q63 0 140 12t107 25v-258l-21 1v36q0 49 -33.5 84.5t-82.5 37.5h-389v-1226q1 -53 40 -90.5t92 -37.5h25l1 -20h-449l1 20h26q53 0 91 36.5t40 89.5v1228h-428q-80 0 -143 -28.5t-95 -75.5t-36.5 -108t31.5 -126l-17 -10q-45 55 -58.5 114.5t5.5 111
t59.5 93.5t107.5 66.5t146 24.5z" />
    <glyph glyph-name="U" unicode="U" horiz-adv-x="1603" 
d="M1268 507v678q0 302 157 456.5t426 143.5v-20q-225 0 -356 -148t-131 -429v-681q0 -241 -152 -388.5t-400 -147.5q-256 0 -412 146.5t-156 385.5v809q-1 44 -32 72.5t-76 28.5h-34v21h416v-21h-33q-44 0 -75 -28t-33 -70v-782q0 -224 119.5 -360.5t315.5 -136.5
q205 0 330.5 129.5t125.5 341.5z" />
    <glyph glyph-name="V" unicode="V" horiz-adv-x="1470" 
d="M775 212l508 1215q35 83 72 149t97.5 138.5t132 119.5t174.5 76t224 24v-20q-62 -3 -117.5 -16t-101.5 -37t-84 -51t-72 -66.5t-59.5 -73t-51.5 -81.5t-42.5 -81t-38.5 -81l-570 -1245q-75 -166 -75 -211h-19l-575 1314q-29 64 -79 96t-102 32h-16v21h461v-21h-18
q-45 0 -72 -35t-6 -92z" />
    <glyph glyph-name="W" unicode="W" horiz-adv-x="1953" 
d="M1452 329l304 1015q25 82 62.5 160.5t99.5 160t138 141.5t182.5 96t227.5 31v-20q-97 -4 -183 -44.5t-145.5 -98t-111 -137.5t-81.5 -146.5t-56 -142.5l-393 -1141q-42 -130 -45 -228h-20l-418 1170l-330 -1032q-35 -110 -93 -200.5t-135 -154.5t-176 -89t-207 -1l4 21
q83 -16 163.5 13t146 92.5t117.5 146t87 177.5l-415 1170q-24 62 -75 93.5t-104 31.5h-16v21h455v-21h-18q-43 0 -70 -34.5t-10 -91.5l310 -996l381 1175h19v-2v1z" />
    <glyph glyph-name="X" unicode="X" horiz-adv-x="1355" 
d="M1191 1365l-443 -605l395 -621q36 -51 90.5 -85t115.5 -34h28v-20h-499v20h26q43 0 69.5 41.5t2.5 83.5l-316 498l-395 -580q-143 -209 -288 -300.5t-329 -67.5v20q48 2 96 18t85.5 36.5t81.5 59t71 66t67.5 79t58 76t55.5 77.5l436 614l-350 552q-36 51 -90.5 85.5
t-115.5 34.5h-29v21h497v-21h-26q-43 0 -69.5 -41.5t-3.5 -83.5l277 -434l393 559q134 191 264.5 272.5t305.5 66.5v-20q-40 -1 -79.5 -12t-70.5 -26t-65.5 -43t-57.5 -50t-54 -59.5t-47.5 -59.5t-45.5 -61.5t-41 -55.5z" />
    <glyph glyph-name="Y" unicode="Y" horiz-adv-x="1265" 
d="M672 770q91 242 133 331q140 299 325 397q101 53 219 53v-21q-78 0 -159 -56.5t-149.5 -148t-129.5 -208t-103.5 -236.5t-67 -233t-24.5 -197v-302q1 -52 38.5 -90.5t93.5 -38.5h25v-20h-448l1 20h27q52 0 90.5 37.5t39.5 90.5v305q0 89 -26 205t-70.5 235t-108.5 234
t-136 204t-157 144t-167 55v21q97 4 183 -20t149 -63.5t120.5 -103.5t95.5 -123t76.5 -141t59.5 -138t49 -133q4 -13 7 -20.5t7 -18.5t7 -20z" />
    <glyph glyph-name="Z" unicode="Z" horiz-adv-x="1302" 
d="M2030 -166l10 -16q-80 -93 -185.5 -147t-219 -67t-237.5 -2t-249 45.5t-245.5 76.5t-235.5 90t-210.5 87.5t-178 67.5t-131.5 31h-25v19l861 1355h-691q-50 -1 -85 -36.5t-35 -85.5v-37h-21v164v34v60q31 -13 108.5 -25t141.5 -12l-3 -1l571 1q62 0 130.5 8t86.5 18v-18
l-894 -1413q34 -9 219 -70q319 -105 539.5 -159.5t397 -66.5t306.5 12.5t275 86.5z" />
    <glyph glyph-name="bracketleft" unicode="[" horiz-adv-x="679" 
d="M246 -184v1663h346v-21l-213 -41v-1540l220 -41v-20h-353z" />
    <glyph glyph-name="backslash" unicode="\" horiz-adv-x="831" 
d="M14 1426l64 36l738 -1452l-63 -39z" />
    <glyph glyph-name="bracketright" unicode="]" horiz-adv-x="679" 
d="M89 1479h346v-1663h-353v20l220 41v1540l-213 41v21z" />
    <glyph glyph-name="asciicircum" unicode="^" horiz-adv-x="1071" 
d="M476 759l-404 -387h129l336 316l333 -316h129l-400 387h-123z" />
    <glyph glyph-name="underscore" unicode="_" horiz-adv-x="1024" 
d="M0 -184v61h1024v-61h-1024z" />
    <glyph glyph-name="grave" unicode="`" horiz-adv-x="899" 
d="M491 1542l-15 -14q-160 75 -329 174q30 57 84 108q115 -110 260 -268z" />
    <glyph glyph-name="a" unicode="a" 
d="M1463 20h18v-20h-462v20h18q45 0 72 36t6 93l-131 349h-551l-138 -350q-20 -57 7 -92.5t72 -35.5h18v-20h-412v20h18q51 0 100.5 32.5t78.5 96.5l465 1102q76 166 76 211h18l548 -1313q29 -64 78 -96.5t101 -32.5zM714 1216l-257 -657h504z" />
    <glyph glyph-name="b" unicode="b" horiz-adv-x="1200" 
d="M749 780q162 -24 256.5 -132.5t94.5 -262.5q0 -176 -126 -280.5t-351 -104.5h-499v20h26q53 0 91 37.5t40 90.5v1138q-1 53 -39.5 90t-91.5 37h-26v21h163h243q211 0 328 -93t118 -250q-1 -123 -66.5 -203.5t-160.5 -107.5zM414 75h201q157 -1 244 84.5t87 240.5
q0 88 -30 154.5t-75 104t-109.5 60.5t-122.5 30.5t-125 7.5l-1 20q44 0 84 5.5t88.5 24.5t83.5 50t59 87.5t24 131.5q-1 140 -78 216t-221 76h-109v-1293z" />
    <glyph glyph-name="c" unicode="c" horiz-adv-x="1556" 
d="M1438 598h17l-25 -322q-87 -141 -230 -223t-346 -82q-159 1 -294.5 54.5t-232 150t-150.5 236.5t-54 307q0 334 203 538.5t540 204.5q275 0 485 -138l41 -289h-17q-46 175 -183 270.5t-326 95.5q-269 0 -429.5 -186.5t-160.5 -493.5t159 -494.5t419 -193.5
q114 0 208.5 30.5t174 94.5t132 176t69.5 264z" />
    <glyph glyph-name="d" unicode="d" horiz-adv-x="1652" 
d="M816 1434q216 0 383.5 -89.5t260 -253t92.5 -375.5t-92.5 -375t-259.5 -252t-384 -89h-530h-163v20h26q54 0 92 38t39 91v1147q-5 50 -42 83.5t-88 33.5h-26v21h163h529zM816 62q263 0 422.5 180t159.5 474q0 295 -160 475.5t-422 180.5h-402v-1310h402z" />
    <glyph glyph-name="e" unicode="e" horiz-adv-x="1181" 
d="M1071 331h20l-119 -331h-849v21h26q54 0 92 37.5t39 90.5v1147q-5 50 -42 83.5t-88 33.5h-26v21h163h435q64 1 139 12.5t105 24.5v-60v-34v-165l-20 1v36q0 49 -33.5 84t-81.5 38h-418v-633h347q41 1 70 30.5t29 70.5v30h20v-324h-20v30q0 41 -28.5 70.5t-68.5 30.5h-348
v-613h293q79 0 139 19t101.5 57.5t69.5 83t54 108.5z" />
    <glyph glyph-name="f" unicode="f" horiz-adv-x="1107" 
d="M966 1471v-60v-35v-136h-20v30q0 41 -29 70.5t-70 30.5h-433v-633h346q41 1 70 30.5t29 70.5v30h20v-324h-20v30q0 41 -28.5 70.5t-68.5 30.5h-348v-527q1 -53 39 -91t92 -38h26v-20h-448v20h26q54 0 92 38t39 91v1147q-5 50 -42 83.5t-88 33.5h-26v21h163h435
q64 1 139 12.5t105 24.5z" />
    <glyph glyph-name="g" unicode="g" horiz-adv-x="1634" 
d="M1451 574v-339q-38 -50 -90 -94t-124 -84t-170 -63t-208 -23q-216 1 -383 94t-260 262.5t-93 389.5q0 334 204 539.5t531 205.5q282 0 497 -138l41 -289h-17q-46 175 -181.5 270.5t-338.5 95.5q-261 0 -422 -188t-161 -496q0 -306 161 -494t422 -190q132 0 251.5 47
t207.5 130l3 363q0 45 -27.5 69t-77.5 24h-33v21h402v-21h-31q-50 0 -77 -24t-26 -68z" />
    <glyph glyph-name="h" unicode="h" horiz-adv-x="1665" 
d="M1542 20v-20h-448l1 20h25q53 0 92 37.5t40 90.5v530h-838v-529q1 -53 39 -91t92 -38h26v-20h-448v20h26q54 0 92 38t39 91v1136q-2 53 -40 90.5t-91 37.5h-26v21h163h122h163v-21h-26q-53 0 -91.5 -37t-39.5 -90v-547h838v548q-2 53 -40.5 89.5t-91.5 36.5h-25l-1 21
h164h121h163v-21h-26q-54 0 -92 -38t-39 -91v-1135q1 -53 39 -91t92 -38h26z" />
    <glyph glyph-name="i" unicode="i" horiz-adv-x="692" 
d="M571 20v-20h-448v20h26q54 0 92 38t39 91v1136q-2 53 -40 90.5t-91 37.5h-26v21h163h122h163v-21h-26q-53 0 -91.5 -37t-39.5 -90v-1137q1 -53 39 -91t92 -38h26z" />
    <glyph glyph-name="j" unicode="j" horiz-adv-x="663" 
d="M408 1434h163v-21h-26q-53 0 -91 -37.5t-40 -90.5v-1285q0 -172 -108 -291t-265 -119v19q101 35 170 150t69 247v1278q-1 53 -39 91t-92 38h-26v21h163v-1z" />
    <glyph glyph-name="k" unicode="k" horiz-adv-x="1345" 
d="M545 20h26v-20h-448v20h26q54 0 92 38t39 91v1136q-2 53 -40 90.5t-91 37.5h-26v21h163h122h163v-21h-26q-53 0 -91.5 -37t-39.5 -90v-1137q1 -53 39 -91t92 -38zM614 762l560 -658q43 -43 87.5 -62.5t105.5 -20.5v-21h-86q-210 0 -309 116l-493 597l483 606
q26 35 9.5 65.5t-58.5 30.5h-20v18h433v-18h-9q-65 0 -123 -25.5t-98 -70.5z" />
    <glyph glyph-name="l" unicode="l" horiz-adv-x="1150" 
d="M1071 331h20l-119 -331h-849v20h26q54 0 92 38t39 91v1135q-1 53 -39 91t-92 38h-26v20h157v1h134v-1h157v-20h-26q-54 0 -92 -38t-39 -91v-1221h293q79 0 139 19t101.5 57.5t69.5 83t54 108.5z" />
    <glyph glyph-name="m" unicode="m" horiz-adv-x="1906" 
d="M1844 20h32v-20h-445v19h32q32 0 56 27t24 61q0 1 -0.5 4t-0.5 5l-92 1021l-430 -957q-58 -124 -71 -209h-19l-524 1137l-89 -992v-1v-3v-5q0 -34 23.5 -61t55.5 -27h32v-19h-396v20h32q57 0 99.5 35t49.5 94l155 1313h18l572 -1236l559 1236h18l159 -1313q7 -59 50 -94
t100 -35z" />
    <glyph glyph-name="n" unicode="n" horiz-adv-x="1722" 
d="M1631 1434v-21h-38q-52 0 -88.5 -35.5t-38.5 -86.5v-1058q0 -59 5 -124.5t9 -101.5l5 -36h-19l-1118 1192l2 -1020q2 -51 38 -87t88 -36h38v-20h-422v20h38q52 0 89 36t38 88v1064q0 62 -4.5 126t-9.5 97l-5 33h20l1 -2l1114 -1189v1016q-1 52 -37.5 88t-88.5 36h-38v21
h422z" />
    <glyph glyph-name="o" unicode="o" horiz-adv-x="1736" 
d="M869 1462q231 0 410 -92.5t278.5 -262t99.5 -390.5q0 -165 -58 -304.5t-161.5 -236.5t-249.5 -151t-319 -54q-230 0 -409 92.5t-278.5 262.5t-99.5 391t99.5 390.5t278 262t409.5 92.5zM869 33q283 0 456 188t173 496t-173 496t-456 188t-456 -188t-173 -496t173 -496
t456 -188z" />
    <glyph glyph-name="p" unicode="p" horiz-adv-x="1181" 
d="M657 1434q196 0 309.5 -106t113.5 -290q0 -91 -37 -168.5t-99.5 -126.5t-138.5 -75t-161 -19.5t-160 46.5v20q4 -1 11.5 -2.5t31.5 -3.5t48 -2t57.5 3.5t64 12t64 25.5t61 41t52 61.5t39.5 84.5t13 124q-4 144 -76 228.5t-200 84.5h-236v-1223q1 -53 39 -91t92 -38h26
v-20h-448v20h26q54 0 92 38t39 91v1146q-5 50 -42 84t-88 34h-26v21h163h370z" />
    <glyph glyph-name="q" unicode="q" horiz-adv-x="1775" 
d="M2711 -172l8 -10q-11 -29 -40.5 -66t-81 -77.5t-116.5 -75.5t-152 -58.5t-182 -29t-213 17t-238 74.5q-76 33 -256.5 125.5t-330.5 156.5t-273 86v2q-217 11 -383 106t-258.5 260.5t-92.5 377.5q0 221 99.5 390.5t278.5 262t410 92.5t409.5 -92.5t278 -262t99.5 -390.5
q0 -293 -171 -490t-456 -243q216 -66 662 -256q160 -67 338.5 -85.5t359 26.5t301.5 159zM261 717q0 -308 173 -496t456 -188t455.5 188t172.5 496t-172.5 496t-455.5 188t-456 -188t-173 -496z" />
    <glyph glyph-name="r" unicode="r" horiz-adv-x="1386" 
d="M1130 175q70 -77 133 -115t146 -39v-21h-113q-68 0 -126 16t-102 46t-72 56.5t-57 61.5q-13 15 -138 195t-132 188q-35 44 -57.5 68t-59 47t-71.5 23v19q46 -1 108 1q255 7 320 212q15 47 13 123q-4 139 -72 222.5t-182 89.5q-46 3 -103 3t-100.5 -0.5t-51.5 -0.5v-1221
q1 -53 39 -91t92 -38h26v-20h-447v20h26q53 0 91 37.5t40 90.5v1136q-1 53 -39 91t-92 38h-26v21h163v-1h389q186 0 293.5 -102.5t107.5 -281.5q0 -99 -45 -188.5t-126.5 -146t-176.5 -56.5q31 -14 72 -56t74 -88q177 -252 256 -339z" />
    <glyph glyph-name="s" unicode="s" horiz-adv-x="974" 
d="M351 976l402 -372q103 -95 103 -250q0 -172 -104 -277.5t-279 -105.5q-90 0 -191.5 27.5t-155.5 84.5q-12 45 -5.5 132t28.5 154h19q-15 -156 70.5 -250t224.5 -86q117 6 195.5 80.5t78.5 193.5q0 117 -80 191l-392 364q-111 102 -111 254q0 66 24 127.5t68 110.5
t114 78.5t154 29.5q80 0 175 -21h81v-24v-227h-19q0 96 -66 153.5t-165 57.5q-110 0 -181 -69.5t-71 -166.5q0 -112 83 -189z" />
    <glyph glyph-name="t" unicode="t" horiz-adv-x="1265" 
d="M288 1436h691q63 0 140 12t107 25v-258l-21 1v36q0 49 -33.5 84.5t-82.5 37.5h-389v-1226q1 -53 40 -90.5t92 -37.5h25l1 -20h-449l1 20h26q53 0 91 36.5t40 89.5v1228h-389q-49 -2 -82.5 -37.5t-33.5 -84.5v-36l-21 -1v258q30 -13 106.5 -25t140.5 -12z" />
    <glyph glyph-name="u" unicode="u" horiz-adv-x="1607" 
d="M1359 1434h146v-21h-33q-44 0 -75 -27.5t-33 -69.5v-809q0 -241 -152 -388.5t-400 -147.5q-256 0 -412 146.5t-156 385.5v809q-1 44 -32 72.5t-76 28.5h-34v21h416v-21h-33q-44 0 -75 -28t-33 -70v-782q0 -224 119.5 -360.5t315.5 -136.5q205 0 330.5 129.5t125.5 341.5
v808q-2 42 -33 70t-75 28h-33v21h146h86z" />
    <glyph glyph-name="v" unicode="v" horiz-adv-x="1515" 
d="M1124 1413v21h412v-21h-18q-51 0 -100 -32t-79 -95l-493 -1104q-75 -166 -75 -211h-19l-575 1314q-29 64 -79 96t-102 32h-16v21h461v-21h-18q-45 0 -72 -35t-6 -92l429 -1073l446 1073q21 57 -6 92t-72 35h-18z" />
    <glyph glyph-name="w" unicode="w" horiz-adv-x="2011" 
d="M1628 1413v21h404v-21h-18q-53 0 -105.5 -32.5t-73.5 -94.5l-339 -1083q-42 -130 -45 -228h-20l-418 1172l-311 -944q-40 -127 -43 -228h-19l-465 1313q-24 62 -75 93.5t-104 31.5h-16v21h455v-21h-18q-43 0 -70 -34.5t-10 -91.5l310 -996l381 1175h19v-2v1l404 -1133
l274 959q14 56 -10 89t-69 33h-18z" />
    <glyph glyph-name="x" unicode="x" horiz-adv-x="1355" 
d="M1350 20h27v-20h-499v20h26q43 0 69.5 41.5t2.5 83.5l-315 498l-315 -496q-25 -42 2 -84.5t70 -42.5h26v-20h-465v20h29q61 0 116.5 35t91.5 86l392 585l-359 567q-36 51 -90.5 85.5t-115.5 34.5h-29v20h497v-20h-26q-43 0 -69.5 -41.5t-3.5 -83.5l282 -443l280 441h-1
q25 42 0 84.5t-69 42.5h-26v21h462v-21h-29q-61 0 -115.5 -34.5t-90.5 -85.5l-359 -529l398 -625q36 -51 90.5 -85t115.5 -34z" />
    <glyph glyph-name="y" unicode="y" horiz-adv-x="1353" 
d="M921 1413v21h454v-21h-28q-60 0 -115 -34t-91 -85l-405 -654v-491q1 -53 39.5 -91t92.5 -38l26 1v-21h-448v21l26 -1q53 0 91 37.5t40 90.5v494l-390 652q-32 50 -88 84.5t-118 34.5h-28v21h504v-21h-26q-45 0 -69 -42t-2 -85l307 -573l326 573v0l1 2q23 42 -3.5 83.5
t-69.5 41.5h-26z" />
    <glyph glyph-name="z" unicode="z" horiz-adv-x="1333" 
d="M1243 316h20l-68 -316h-1072v19l861 1355h-691q-50 -1 -85 -36.5t-35 -85.5v-37h-21v164v34v60q31 -13 108.5 -25t141.5 -12l-3 -1l571 1q62 0 130.5 8t86.5 18v-17l-875 -1384h651q108 0 178.5 70t101.5 185z" />
    <glyph glyph-name="braceleft" unicode="{" horiz-adv-x="884" 
d="M310 700q63 28 101 81t50 115.5t15.5 134.5t-2.5 138q-3 48 -1 93t6 86t15.5 76.5t28 63.5t42.5 48t59.5 30t79 8t100.5 -16l10 15q-68 38 -134.5 51t-129.5 -5t-109 -69t-72.5 -152t-21.5 -243q1 -16 3 -60t2.5 -65t0 -61.5t-4 -62.5t-11.5 -53.5t-20.5 -51t-32.5 -38
t-46 -28.5q-76 -30 -139.5 13t-82.5 115l-16 -6q15 -68 50 -111t79.5 -57t90.5 -11t90 22zM310 610q-45 20 -91.5 23t-90.5 -11.5t-78.5 -57.5t-49.5 -110l15 -6q20 72 84 114.5t139 12.5q26 -10 46 -28.5t32.5 -38t20.5 -51t11.5 -54t4 -62.5t0 -60.5t-2.5 -65t-3 -59.5
q-5 -137 19.5 -236.5t69.5 -152t106.5 -73t130 -8.5t141.5 52l-10 14q-58 -16 -106 -16.5t-83 12t-61 38.5t-42.5 61t-26.5 82t-12.5 98.5t-0.5 113.5q6 150 2 198q-15 196 -151 265q-6 3 -13 6z" />
    <glyph glyph-name="bar" unicode="|" horiz-adv-x="501" 
d="M205 -369v1803h92v-1803h-92z" />
    <glyph glyph-name="braceright" unicode="}" horiz-adv-x="884" 
d="M576 700q44 -19 90 -22t90.5 11t79 57t49.5 111l-16 6q-19 -72 -82 -115t-139 -13q-26 10 -46 28.5t-32.5 38t-20.5 51t-11.5 53.5t-4 62.5t0 61.5t2.5 65t3 60q5 142 -21.5 243t-72.5 152t-109 69t-129.5 5t-134.5 -51l10 -15q63 16 113.5 16t85 -14.5t60.5 -41.5
t40 -64.5t22.5 -82.5t9 -96.5t-0.5 -105.5q-6 -66 -2.5 -138t15.5 -134.5t50 -115.5t101 -81zM576 610q-83 -37 -123.5 -114t-40.5 -157t1 -164q1 -23 1 -34q2 -62 -0.5 -113.5t-12.5 -98.5t-26.5 -82t-42.5 -61t-61 -38.5t-83 -12t-106 16.5l-10 -14q73 -40 141.5 -52
t130 8.5t106.5 73t69.5 152t19.5 236.5q-1 15 -3 59.5t-2.5 65t0 61t4 62.5t11.5 54t20.5 51t32.5 38t46 29q75 30 138.5 -12.5t84.5 -115.5l14 6q-15 67 -49 110t-78 57.5t-90.5 11.5t-91.5 -23z" />
    <glyph glyph-name="asciitilde" unicode="~" horiz-adv-x="1009" 
d="M174 448h-92q-12 72 -0.5 125t42.5 88t72.5 52.5t90.5 18.5t112 -30t113 -69t105.5 -70t90.5 -33q72 -2 114.5 51t13.5 141h92q16 -74 4.5 -128t-46 -88.5t-80 -51t-98.5 -16.5q-48 0 -108.5 31t-109.5 68t-106 69t-97 34q-63 3 -97 -45t-16 -147z" />
    <glyph glyph-name="exclamdown" unicode="&#xa1;" horiz-adv-x="471" 
d="M236 1445q38 0 65 -27t27 -65t-27 -65t-65 -27t-65.5 27t-27.5 65t27.5 65t65.5 27zM185 612l43 471h20l42 -471l24 -612h-154z" />
    <glyph glyph-name="cent" unicode="&#xa2;" horiz-adv-x="1232" 
d="M1138 623l14 1l-16 -243q-65 -106 -188.5 -167t-273.5 -61h-14l-14 -171l-60 6l14 169q-228 23 -363 170t-135 382q0 256 156.5 405.5t415.5 149.5h15l13 171l63 -2l-14 -173q185 -19 317 -103l35 -250h-14q-64 264 -343 292l-81 -984h9q200 1 325 101t139 307zM256 709
q0 -209 91 -336.5t258 -152.5l79 983h-10q-199 0 -308.5 -130t-109.5 -364z" />
    <glyph glyph-name="sterling" unicode="&#xa3;" horiz-adv-x="1181" 
d="M1101 326h21l-93 -277q-96 -44 -202.5 -60t-192.5 -5q-48 7 -100 19t-86 22.5t-77 19.5t-73 10t-75 -6q-15 -3 -41 -17.5t-43 -31.5h-21v20q86 69 147.5 242t61.5 411h-225l25 74h198v11q-31 662 412 704q94 9 170.5 -25t121.5 -92l-57 -187h-20q17 132 -45.5 192.5
t-169.5 50.5q-72 -7 -123.5 -40.5t-81 -88t-46 -130.5t-19 -168.5t0.5 -201.5q0 -5 0.5 -13t0.5 -12h376l-25 -74h-350q-1 -75 -8.5 -140.5t-17.5 -112t-29 -91t-33 -71t-40.5 -58.5t-41.5 -47t-44 -43q36 12 84 14t86.5 -2t103.5 -12.5t108 -11.5q66 -6 128.5 1.5t126 31
t118 73t90.5 122.5z" />
    <glyph glyph-name="currency" unicode="&#xa4;" horiz-adv-x="1107" 
d="M884 438l123 -123l-43 -44l-123 123q-123 -109 -287 -109.5t-288 106.5l-120 -120l-44 44l120 120q-108 124 -107 288t110 287l-123 122l44 44l123 -123q123 105 285 104t284 -107l126 126l43 -44l-126 -125q106 -122 107 -284t-104 -285zM286 456q110 -110 265 -110
t265 110t110 265t-110 265t-265 110t-265 -110t-110 -265t110 -265z" />
    <glyph glyph-name="yen" unicode="&#xa5;" horiz-adv-x="1353" 
d="M921 1413v21h454v-21h-28q-60 0 -115 -34t-91 -85l-275 -444h260v-62h-298l-91 -148v-36h389v-61h-389v-395q1 -53 39.5 -90t91.5 -37h26v-21h-448v21h26q54 0 92 37.5t39 90.5v394h-389v61h389v38l-88 146h-301v62h265l-266 444q-32 50 -88 84.5t-118 34.5h-28v21h504
v-21h-26q-45 0 -69 -42t-2 -85l307 -573l326 573v0l1 2q23 42 -3.5 83.5t-69.5 41.5h-26z" />
    <glyph glyph-name="brokenbar" unicode="&#xa6;" horiz-adv-x="501" 
d="M205 717v717h92v-717h-92zM205 -369v717h92v-717h-92z" />
    <glyph glyph-name="section" unicode="&#xa7;" horiz-adv-x="1046" 
d="M569 1450q152 25 238 -44q56 -44 52 -99q-3 -34 -30 -54q-21 -16 -53 0t-65.5 46t-78.5 54.5t-92 27t-106 -37.5q-71 -52 -75 -117.5t73 -179t256 -294.5q109 -111 166.5 -234.5t61 -233.5t-27.5 -214t-91 -182t-138 -130.5t-161 -66.5q-152 -25 -240 42q-57 44 -54 99
q3 35 32 57q21 15 52.5 -0.5t64.5 -45t78 -54t92 -27t106 36.5q71 49 72 126.5t-81 195.5t-253 282q-115 111 -173 233.5t-59 231.5t33.5 211t98.5 178.5t143 128t159 64.5zM285 1194q-31 -57 -48 -106.5t-22 -119.5t15 -137t77 -152t152 -171q190 -173 261 -304.5
t41 -234.5q204 323 -169 680q-130 125 -200 219.5t-92.5 168.5t-14.5 157z" />
    <glyph glyph-name="dieresis" unicode="&#xa8;" horiz-adv-x="1228" 
d="M382 1434q-33 0 -56.5 23.5t-23.5 56.5t23.5 56.5t56.5 23.5t56.5 -23.5t23.5 -56.5t-23.5 -56.5t-56.5 -23.5zM767 1434q-33 0 -56.5 23.5t-23.5 56.5t23.5 56.5t56.5 23.5t56.5 -23.5t23.5 -56.5t-23.5 -56.5t-56.5 -23.5z" />
    <glyph glyph-name="copyright" unicode="&#xa9;" horiz-adv-x="1736" 
d="M868 1462q152 0 290 -59t238 -158.5t159 -237.5t59 -290q0 -203 -100 -374.5t-271.5 -271.5t-374.5 -100q-152 0 -290 59t-237.5 159t-158.5 238t-59 290t59 290t158.5 237.5t237.5 158.5t290 59zM868 1387q-136 0 -260 -53t-214 -143t-143 -214t-53 -260t53 -260.5
t143 -214.5t214 -143t260 -53q182 0 336.5 90t244.5 244.5t90 336.5q0 136 -53 260t-143 214t-214.5 143t-260.5 53zM1262 647h12l-14 -200q-53 -87 -154.5 -137t-224.5 -50q-201 1 -335 131.5t-134 325.5q0 196 134 326.5t335 130.5q87 0 173 -23.5t150 -64.5l30 -206h-13
q-27 112 -117.5 176t-222.5 64q-143 0 -238.5 -115t-95.5 -288q0 -170 95.5 -285t238.5 -118q79 0 144.5 19t117 58t82.5 104t37 152z" />
    <glyph glyph-name="ordfeminine" unicode="&#xaa;" horiz-adv-x="753" 
d="M746 785h8v-12h-251v12h9q22 0 36 21t2 53l-52 136h-253l-58 -137q-12 -32 2 -52.5t37 -20.5h9v-11h-235v11h9q55 0 90 72l229 484q41 90 43 121h11l274 -602q37 -75 90 -75zM378 1306l-112 -261h213z" />
    <glyph glyph-name="guillemotleft" unicode="&#xab;" horiz-adv-x="870" 
d="M82 598q201 -168 358 -414l18 10q-92 235 -243 403q150 164 241 396l-16 10q-78 -129 -160.5 -219.5t-197.5 -185.5zM414 598q201 -168 358 -414l18 10q-92 235 -243 403q150 164 241 396l-16 10q-78 -129 -160.5 -219.5t-197.5 -185.5z" />
    <glyph glyph-name="logicalnot" unicode="&#xac;" horiz-adv-x="1230" 
d="M82 814h1068v-416h-92v323h-976v93z" />
    <glyph glyph-name="uni00AD" unicode="&#xad;" horiz-adv-x="778" 
d="M70 597l12 46h614l13 -46l-13 -46h-614z" />
    <glyph glyph-name="registered" unicode="&#xae;" horiz-adv-x="501" 
d="M252 1435q96 0 163.5 -67.5t67.5 -163.5t-67.5 -163.5t-163.5 -67.5t-163.5 67.5t-67.5 163.5t67.5 163.5t163.5 67.5zM252 1014q79 0 134.5 55.5t55.5 134.5t-55.5 134.5t-134.5 55.5t-135 -55.5t-56 -134.5t56 -134.5t135 -55.5zM343 1132l3 -5q3 -5 5 -7.5l6 -7.5
t7.5 -7.5t9.5 -6t12 -5.5v-4h-26q-20 0 -35 4.5t-27 17t-17.5 19.5t-16 27t-13.5 24q-16 28 -23 28v4h22l3 1q3 0 5.5 1t7 3.5t8 5.5t7 9.5t6.5 14.5q3 9 3 23q-2 44 -51 44l-25 1v-201q0 -9 6.5 -15.5t15.5 -6.5h5v-4h-103v4h6q9 0 15 6.5t6 15.5v194q0 9 -6 15.5t-15 6.5
h-6v4h121q37 0 61 -18.5t24 -48.5q0 -26 -16.5 -45t-42.5 -22q5 -1 11 -6t13 -13.5t12 -16t12 -18.5t10 -15z" />
    <glyph glyph-name="macron" unicode="&#xaf;" horiz-adv-x="1228" 
d="M861 1511v-71h-512v71h512z" />
    <glyph glyph-name="degree" unicode="&#xb0;" horiz-adv-x="526" 
d="M263 1361q83 0 142.5 -59.5t59.5 -142.5t-59.5 -142.5t-142.5 -59.5t-142.5 59.5t-59.5 142.5t59.5 142.5t142.5 59.5zM263 1280q-51 0 -86 -35t-35 -86t35 -86t86 -35t86 35t35 86t-35 86t-86 35z" />
    <glyph glyph-name="plusminus" unicode="&#xb1;" horiz-adv-x="985" 
d="M539 1189v-365h366v-92h-366v-366h-92v366h-365v92h365v365h92zM905 123h-823v92h823v-92z" />
    <glyph glyph-name="uni00B2" unicode="&#xb2;" horiz-adv-x="768" 
d="M118 1219h-13l-24 154q39 39 103.5 64t129.5 25q129 0 217 -69.5t88 -180.5q0 -34 -8.5 -68.5t-18 -62.5t-32.5 -61.5t-37 -54t-48 -53t-47.5 -46t-53.5 -45t-49 -38t-50.5 -36.5t-42.5 -31h281q59 0 91 24t69 92h14l-65 -201h-561v13q27 25 87 77t100.5 88.5t93.5 91.5
t85.5 100.5t56 100.5t23.5 105q0 96 -53.5 151t-139.5 53q-85 -2 -141.5 -53t-54.5 -139z" />
    <glyph glyph-name="uni00B3" unicode="&#xb3;" horiz-adv-x="634" 
d="M352 1090q82 -11 143 -63.5t61 -126.5q0 -119 -66 -201t-179 -111t-250 -2l3 14q169 -4 276.5 73.5t107.5 222.5q0 174 -266 174l3 14q101 0 169.5 52t66.5 140q-1 61 -41 97.5t-104 36.5q-81 0 -120.5 -36t-36.5 -119h-14l-24 127q62 76 195 77q108 2 180.5 -51.5
t72.5 -135.5q0 -62 -54.5 -116t-122.5 -66z" />
    <glyph glyph-name="acute" unicode="&#xb4;" horiz-adv-x="899" 
d="M425 1528l-14 14q174 186 260 268q55 -55 84 -108q-132 -77 -330 -174z" />
    <glyph glyph-name="paragraph" unicode="&#xb6;" horiz-adv-x="1064" 
d="M1031 1521l14 -12q-60 -133 -216 -136h-26v-1072q0 -121 -19.5 -189t-78.5 -139l-19 17q27 45 39 92t14 81t2 109v24v1077h-170v-1373q0 -58 -2 -95.5t-11.5 -89.5t-27.5 -87.5t-52 -72.5t-83 -62l-15 18q84 86 107 160t22 229l-4 682q-174 0 -289.5 103t-113.5 274
q2 169 117 271.5t285 103.5h331h15.5h18.5t18 1t21 3.5t21.5 6.5t24 10.5t24 15.5t26.5 21.5t27 28.5z" />
    <glyph glyph-name="periodcentered" unicode="&#xb7;" horiz-adv-x="348" 
d="M174 750q50 0 94 -26.5t60 -66.5q-16 -40 -60 -66t-94 -26t-93.5 26t-59.5 66q16 40 59.5 66.5t93.5 26.5zM174 709q-29 0 -58 -15.5t-38 -36.5q9 -21 38 -36t58 -15t58 15t38 36q-9 21 -38 36.5t-58 15.5z" />
    <glyph glyph-name="cedilla" unicode="&#xb8;" horiz-adv-x="1228" 
d="M507 -127l99 129h56l-85 -100q30 10 64 11.5t68.5 -8t58 -41t24.5 -81.5q1 -47 -24.5 -84t-67 -55.5t-94 -23.5t-103.5 13l2 21q46 0 86.5 11.5t70 42.5t27.5 77q-1 41 -29 63t-65.5 20.5t-76.5 -15.5z" />
    <glyph glyph-name="uni00B9" unicode="&#xb9;" horiz-adv-x="432" 
d="M92 631h300v13h-29q-31 0 -53 21t-22 52v745h-14q-36 -43 -81 -60.5t-111 -26.5v-14h51q63 0 63 -67v-576q0 -31 -22 -52.5t-53 -21.5h-29v-13z" />
    <glyph glyph-name="ordmasculine" unicode="&#xba;" horiz-adv-x="843" 
d="M423 1462q150 0 255.5 -102.5t105.5 -249.5t-105.5 -250t-255.5 -103t-256 103t-106 250t106 249.5t256 102.5zM423 800q108 0 178.5 88.5t70.5 221.5t-70.5 221t-178.5 88t-178.5 -88t-70.5 -221t70.5 -221.5t178.5 -88.5z" />
    <glyph glyph-name="guillemotright" unicode="&#xbb;" horiz-adv-x="870" 
d="M458 598q-115 95 -197.5 185.5t-160.5 219.5l-16 -10q91 -232 241 -396q-151 -168 -243 -403l18 -10q157 246 358 414zM790 598q-115 95 -197.5 185.5t-160.5 219.5l-16 -10q91 -232 241 -396q-151 -168 -243 -403l18 -10q157 246 358 414z" />
    <glyph glyph-name="onequarter" unicode="&#xbc;" horiz-adv-x="1460" 
d="M133 644h29q31 0 53 21.5t22 52.5v576q0 67 -63 67h-51v14q66 9 111 26.5t81 60.5h14v-745q0 -31 22 -52t53 -21h29v-13h-300v13zM205 4l979 1458l50 -34l-979 -1457zM1411 362l-28 -96h-119v-181q0 -31 22 -52t53 -21h15v-14h-271v14h15q30 0 52 20t23 50v184h-373v14
l450 549v-1l1 1h13v-54v0v-440h59q35 0 48.5 5.5t26.5 21.5h13zM1173 662l-262 -327h262v327z" />
    <glyph glyph-name="onehalf" unicode="&#xbd;" horiz-adv-x="1648" 
d="M133 631h300v13h-29q-31 0 -53 21t-22 52v745h-14q-36 -43 -81 -60.5t-111 -26.5v-14h51q63 0 63 -67v-576q0 -31 -22 -52.5t-53 -21.5h-29v-13zM1182 1462l-979 -1458l50 -33l979 1457zM999 588h-14l-24 154q39 39 104 64t130 25q129 0 216.5 -69.5t87.5 -180.5
q0 -63 -27 -126.5t-56 -105t-93 -99t-89 -76.5t-94 -69q-18 -14 -27 -20h281q59 0 91 24t69 92h14l-66 -201h-560v14q27 25 87 77t100.5 88t93.5 91t85.5 100.5t55.5 100.5t23 105q0 96 -53 151t-139 53q-85 -2 -141.5 -53t-54.5 -139z" />
    <glyph glyph-name="threequarters" unicode="&#xbe;" horiz-adv-x="1460" 
d="M293 4l980 1458l49 -34l-979 -1457zM556 900q0 -119 -66 -201t-179 -111t-250 -2l3 14q169 -4 276.5 73.5t107.5 222.5q0 174 -266 174l3 14q101 0 169.5 52t66.5 140q-1 61 -41 97t-104 36q-81 0 -120.5 -35.5t-36.5 -118.5h-14l-24 127q62 76 195 77q108 2 180.5 -51.5
t72.5 -135.5q0 -62 -54.5 -116t-122.5 -66q82 -11 143 -63.5t61 -126.5zM1422 362l-29 -96h-119v-181q0 -31 22 -52t53 -21h15v-14h-271v14h15q30 0 52 20t23 50v184h-373v13l450 550l1 -1v1h13v-54v0v-440h59q35 0 48.5 5.5t26.5 21.5h14zM1183 662l-262 -327h262v327z" />
    <glyph glyph-name="questiondown" unicode="&#xbf;" horiz-adv-x="886" 
d="M477 1442q38 0 65 -27t27 -65t-27 -65t-65 -27t-65 27t-27 65t27 65t65 27zM785 348l21 -194q-47 -87 -126 -135t-177 -48q-187 0 -294 92.5t-107 255.5q0 65 23.5 125t59 103.5t79.5 88t83.5 80.5t72.5 81t45 89q17 45 15.5 94.5t-35.5 94.5l12 10q91 -83 91 -195
q0 -53 -30 -108t-73 -104t-86 -101.5t-73 -119.5t-30 -138q0 -134 66 -210t181 -76q123 0 194 84t68 231h20z" />
    <glyph glyph-name="Agrave" unicode="&#xc0;" 
d="M765 1599l-14 -14q-156 74 -330 175q30 57 84 108q108 -103 260 -269zM1934 -391l2 -21q-81 -30 -161 -32.5t-158 22.5t-152.5 81.5t-142.5 142t-130 206.5t-113 272l-79 234h-562l-142 -365q-21 -57 6 -93t72 -36h18v-20h-412v20h18q49 0 96.5 29.5t77.5 88.5l507 1218
q-158 225 -431 126l-6 21q100 42 186.5 51t149 -4.5t120 -60t93 -89t73.5 -120t56.5 -125t47.5 -129.5l249 -708q19 -52 38.5 -101.5t45 -106t52.5 -105.5t59.5 -101.5t67 -93t75 -80.5t82.5 -65t90.5 -44.5t99 -20t107.5 8.5zM731 1268l-269 -693h517l-162 478
q-45 133 -86 215z" />
    <glyph glyph-name="Aacute" unicode="&#xc1;" 
d="M1080 1760q-148 -86 -329 -175l-15 14q174 186 261 269q52 -52 83 -108zM1934 -391l2 -21q-81 -30 -161 -32.5t-158 22.5t-152.5 81.5t-142.5 142t-130 206.5t-113 272l-79 234h-562l-142 -365q-21 -57 6 -93t72 -36h18v-20h-412v21h18q49 0 96.5 29t77.5 88l507 1218
q-158 225 -431 126l-6 21q100 42 186.5 51t149 -4.5t120 -60t93 -89t73.5 -120t56.5 -125t47.5 -129.5l250 -708q39 -112 83 -209t112 -204t141.5 -177t173 -106t206.5 -13zM731 1268l-269 -692h517l-162 477q-45 133 -86 215z" />
    <glyph glyph-name="Acircumflex" unicode="&#xc2;" 
d="M982 1583l-232 135l-215 -135l-12 16l217 244h21l234 -244zM1934 -391l2 -21q-81 -30 -161 -32.5t-158 22.5t-152.5 81.5t-142.5 142t-130 206.5t-113 272l-79 234h-562l-142 -365q-21 -57 6 -93t72 -36h18v-20h-412v20h18q49 0 96.5 29.5t77.5 88.5l507 1218
q-158 225 -431 126l-6 21q100 42 186.5 51t149 -4.5t120 -60t93 -89t73.5 -120t56.5 -125t47.5 -129.5l249 -708q19 -52 38.5 -101.5t45 -106t52.5 -105.5t59.5 -101.5t67 -93t75 -80.5t82.5 -65t90.5 -44.5t99 -20t107.5 8.5zM731 1268l-269 -693h517l-162 478
q-45 133 -86 215z" />
    <glyph glyph-name="Atilde" unicode="&#xc3;" 
d="M648 1675q-77 0 -111 -84h-20q11 81 46 127.5t85 46.5q49 0 132 -44t115 -44q85 0 113 69h21q-9 -75 -45 -118t-89 -43q-47 0 -132 45t-115 45zM1934 -391l2 -21q-81 -30 -161 -32.5t-158 22.5t-152.5 81.5t-142.5 142t-130 206.5t-113 272l-79 234h-562l-142 -365
q-21 -57 6 -93t72 -36h18v-20h-412v20h18q49 0 96.5 29.5t77.5 88.5l507 1218q-158 225 -431 126l-6 21q100 42 186.5 51t149 -4.5t120 -60t93 -89t73.5 -120t56.5 -125t47.5 -129.5l249 -708q19 -52 38.5 -101.5t45 -106t52.5 -105.5t59.5 -101.5t67 -93t75 -80.5t82.5 -65
t90.5 -44.5t99 -20t107.5 8.5zM731 1268l-269 -693h517l-162 478q-45 133 -86 215z" />
    <glyph glyph-name="Adieresis" unicode="&#xc4;" 
d="M558 1585q-33 0 -56.5 23.5t-23.5 56.5t23.5 56.5t56.5 23.5t56.5 -23.5t23.5 -56.5t-23.5 -56.5t-56.5 -23.5zM944 1585q-33 0 -56.5 23.5t-23.5 56.5t23.5 56.5t56.5 23.5t56.5 -23.5t23.5 -56.5t-23.5 -56.5t-56.5 -23.5zM1934 -391l2 -21q-81 -30 -161 -32.5
t-158 22.5t-152.5 81.5t-142.5 142t-130 206.5t-113 272l-79 234h-562l-142 -365q-21 -57 6 -93t72 -36h18v-20h-412v20h18q49 0 96.5 29.5t77.5 88.5l507 1218q-158 225 -431 126l-6 21q100 42 186.5 51t149 -4.5t120 -60t93 -89t73.5 -120t56.5 -125t47.5 -129.5l249 -708
q19 -52 38.5 -101.5t45 -106t52.5 -105.5t59.5 -101.5t67 -93t75 -80.5t82.5 -65t90.5 -44.5t99 -20t107.5 8.5zM731 1268l-269 -693h517l-162 478q-45 133 -86 215z" />
    <glyph glyph-name="Aring" unicode="&#xc5;" 
d="M751 1586q-82 0 -137 43t-55 110t55 110.5t137 43.5q84 0 138 -41.5t54 -112.5q0 -67 -55 -110t-137 -43zM751 1858q-44 0 -72 -31.5t-28 -87.5q0 -55 28 -86.5t72 -31.5t72.5 31.5t28.5 86.5t-28.5 87t-72.5 32zM1934 -391l2 -21q-81 -30 -161 -32.5t-158 22.5
t-152.5 81.5t-142.5 142t-130 206.5t-113 272l-79 234h-562l-142 -365q-21 -57 6 -93t72 -36h18v-20h-412v20h18q49 0 96.5 29.5t77.5 88.5l507 1218q-158 225 -431 126l-6 21q100 42 186.5 51t149 -4.5t120 -60t93 -89t73.5 -120t56.5 -125t47.5 -129.5l250 -708
q39 -112 83 -209t112 -204t141.5 -177t173 -106t206.5 -13zM731 1268l-269 -693h517l-162 478q-45 133 -86 215z" />
    <glyph glyph-name="AE" unicode="&#xc6;" horiz-adv-x="1785" 
d="M1757 284h20l-114 -284h-953v21h20q41 0 70.5 29t30.5 70v536h-330l-316 -544q-39 -67 -87.5 -120.5t-100 -88.5t-106 -58.5t-107.5 -33t-101.5 -9t-92.5 11.5l2 20q147 6 262 83t221 244l751 1181q12 26 -2 48.5t-43 22.5h-8v21h315q64 1 139 12.5t105 24.5v-231h-20v30
q0 41 -29 70.5t-70 30.5h-249v-654h397q41 1 70 30.5t29 70.5v30l21 1v-324h-21v30q0 41 -28.5 70.5t-68.5 30.5h-399v-593h480q223 3 313 221zM831 1223l-294 -506h294v506z" />
    <glyph glyph-name="Ccedilla" unicode="&#xc7;" horiz-adv-x="1681" 
d="M1610 768h21q13 -380 -174 -584t-522 -212l-77 -89q30 10 64 11.5t68.5 -8t58 -41t24.5 -81.5q1 -47 -24.5 -84t-67 -55.5t-93.5 -23.5t-103 13l1 21q46 0 86.5 11.5t70.5 42.5t28 77q-1 41 -29.5 62.5t-66 20t-76.5 -15.5l-10 21l90 118q-170 5 -317 64t-250 158
t-161.5 235t-58.5 290q0 157 60 294.5t164 236t250 155.5t313 57q140 0 284.5 -38t238.5 -100l41 -289h-17q-30 115 -115 200t-196 125.5t-234 40.5q-180 0 -325.5 -88.5t-227.5 -243.5t-82 -346q0 -144 49 -271t135.5 -219.5t213 -146t274.5 -53.5q152 0 279.5 50t219 143
t142.5 232t51 310z" />
    <glyph glyph-name="Egrave" unicode="&#xc8;" horiz-adv-x="1243" 
d="M523 1579l-14 -14q-165 78 -330 174q30 57 84 108q115 -110 260 -268zM1214 331h21l-120 -331h-992v21h26q54 0 92 37.5t39 90.5v1147q-5 50 -42 83.5t-88 33.5h-26v21h163h251q64 1 139 12.5t105 24.5v-60v-34v-165l-21 1v36q0 49 -33 84t-81 38h-234v-633h390
q41 1 70 30.5t29 70.5v30h20v-324h-20v31q0 40 -28 69t-69 31h-391v-613h437q79 0 138.5 19t101.5 57.5t69.5 83t53.5 108.5z" />
    <glyph glyph-name="Eacute" unicode="&#xc9;" horiz-adv-x="1243" 
d="M838 1739q-132 -77 -330 -174l-14 14q174 186 260 268q55 -55 84 -108zM1214 331h21l-120 -331h-992v21l26 -1q54 0 92 38t39 91v1147q-5 50 -42 83.5t-88 33.5h-26v21h163h251q64 1 139 12.5t105 24.5v-60v-34v-165l-21 1v36q0 49 -33 84t-81 38h-234v-633h390
q41 1 70 30.5t29 70.5v30h20v-324h-20v30q0 41 -28.5 70.5t-68.5 30.5h-391v-613h437q79 0 138.5 19t101.5 57.5t69.5 83t53.5 108.5z" />
    <glyph glyph-name="Ecircumflex" unicode="&#xca;" horiz-adv-x="1243" 
d="M740 1562l-233 136l-214 -135l-12 16l217 243h20l234 -243zM1214 331h21l-120 -331h-992v21h26q54 0 92 37.5t39 90.5v1147q-5 50 -42 83.5t-88 33.5h-26v21h163h251q64 1 139 12.5t105 24.5v-60v-34v-165l-21 1v36q0 49 -33 84t-81 38h-233v-633h389q41 1 70 30.5
t29 70.5v30h20v-324h-20v30q0 41 -28.5 70.5t-68.5 30.5h-391v-613h437q79 0 138.5 19t101.5 57.5t69.5 83t53.5 108.5z" />
    <glyph glyph-name="Edieresis" unicode="&#xcb;" horiz-adv-x="1243" 
d="M316 1565q-33 0 -56.5 23.5t-23.5 56.5t23.5 56.5t56.5 23.5t56.5 -23.5t23.5 -56.5t-23.5 -56.5t-56.5 -23.5zM701 1565q-33 0 -56.5 23.5t-23.5 56.5t23.5 56.5t56.5 23.5t56.5 -23.5t23.5 -56.5t-23.5 -56.5t-56.5 -23.5zM1214 331h21l-120 -331h-992v21h26
q54 0 92 37.5t39 90.5v1147q-5 50 -42 83.5t-88 33.5h-26v21h163h251q64 1 139 12.5t105 24.5v-60v-34v-165l-21 1v36q0 49 -33 84t-81 38h-234v-633h390q41 1 70 30.5t29 70.5v30h20v-324h-20v30q0 41 -28.5 70.5t-68.5 30.5h-392v-613h438q79 0 138.5 19t101.5 57.5
t69.5 83t53.5 108.5z" />
    <glyph glyph-name="Igrave" unicode="&#xcc;" horiz-adv-x="804" 
d="M474 1579l-14 -14q-165 78 -330 174q30 57 84 108q115 -110 260 -268zM657 20h26l1 -20h-448v20h26q54 0 92 38t39 91v1230l-219 -13q-199 -11 -207 -135q-5 -65 33 -106.5t116 -44.5v-12q-92 -25 -156.5 26t-61.5 137q7 167 264 194q4 0 205 14t317 36l3 -21
q-88 -14 -124 -59t-37 -126v-1120q1 -53 39 -91t92 -38z" />
    <glyph glyph-name="Iacute" unicode="&#xcd;" horiz-adv-x="804" 
d="M789 1739q-132 -77 -330 -174l-14 14q174 186 260 268q55 -55 84 -108zM684 1475l4 -21q-89 -14 -125 -59t-37 -126v-1120q1 -53 39.5 -91t92.5 -38h25l1 -20h-448v20h26q54 0 92 38t39 91v1230l-219 -13q-199 -11 -207 -135q-5 -65 33 -106.5t116 -44.5v-12
q-92 -25 -156.5 26t-61.5 137q7 167 264 194q4 0 205 14t317 36z" />
    <glyph glyph-name="Icircumflex" unicode="&#xce;" horiz-adv-x="804" 
d="M449 1822h20l234 -243l-12 -17l-233 136l-214 -135l-13 16zM684 1475l4 -21q-89 -14 -125 -59t-37 -126v-1120q1 -53 39.5 -91t92.5 -38h25l1 -20h-448v20h26q54 0 92 38t39 91v1230l-219 -13q-199 -11 -207 -135q-5 -65 33 -106.5t116 -44.5v-12q-92 -25 -156.5 26
t-61.5 137q7 167 264 194q4 0 205 14t317 36z" />
    <glyph glyph-name="Idieresis" unicode="&#xcf;" horiz-adv-x="804" 
d="M267 1565q-33 0 -56.5 23.5t-23.5 56.5t23.5 56.5t56.5 23.5t56.5 -23.5t23.5 -56.5t-23.5 -56.5t-56.5 -23.5zM652 1725q33 0 56.5 -23.5t23.5 -56.5t-23.5 -56.5t-56.5 -23.5t-56.5 23.5t-23.5 56.5t23.5 56.5t56.5 23.5zM684 1475l3 -21q-88 -14 -124 -59t-37 -126
v-1120q1 -53 39.5 -91t92.5 -38h25l1 -20h-448v20h26q54 0 92 38t39 91v1230l-219 -13q-199 -11 -207 -135q-5 -65 33 -106.5t116 -44.5v-12q-92 -25 -156.5 26t-61.5 137q7 167 264 194q4 0 205 14t317 36z" />
    <glyph glyph-name="Eth" unicode="&#xd0;" horiz-adv-x="1673" 
d="M816 1433q330 -7 533 -201.5t203 -514.5q0 -212 -92.5 -375.5t-259.5 -252.5t-384 -89h-459h-233v21h26q51 0 88 33.5t42 83.5v548h-157v62h157v623q-104 -4 -183 -19.5t-129 -36t-89 -53.5t-59.5 -62.5t-44.5 -73.5l-23 8q30 90 77 148t121 92t164 48t223 17
q94 2 479 -6zM816 61q262 0 422 180.5t160 475.5q0 294 -159.5 474t-422.5 180q-291 2 -402 2v-625h344v-62h-344v-625h402z" />
    <glyph glyph-name="Ntilde" unicode="&#xd1;" horiz-adv-x="1722" 
d="M769 1654q-78 0 -111 -83h-20q11 81 46 127t85 46q49 0 132 -43.5t115 -43.5q86 0 113 68h21q-9 -75 -45 -117.5t-89 -42.5q-47 0 -132 44.5t-115 44.5zM2150 -291l8 -20q-80 -25 -155 -29.5t-140.5 12t-122.5 42.5t-113.5 71t-100.5 87t-96 99l-1082 1196l1 -1024
q2 -51 38.5 -87t88.5 -36h38v-20h-422v20h38q52 0 89 36t38 88v1126q-12 15 -38.5 48.5t-44.5 56t-48.5 57.5t-55.5 59.5t-60 54.5t-66 49t-71 36.5t-78 24t-82.5 5t-89.5 -14.5l-8 21q68 29 134 38t120.5 3t112 -30.5t100 -51.5t93.5 -72.5t85.5 -81t81.5 -88.5l1031 -1147
v1052q-1 52 -37.5 88t-88.5 36h-38v21h422l-1 -21h-37q-52 0 -88.5 -35.5t-38.5 -86.5v-1157l24 -27q15 -17 51 -60q66 -81 110.5 -127.5t127.5 -114t176.5 -91.5t194.5 -5z" />
    <glyph glyph-name="Ograve" unicode="&#xd2;" horiz-adv-x="1902" 
d="M975 1579l-14 -14q-165 78 -330 174q30 57 84 108q115 -110 260 -268zM587 961l-20 -4q-9 35 -6 75t9.5 82t27 84.5t47.5 81t69 72t92.5 58t118.5 38.5t146 14q208 0 371 -96.5t250.5 -261t87.5 -365.5q0 -225 -107 -400.5t-295 -271.5t-424 -96q-175 0 -328 55.5
t-264 154.5t-175 243t-64 313q0 218 102.5 388t292.5 267l12 -18q-91 -59 -149 -166.5t-79 -215t-21 -224.5q0 -174 51.5 -314.5t142 -232t212 -140t263.5 -48.5q195 0 347.5 87.5t238.5 249.5t86 373q0 104 -22 200.5t-68.5 180t-112.5 145t-159.5 97t-204.5 35.5
q-122 0 -220 -42.5t-153.5 -108t-81 -142t-13.5 -147.5z" />
    <glyph glyph-name="Oacute" unicode="&#xd3;" horiz-adv-x="1902" 
d="M960 1565l-14 14q174 186 260 268q55 -55 84 -108q-132 -77 -330 -174zM587 961l-20 -5q-9 35 -6 75t9.5 82.5t27 84.5t47.5 80.5t69 72t92.5 58.5t118.5 39t146 14q208 0 371 -96.5t250.5 -261t87.5 -365.5q0 -225 -107 -400.5t-295 -271.5t-424 -96q-175 0 -328 55.5
t-264 154.5t-175 243t-64 313q0 218 102.5 388t292.5 267l12 -18q-91 -59 -149 -166.5t-79 -215t-21 -224.5q0 -174 51.5 -314.5t142 -232t212 -140t263.5 -48.5q195 0 347.5 87.5t238.5 249.5t86 373q0 104 -22 200.5t-68.5 180t-112.5 145t-159.5 97t-204.5 35.5
q-122 0 -220 -42.5t-153.5 -108t-81 -142t-13.5 -147.5z" />
    <glyph glyph-name="Ocircumflex" unicode="&#xd4;" horiz-adv-x="1902" 
d="M970 1822h-20l-218 -243l13 -16l214 135l233 -136l12 17zM587 961l-20 -5q-9 35 -6 75t9.5 82.5t27 84.5t47.5 80.5t69 72t92.5 58.5t118.5 39t146 14q208 0 371 -96.5t250.5 -261t87.5 -365.5q0 -225 -107 -400.5t-295 -271.5t-424 -96q-175 0 -328 55.5t-264 154.5
t-175 243t-64 313q0 218 102.5 388t292.5 267l12 -18q-91 -59 -149 -166.5t-79 -215t-21 -224.5q0 -174 51.5 -314.5t142 -232t212 -140t263.5 -48.5q195 0 347.5 87.5t238.5 249.5t86 373q0 104 -22 200.5t-68.5 180t-112.5 145t-159.5 97t-204.5 35.5q-122 0 -220 -42.5
t-153.5 -108t-81 -142t-13.5 -147.5z" />
    <glyph glyph-name="Otilde" unicode="&#xd5;" horiz-adv-x="1902" 
d="M726 1571h21q33 83 111 83q30 0 114.5 -44.5t131.5 -44.5q53 0 89 42.5t45 117.5h-20q-27 -68 -114 -68q-32 0 -114.5 43.5t-131.5 43.5q-50 0 -85.5 -46t-46.5 -127zM587 961l-20 -5q-9 35 -6 75t9.5 82.5t27 84.5t47.5 80.5t69 72t92.5 58.5t118.5 39t146 14
q208 0 371 -96.5t250.5 -261t87.5 -365.5q0 -225 -107 -400.5t-295 -271.5t-424 -96q-175 0 -328 55.5t-264 154.5t-175 243t-64 313q0 218 102.5 388t292.5 267l12 -18q-91 -59 -149 -166.5t-79 -215t-21 -224.5q0 -174 51.5 -314.5t142 -232t212 -140t263.5 -48.5
q195 0 347.5 87.5t238.5 249.5t86 373q0 104 -22 200.5t-68.5 180t-112.5 145t-159.5 97t-204.5 35.5q-122 0 -220 -42.5t-153.5 -108t-81 -142t-13.5 -147.5z" />
    <glyph glyph-name="Odieresis" unicode="&#xd6;" horiz-adv-x="1902" 
d="M768 1565q-33 0 -56.5 23.5t-23.5 56.5t23.5 56.5t56.5 23.5t56.5 -23.5t23.5 -56.5t-23.5 -56.5t-56.5 -23.5zM1153 1565q-33 0 -56.5 23.5t-23.5 56.5t23.5 56.5t56.5 23.5t56.5 -23.5t23.5 -56.5t-23.5 -56.5t-56.5 -23.5zM587 961l-20 -5q-9 35 -6 75t9.5 82.5
t27 84.5t47.5 80.5t69 72t92.5 58.5t118.5 39t146 14q208 0 371 -96.5t250.5 -261t87.5 -365.5q0 -225 -107 -400.5t-295 -271.5t-424 -96q-175 0 -328 55.5t-264 154.5t-175 243t-64 313q0 218 102.5 388t292.5 267l12 -18q-91 -59 -149 -166.5t-79 -215t-21 -224.5
q0 -174 51.5 -314.5t142 -232t212 -140t263.5 -48.5q195 0 347.5 87.5t238.5 249.5t86 373q0 104 -22 200.5t-68.5 180t-112.5 145t-159.5 97t-204.5 35.5q-122 0 -220 -42.5t-153.5 -108t-81 -142t-13.5 -147.5z" />
    <glyph glyph-name="multiply" unicode="&#xd7;" horiz-adv-x="849" 
d="M684 958l65 -65l-258 -259l258 -258l-65 -65l-258 258l-258 -258l-66 65l259 258l-259 259l66 65l258 -258z" />
    <glyph glyph-name="Oslash" unicode="&#xd8;" horiz-adv-x="1902" 
d="M1607 1433l-95 -115q127 -99 197.5 -250t70.5 -329q0 -168 -64 -312t-175.5 -244t-266 -156t-330.5 -56q-258 0 -458 116l-112 -134l-51 45l106 126q-145 103 -225.5 260.5t-80.5 352.5q0 218 102.5 388t292.5 267l12 -18q-91 -59 -149 -166.5t-79 -215t-21 -224.5
q0 -369 210 -568l905 1088q-140 113 -341 113q-122 0 -220 -42.5t-153.5 -108t-81 -142t-13.5 -147.5l-20 -5q-9 35 -6 75t9.5 82.5t27 84.5t47.5 80.5t69 72t92.5 58.5t118.5 39t146 14q215 0 384 -104l100 121zM940 33q146 0 272 51t216.5 143t142 225t51.5 291
q0 146 -44.5 276t-130.5 221l-903 -1084q166 -123 396 -123z" />
    <glyph glyph-name="Ugrave" unicode="&#xd9;" horiz-adv-x="1603" 
d="M878 1579l-14 -14q-165 78 -330 174q30 57 84 108q115 -110 260 -268zM1268 507v678q0 302 157 456.5t426 143.5v-20q-225 0 -356 -148t-131 -429v-681q0 -241 -152 -388.5t-400 -147.5q-256 0 -412 146.5t-156 385.5v809q-1 44 -32 72.5t-76 28.5h-34v21h416v-21h-33
q-44 0 -75 -28t-33 -70v-782q0 -224 119.5 -360.5t315.5 -136.5q205 0 330.5 129.5t125.5 341.5z" />
    <glyph glyph-name="Uacute" unicode="&#xda;" horiz-adv-x="1603" 
d="M1193 1739q-132 -77 -330 -174l-14 14q174 186 260 268q55 -55 84 -108zM1268 507v678q0 302 157 456.5t426 143.5v-20q-225 0 -356 -148t-131 -429v-682q0 -241 -152 -388t-400 -147q-256 0 -412 146.5t-156 385.5v809q-1 44 -32 72.5t-76 28.5h-34v21h416v-21h-33
q-44 0 -75 -28t-33 -70v-782q0 -224 119.5 -360.5t315.5 -136.5q205 0 330.5 129.5t125.5 341.5z" />
    <glyph glyph-name="Ucircumflex" unicode="&#xdb;" horiz-adv-x="1603" 
d="M1095 1562l-233 136l-214 -135l-13 16l218 243h20l234 -243zM1268 507v678q0 302 157 456.5t426 143.5v-20q-225 0 -356 -148t-131 -429v-681q0 -241 -152 -388.5t-400 -147.5q-256 0 -412 146.5t-156 385.5v809q-1 44 -32 72.5t-76 28.5h-34v21h416v-21h-33
q-44 0 -75 -28t-33 -70v-782q0 -224 119.5 -360.5t315.5 -136.5q205 0 330.5 129.5t125.5 341.5z" />
    <glyph glyph-name="Udieresis" unicode="&#xdc;" horiz-adv-x="1603" 
d="M1268 507v678q0 302 157 456.5t426 143.5v-20q-225 0 -356 -148t-131 -429v-681q0 -241 -152 -388.5t-400 -147.5q-256 0 -412 146.5t-156 385.5v809q-1 44 -32 72.5t-76 28.5h-34v21h416v-21h-33q-44 0 -75 -28t-33 -70v-782q0 -224 119.5 -360.5t315.5 -136.5
q205 0 330.5 129.5t125.5 341.5zM671 1565q-33 0 -57 23.5t-24 56.5t24 56.5t57 23.5t56.5 -23.5t23.5 -56.5t-23.5 -56.5t-56.5 -23.5zM1056 1565q-33 0 -56.5 23.5t-23.5 56.5t23.5 56.5t56.5 23.5t56.5 -23.5t23.5 -56.5t-23.5 -56.5t-56.5 -23.5z" />
    <glyph glyph-name="Yacute" unicode="&#xdd;" horiz-adv-x="1265" 
d="M1007 1739q-137 -80 -329 -174l-14 14q174 186 260 268q52 -52 83 -108zM672 770v-1q91 242 133 331q140 299 325 397q101 53 219 53v-20q-78 0 -159 -56.5t-149.5 -148t-129.5 -208t-103.5 -236.5t-67 -233t-24.5 -197v-302q1 -52 38.5 -90.5t93.5 -38.5h25v-20h-448
l1 20h27q52 0 90.5 37.5t39.5 90.5v305q0 89 -26 205t-70.5 235t-108.5 234t-136 204t-157 144t-167 55v21q97 4 183 -20t149 -63.5t120.5 -103.5t95.5 -123t76.5 -141t59.5 -138t49 -133q4 -13 7 -20.5t7 -18.5t7 -20z" />
    <glyph glyph-name="Thorn" unicode="&#xde;" horiz-adv-x="1134" 
d="M378 1122h244q199 0 305.5 -105t106.5 -290q0 -91 -36 -168t-97 -126.5t-135.5 -75.5t-158.5 -19.5t-159 46.5v19q7 -1 19.5 -3t49 -4t71.5 1.5t81 17t83 37t71.5 68t53.5 104.5q16 50 14 123q-4 144 -76.5 229t-200.5 85h-236v-912q1 -53 39 -91t92 -38h26v-20h-448
l1 20h26q54 0 92 38t39 91v1136q-2 53 -40 90.5t-91 37.5h-26l-1 21h164h121h163v-21h-26q-53 0 -91.5 -37t-39.5 -90v-164z" />
    <glyph glyph-name="germandbls" unicode="&#xdf;" horiz-adv-x="1949" 
d="M351 976l402 -372q103 -95 103 -250q0 -172 -104 -277.5t-279 -105.5q-90 0 -191.5 27.5t-155.5 84.5q-12 45 -5.5 132t28.5 154h19q-15 -156 70.5 -250t224.5 -86q117 6 195.5 80.5t78.5 193.5q0 117 -80 191l-392 364q-111 102 -111 254q0 66 24 127.5t68 110.5
t114 78.5t154 29.5q80 0 175 -21h81v-24v-227h-19q0 96 -66 153.5t-165 57.5q-110 0 -181 -69.5t-71 -166.5q0 -112 83 -189zM1326 977l402 -373q103 -95 103 -250q0 -172 -104 -277.5t-280 -105.5q-90 0 -190.5 27.5t-155.5 84.5q-12 45 -5.5 132t28.5 154h18
q-15 -155 71 -249.5t225 -86.5q117 6 195.5 80.5t78.5 193.5q0 117 -80 191l-393 364q-111 102 -111 254q0 66 24 127.5t68 110.5t114 78.5t154 29.5q82 0 176 -21h81v-24v-227h-20q0 96 -65.5 153.5t-164.5 57.5q-110 0 -181 -69.5t-71 -166.5q0 -111 83 -188z" />
    <glyph glyph-name="agrave" unicode="&#xe0;" 
d="M743 1579l-14 -14q-165 78 -330 174q30 57 84 108q115 -110 260 -268zM1463 20h18v-20h-462v20h18q45 0 72 36t6 93l-131 349h-551l-138 -350q-20 -57 7 -92.5t72 -35.5h18v-20h-412v20h18q51 0 100.5 32.5t78.5 96.5l465 1102q76 166 76 211h18l548 -1313
q29 -64 78 -96.5t101 -32.5zM714 1216l-257 -657h504z" />
    <glyph glyph-name="aacute" unicode="&#xe1;" 
d="M1058 1739q-137 -80 -329 -174l-15 14q174 186 260 268q55 -55 84 -108zM1464 21h17v-21h-462v20h18q45 0 72 36t6 93l-131 349h-551l-138 -350q-20 -57 7 -92.5t72 -35.5h18v-20h-412v21h18q51 0 100.5 32t78.5 96l465 1102q76 166 76 211h18l548 -1313q29 -64 78.5 -96
t101.5 -32zM714 1216l-257 -657h504z" />
    <glyph glyph-name="acircumflex" unicode="&#xe2;" 
d="M960 1562l-233 136l-214 -135l-12 16l217 243h21l234 -243zM1463 20h18v-20h-462v20h18q45 0 72 36t6 93l-131 349h-551l-138 -350q-20 -57 7 -92.5t72 -35.5h18v-20h-412v20h18q51 0 100.5 32.5t78.5 96.5l465 1102q76 166 76 211h18l548 -1313q29 -64 78 -96.5
t101 -32.5zM714 1216l-257 -657h504z" />
    <glyph glyph-name="atilde" unicode="&#xe3;" 
d="M626 1654q-78 0 -111 -83h-20q11 81 46 127t85 46q49 0 132 -43.5t115 -43.5q86 0 113 68h21q-9 -75 -45 -117.5t-89 -42.5q-47 0 -132 44.5t-115 44.5zM1464 20h17v-20h-462v20h18q45 0 72 36t6 93l-131 349h-551l-138 -350q-20 -57 7 -92.5t72 -35.5h18v-20h-412v20h18
q51 0 100.5 32.5t78.5 96.5l465 1102q76 166 76 211h18l548 -1313q29 -64 78.5 -96.5t101.5 -32.5zM714 1216l-257 -657h504z" />
    <glyph glyph-name="adieresis" unicode="&#xe4;" 
d="M536 1565q-33 0 -56.5 23.5t-23.5 56.5t23.5 56.5t56.5 23.5t56.5 -23.5t23.5 -56.5t-23.5 -56.5t-56.5 -23.5zM922 1565q-33 0 -56.5 23.5t-23.5 56.5t23.5 56.5t56.5 23.5t56.5 -23.5t23.5 -56.5t-23.5 -56.5t-56.5 -23.5zM1463 20h18v-20h-462v20h18q45 0 72 36t6 93
l-131 349h-551l-138 -350q-20 -57 7 -92.5t72 -35.5h18v-20h-412v20h18q51 0 100.5 32.5t78.5 96.5l465 1102q76 166 76 211h18l548 -1313q29 -64 78 -96.5t101 -32.5zM714 1216l-257 -657h504z" />
    <glyph glyph-name="aring" unicode="&#xe5;" 
d="M729 1565q-82 0 -137 43.5t-55 110.5t55 110t137 43q84 0 138 -41t54 -112q0 -67 -55 -110.5t-137 -43.5zM729 1837q-44 0 -72 -31.5t-28 -86.5t28 -86.5t72 -31.5t72.5 31.5t28.5 86.5t-28.5 86.5t-72.5 31.5zM1463 20h18v-20h-462v20h18q45 0 72 36t6 93l-131 349h-551
l-138 -350q-20 -57 7 -92.5t72 -35.5h18v-20h-412v20h18q51 0 100.5 32.5t78.5 96.5l465 1102q76 166 76 211h18l548 -1313q29 -64 78 -96.5t101 -32.5zM714 1216l-257 -657h504z" />
    <glyph glyph-name="ae" unicode="&#xe6;" horiz-adv-x="1845" 
d="M1736 284h21l-114 -284h-811l1 21h20q41 0 70 29t30 70h1v536h-336l-306 -518q-26 -44 -8.5 -82t63.5 -35h19v-21h-406v21h14q49 0 103.5 37t85.5 88l766 1196q12 26 -2 48.5t-43 22.5h-8v21h499q64 1 139 12.5t105 24.5v-231h-20v30q0 41 -29 70.5t-70 30.5h-433v-654
h346q41 1 70 30.5t29 70.5v30l20 1v-324h-20v30q0 41 -28.5 70.5t-68.5 30.5h-348v-593h337q222 3 312 221zM954 1224l-300 -507h300v507z" />
    <glyph glyph-name="ccedilla" unicode="&#xe7;" horiz-adv-x="1556" 
d="M1438 598h17l-25 -322q-177 -290 -540 -304l-83 -97q30 10 64 11.5t68.5 -8t58 -41t24.5 -81.5q1 -47 -24.5 -84t-67 -55t-93.5 -23t-103 13l1 20q46 0 86.5 11.5t70.5 42.5t28 77q-1 41 -29.5 63t-66 20.5t-76.5 -15.5l-10 20l95 126q-155 4 -286.5 59t-225 151
t-146 234.5t-52.5 302.5q0 334 203 538.5t540 204.5q275 0 485 -138l41 -289h-17q-46 175 -183 270.5t-326 95.5q-269 0 -429.5 -186.5t-160.5 -493.5t159 -494.5t419 -193.5q114 0 208.5 30.5t174 94.5t132 176t69.5 264z" />
    <glyph glyph-name="egrave" unicode="&#xe8;" horiz-adv-x="1181" 
d="M623 1579l-15 -14q-160 75 -329 174q30 57 84 108q115 -110 260 -268zM1071 331h20l-119 -331h-849v21h26q54 0 92 37.5t39 90.5v1147q-5 50 -42 83.5t-88 33.5h-26v21h163h435q64 1 139 12.5t105 24.5v-60v-34v-165l-20 1v36q0 49 -33.5 84t-81.5 38h-418v-633h347
q41 1 70 30.5t29 70.5v30h20v-324h-20v31q0 40 -28 69t-69 31h-348v-613h293q79 0 139 19t101.5 57.5t69.5 83t54 108.5z" />
    <glyph glyph-name="eacute" unicode="&#xe9;" horiz-adv-x="1181" 
d="M938 1739q-132 -77 -330 -174l-14 14q174 186 260 268q55 -55 84 -108zM1071 331h20l-119 -331h-849v21l26 -1q54 0 92 38t39 91v1147q-5 50 -42 83.5t-88 33.5h-26v21h163h435q64 1 139 12.5t105 24.5v-60v-34v-165l-20 1v36q0 49 -33.5 84t-81.5 38h-417v-633h346
q41 1 70 30.5t29 70.5v30h20v-324h-20v30q0 41 -28.5 70.5t-68.5 30.5h-348v-613h293q79 0 139 19t101.5 57.5t69.5 83t54 108.5z" />
    <glyph glyph-name="ecircumflex" unicode="&#xea;" horiz-adv-x="1181" 
d="M840 1562l-233 136l-215 -135l-12 16l218 243h20l234 -243zM1071 331h20l-119 -331h-849v21h26q54 0 92 37.5t39 90.5v1147q-5 50 -42 83.5t-88 33.5h-26v21h163h435q64 1 139 12.5t105 24.5v-60v-34v-165l-20 1v36q0 49 -33.5 84t-81.5 38h-417v-633h346q41 1 70 30.5
t29 70.5v30h20v-324h-20v30q0 41 -28.5 70.5t-68.5 30.5h-348v-613h293q79 0 139 19t101.5 57.5t69.5 83t54 108.5z" />
    <glyph glyph-name="edieresis" unicode="&#xeb;" horiz-adv-x="1181" 
d="M415 1565q-33 0 -56.5 23.5t-23.5 56.5t23.5 56.5t56.5 23.5t56.5 -23.5t23.5 -56.5t-23.5 -56.5t-56.5 -23.5zM801 1565q-33 0 -56.5 23.5t-23.5 56.5t23.5 56.5t56.5 23.5t56.5 -23.5t23.5 -56.5t-23.5 -56.5t-56.5 -23.5zM1071 331h20l-119 -331h-849v21h26
q54 0 92 37.5t39 90.5v1147q-5 50 -42 83.5t-88 33.5h-26v21h163h435q64 1 139 12.5t105 24.5v-60v-34v-165l-20 1v36q0 49 -33.5 84t-81.5 38h-418v-633h347q41 1 70 30.5t29 70.5v30h20v-324h-20v30q0 41 -28.5 70.5t-68.5 30.5h-348v-613h293q79 0 139 19t101.5 57.5
t69.5 83t54 108.5z" />
    <glyph glyph-name="igrave" unicode="&#xec;" horiz-adv-x="692" 
d="M362 1579l-15 -14q-160 75 -329 174q30 57 84 108q115 -110 260 -268zM571 21v-21h-448v21l26 -1q54 0 92 38t39 91v1136q-2 53 -40 90.5t-91 37.5h-26v21h163h122h163v-21h-26q-53 0 -91.5 -37t-39.5 -90v-1137q1 -53 39 -91t92 -38z" />
    <glyph glyph-name="iacute" unicode="&#xed;" horiz-adv-x="692" 
d="M677 1739q-132 -77 -330 -174l-14 14q174 186 260 268q55 -55 84 -108zM545 20h26v-20h-448v20h26q54 0 92 38t39 91v1136q-2 53 -40 90.5t-91 37.5h-26v21h163h122h163v-21h-26q-53 0 -91.5 -37t-39.5 -90v-1137q1 -53 39 -91t92 -38z" />
    <glyph glyph-name="icircumflex" unicode="&#xee;" horiz-adv-x="692" 
d="M337 1822h20l234 -243l-12 -17l-233 136l-214 -135l-13 16zM545 20h26v-20h-448v20h26q54 0 92 38t39 91v1136q-2 53 -40 90.5t-91 37.5h-26v21h163h122h163v-21h-26q-53 0 -91.5 -37t-39.5 -90v-1137q1 -53 39 -91t92 -38z" />
    <glyph glyph-name="idieresis" unicode="&#xef;" horiz-adv-x="692" 
d="M234 1645q0 -33 -23.5 -56.5t-56.5 -23.5t-56.5 23.5t-23.5 56.5t23.5 56.5t56.5 23.5t56.5 -23.5t23.5 -56.5zM540 1725q33 0 56.5 -23.5t23.5 -56.5t-23.5 -56.5t-56.5 -23.5t-56.5 23.5t-23.5 56.5t23.5 56.5t56.5 23.5zM545 20h26v-20h-448v20h26q54 0 92 38t39 91
v1136q-2 53 -40 90.5t-91 37.5h-26v21h163h122h163v-21h-26q-53 0 -91.5 -37t-39.5 -90v-1137q1 -53 39 -91t92 -38z" />
    <glyph glyph-name="eth" unicode="&#xf0;" horiz-adv-x="1673" 
d="M826 1434q327 0 526 -197.5t199 -520.5t-199 -519.5t-526 -196.5h-530h-163v20h26q54 0 92 38t39 91v537h-167v62h167v548q-5 50 -42 83.5t-88 33.5h-26v21h163h529zM826 62q262 0 422 180t160 474q0 295 -160 475.5t-422 180.5h-402v-624h334v-62h-334v-624h402z" />
    <glyph glyph-name="ntilde" unicode="&#xf1;" horiz-adv-x="1722" 
d="M769 1654q-78 0 -111 -83h-20q11 81 46 127t85 46q49 0 132 -43.5t115 -43.5q86 0 113 68h21q-9 -75 -45 -117.5t-89 -42.5q-47 0 -132 44.5t-115 44.5zM1631 1434l-1 -21h-37q-52 0 -88.5 -35.5t-38.5 -86.5v-1058q0 -59 5 -124.5t9 -101.5l5 -36h-19l-1118 1192
l2 -1020q2 -51 38 -87t88 -36h38v-20h-422v20h38q52 0 89 36t38 88v1064q0 62 -4.5 126t-9.5 97l-5 33h20l1 -2l1114 -1189v1016q-1 52 -37.5 88t-88.5 36h-38v21h422z" />
    <glyph glyph-name="ograve" unicode="&#xf2;" horiz-adv-x="1736" 
d="M886 1579l-15 -14q-160 75 -329 174q30 57 84 108q115 -110 260 -268zM869 1462q231 0 410 -92.5t278.5 -262t99.5 -390.5q0 -165 -58 -304.5t-161.5 -236.5t-249.5 -151t-319 -54q-230 0 -409 92.5t-278.5 262.5t-99.5 391t99.5 390.5t278 262t409.5 92.5zM869 33
q283 0 456 188t173 496t-173 496t-456 188t-456 -188t-173 -496t173 -496t456 -188z" />
    <glyph glyph-name="oacute" unicode="&#xf3;" horiz-adv-x="1736" 
d="M871 1565l-14 14q174 186 260 268q55 -55 84 -108q-132 -77 -330 -174zM869 1462q231 0 410 -92.5t278.5 -262t99.5 -390.5q0 -165 -58 -304.5t-161.5 -236.5t-249.5 -151t-319 -54q-230 0 -409 92.5t-278.5 262.5t-99.5 391t99.5 390.5t278 262t409.5 92.5zM869 33
q283 0 456 188t173 496t-173 496t-456 188t-456 -188t-173 -496t173 -496t456 -188z" />
    <glyph glyph-name="ocircumflex" unicode="&#xf4;" horiz-adv-x="1736" 
d="M1115 1579l-234 243h-20l-218 -243l13 -16l214 135l233 -136zM869 1462q231 0 410 -92.5t278.5 -262t99.5 -390.5q0 -165 -58 -304.5t-161.5 -236.5t-249.5 -151t-319 -54q-230 0 -409 92.5t-278.5 262.5t-99.5 391t99.5 390.5t278 262t409.5 92.5zM869 33q283 0 456 188
t173 496t-173 496t-456 188t-456 -188t-173 -496t173 -496t456 -188z" />
    <glyph glyph-name="otilde" unicode="&#xf5;" horiz-adv-x="1736" 
d="M637 1571h20q33 83 111 83q30 0 115 -44.5t132 -44.5q53 0 89 42.5t45 117.5h-21q-27 -68 -113 -68q-32 0 -115 43.5t-132 43.5q-50 0 -85 -46t-46 -127zM869 1462q231 0 410 -92.5t278.5 -262t99.5 -390.5q0 -165 -58 -304.5t-161.5 -236.5t-249.5 -151t-319 -54
q-230 0 -409 92.5t-278.5 262.5t-99.5 391t99.5 390.5t278 262t409.5 92.5zM869 33q283 0 456 188t173 496t-173 496t-456 188t-456 -188t-173 -496t173 -496t456 -188z" />
    <glyph glyph-name="odieresis" unicode="&#xf6;" horiz-adv-x="1736" 
d="M678 1565q-33 0 -56.5 23.5t-23.5 56.5t23.5 56.5t56.5 23.5t56.5 -23.5t23.5 -56.5t-23.5 -56.5t-56.5 -23.5zM1064 1565q-33 0 -56.5 23.5t-23.5 56.5t23.5 56.5t56.5 23.5t56.5 -23.5t23.5 -56.5t-23.5 -56.5t-56.5 -23.5zM869 1462q231 0 410 -92.5t278.5 -262
t99.5 -390.5q0 -165 -58 -304.5t-161.5 -236.5t-249.5 -151t-319 -54q-230 0 -409 92.5t-278.5 262.5t-99.5 391t99.5 390.5t278 262t409.5 92.5zM869 33q283 0 456 188t173 496t-173 496t-456 188t-456 -188t-173 -496t173 -496t456 -188z" />
    <glyph glyph-name="divide" unicode="&#xf7;" horiz-adv-x="985" 
d="M493 887q-30 0 -51.5 21t-21.5 51t21.5 51t51.5 21t51 -21t21 -51t-21 -51t-51 -21zM82 588v92h823v-92h-823zM493 239q-30 0 -51.5 21.5t-21.5 51.5t21.5 51t51.5 21t51 -21t21 -51t-21 -51.5t-51 -21.5z" />
    <glyph glyph-name="oslash" unicode="&#xf8;" horiz-adv-x="1736" 
d="M1484 1433l-105 -127q133 -100 205.5 -251t72.5 -338q0 -165 -58 -304.5t-161.5 -236.5t-249.5 -151t-319 -54q-282 0 -486 140l-131 -158l-52 45l129 154q-118 100 -182.5 244.5t-64.5 320.5q0 221 99.5 390.5t278 262t409.5 92.5q259 0 452 -117l111 134zM240 717
q0 -293 159 -480l862 1036q-162 128 -392 128q-283 0 -456 -188t-173 -496zM869 33q283 0 456 188t173 496q0 320 -186 509l-865 -1039q168 -154 422 -154z" />
    <glyph glyph-name="ugrave" unicode="&#xf9;" horiz-adv-x="1607" 
d="M837 1579l-14 -14q-165 78 -330 174q30 57 84 108q115 -110 260 -268zM1359 1434h146v-21h-33q-44 0 -75 -27.5t-33 -69.5v-809q0 -241 -152 -388.5t-400 -147.5q-256 0 -412 146.5t-156 385.5v809q-1 44 -32 72.5t-76 28.5h-34v21h416v-21h-33q-44 0 -75 -28t-33 -70
v-782q0 -224 119.5 -360.5t315.5 -136.5q205 0 330.5 129.5t125.5 341.5v808q-2 42 -33 70t-75 28h-33v21h146h86z" />
    <glyph glyph-name="uacute" unicode="&#xfa;" horiz-adv-x="1607" 
d="M1152 1739q-132 -77 -330 -174l-14 14q174 186 260 268q55 -55 84 -108zM1359 1433h146v-20h-33q-44 0 -75 -27.5t-33 -69.5v-810q0 -241 -152 -388t-400 -147q-256 0 -412 146.5t-156 385.5v809q-1 44 -32 72.5t-76 28.5h-34v20h416v-20h-33q-44 0 -75 -28t-33 -70v-782
q0 -224 119.5 -360.5t315.5 -136.5q205 0 330.5 129.5t125.5 341.5v807q-2 43 -33 71t-75 28h-33v21h146v-1h86z" />
    <glyph glyph-name="ucircumflex" unicode="&#xfb;" horiz-adv-x="1607" 
d="M1054 1562l-233 136l-214 -135l-12 16l217 243h20l234 -243zM1359 1434h146v-21h-33q-44 0 -75 -27.5t-33 -69.5v-809q0 -241 -152 -388.5t-400 -147.5q-256 0 -412 146.5t-156 385.5v809q-1 44 -32 72.5t-76 28.5h-34v21h416v-21h-33q-44 0 -75 -28t-33 -70v-782
q0 -224 119.5 -360.5t315.5 -136.5q205 0 330.5 129.5t125.5 341.5v808q-2 42 -33 70t-75 28h-33v21h146h86z" />
    <glyph glyph-name="udieresis" unicode="&#xfc;" horiz-adv-x="1607" 
d="M630 1565q-33 0 -56.5 23.5t-23.5 56.5t23.5 56.5t56.5 23.5t56.5 -23.5t23.5 -56.5t-23.5 -56.5t-56.5 -23.5zM1015 1565q-33 0 -56.5 23.5t-23.5 56.5t23.5 56.5t56.5 23.5t56.5 -23.5t23.5 -56.5t-23.5 -56.5t-56.5 -23.5zM1359 1434h146v-21h-33q-44 0 -75 -27.5
t-33 -69.5v-809q0 -241 -152 -388.5t-400 -147.5q-256 0 -412 146.5t-156 385.5v809q-1 44 -32 72.5t-76 28.5h-34v21h416v-21h-33q-44 0 -75 -28t-33 -70v-782q0 -224 119.5 -360.5t315.5 -136.5q205 0 330.5 129.5t125.5 341.5v808q-2 42 -33 70t-75 28h-33v21h146h86z
" />
    <glyph glyph-name="yacute" unicode="&#xfd;" horiz-adv-x="1353" 
d="M1033 1739q-132 -77 -330 -174l-14 14q174 186 260 268q55 -55 84 -108zM921 1413v21h454v-21h-28q-60 0 -115 -34t-91 -85l-405 -654v-491q1 -53 39.5 -91t92.5 -38h26v-20h-448v20h26q53 0 91 37.5t40 90.5v494l-390 652q-32 50 -88 84.5t-118 34.5h-27v21h503v-21h-26
q-45 0 -69 -42t-2 -85l307 -573l326 573v0l1 2q23 42 -3.5 83.5t-69.5 41.5h-26z" />
    <glyph glyph-name="thorn" unicode="&#xfe;" horiz-adv-x="1134" 
d="M378 1122h244q199 0 305.5 -105t106.5 -290q0 -91 -36 -168t-97 -126.5t-135.5 -75.5t-158.5 -19.5t-159 46.5v19q7 -1 19.5 -3t49 -4t71.5 1.5t81 17t83 37t71.5 68t53.5 104.5q16 50 14 123q-4 144 -76.5 229t-200.5 85h-236v-912q1 -53 39 -91t92 -38h26v-20h-448
l1 20h26q54 0 92 38t39 91v1136q-2 53 -40 90.5t-91 37.5h-26l-1 21h164h121h163v-21h-26q-53 0 -91.5 -37t-39.5 -90v-164z" />
    <glyph glyph-name="ydieresis" unicode="&#xff;" horiz-adv-x="1353" 
d="M511 1565q-33 0 -56.5 23.5t-23.5 56.5t23.5 56.5t56.5 23.5t56 -23.5t23 -56.5t-23 -56.5t-56 -23.5zM896 1565q-33 0 -56.5 23.5t-23.5 56.5t23.5 56.5t56.5 23.5t56.5 -23.5t23.5 -56.5t-23.5 -56.5t-56.5 -23.5zM921 1413v21h454v-21h-28q-60 0 -115 -34t-91 -85
l-405 -654v-491q1 -53 39.5 -90.5t92.5 -37.5h26v-21h-448v21h26q53 0 91.5 37t39.5 90v494l-390 652q-32 50 -88 84.5t-118 34.5h-28v21h504v-21h-26q-45 0 -69 -42t-2 -85l306 -573l327 573v0l1 2q23 42 -3.5 83.5t-69.5 41.5h-26z" />
    <glyph glyph-name="Amacron" unicode="&#x100;" 
d="M501 1721h512v-72h-512v72zM1934 -391l2 -21q-81 -30 -161 -32.5t-158 22.5t-152.5 81.5t-142.5 142t-130 206.5t-113 272l-79 234h-562l-142 -365q-21 -57 6 -93t72 -36h18v-20h-412v20h18q49 0 96.5 29.5t77.5 88.5l507 1218q-158 225 -431 126l-6 21q100 42 186.5 51
t149 -4.5t120 -60t93 -89t73.5 -120t56.5 -125t47.5 -129.5l249 -708q19 -52 38.5 -101.5t45 -106t52.5 -105.5t59.5 -101.5t67 -93t75 -80.5t82.5 -65t90.5 -44.5t99 -20t107.5 8.5zM731 1268l-269 -693h517l-162 478q-45 133 -86 215z" />
    <glyph glyph-name="amacron" unicode="&#x101;" 
d="M479 1701h512v-72h-512v72zM1463 20h18v-20h-462v20h18q45 0 72 36t6 93l-131 349h-551l-138 -350q-20 -57 7 -92.5t72 -35.5h18v-20h-412v20h18q51 0 100.5 32.5t78.5 96.5l465 1102q76 166 76 211h18l548 -1313q29 -64 78 -96.5t101 -32.5zM714 1216l-257 -657h504z
" />
    <glyph glyph-name="Abreve" unicode="&#x102;" 
d="M751 1585q-86 0 -148.5 63.5t-62.5 149.5h21q16 -44 69 -77t121 -33t121.5 33t69.5 77h20q0 -86 -62.5 -149.5t-148.5 -63.5zM1934 -391l2 -21q-81 -30 -161 -32.5t-158 22.5t-152.5 81.5t-142.5 142t-130 206.5t-113 272l-80 234h-561l-142 -365q-21 -57 6 -93t72 -36
h18v-20h-412v20h18q49 0 96.5 29.5t77.5 88.5l507 1218q-158 225 -431 126l-6 21q100 42 186.5 51t149 -4.5t120 -60t93 -89t73.5 -120t56.5 -125t47.5 -129.5l249 -708q19 -52 38.5 -101.5t45 -106t52.5 -105.5t59.5 -101.5t67 -93t75 -80.5t82.5 -65t90.5 -44.5t99 -20
t107.5 8.5zM731 1268l-269 -693h517l-162 478q-45 133 -86 215z" />
    <glyph glyph-name="abreve" unicode="&#x103;" 
d="M729 1565q-86 0 -148.5 63t-62.5 149h21q16 -44 69 -77t121 -33t121.5 33t69.5 77h20q0 -86 -62.5 -149t-148.5 -63zM1463 20h18v-20h-462v20h18q45 0 72 36t6 93l-131 349h-551l-138 -350q-20 -57 7 -92.5t72 -35.5h18v-20h-413v20h19q51 0 100.5 32.5t78.5 96.5
l465 1102q76 166 76 211h18l548 -1313q29 -64 78 -96.5t101 -32.5zM714 1216l-257 -657h504z" />
    <glyph glyph-name="Aogonek" unicode="&#x104;" horiz-adv-x="1488" 
d="M1904 -301l2 -21q-94 -18 -186 -13.5t-173 30.5t-161.5 97t-151.5 186q-94 -13 -122 -99q-18 -56 8.5 -108t78.5 -69.5t119 11.5l7 -16q-28 -33 -68.5 -49t-80.5 -12t-78.5 22t-62.5 52t-32 78t13 101q21 59 76.5 90.5t124.5 26.5q-66 112 -127 275l-89 233h-563
l-142 -365q-21 -57 6 -93t72 -36h18v-20h-412v20h18q49 0 96.5 29.5t77.5 88.5l487 1169q-161 194 -442 146l-6 21q77 22 146.5 29t125 1t106 -27.5t88 -46.5t74 -65.5t61.5 -76t51.5 -87t42.5 -89t38 -90.5l283 -698q44 -109 85 -191t102.5 -169.5t128.5 -143t160 -90
t201 -31.5zM715 1227l-253 -652h516l-177 469q-41 107 -86 183z" />
    <glyph glyph-name="aogonek" unicode="&#x105;" horiz-adv-x="1509" 
d="M1254 0q-62 -10 -95 -52t-33 -93q0 -57 41.5 -97t102.5 -39t109 50l13 -13q-15 -41 -48 -69.5t-73 -40t-82.5 -6.5t-77.5 25.5t-58 63t-24 99.5q-1 50 28.5 91t72.5 65q45 24 54 60.5t-15 100.5l-141 353h-587l-145 -350q-21 -57 6 -92t72 -35h18v-21h-412v21h18
q51 0 101 32t79 96l491 1102q76 166 76 211h18l580 -1323q27 -59 74 -89.5t97 -30.5h18v-19q-66 0 -123.5 3.5t-86.5 3.5t-68 -7zM741 1221l-275 -662h538z" />
    <glyph glyph-name="Cacute" unicode="&#x106;" horiz-adv-x="1681" 
d="M905 1565l-14 14q174 186 260 268q55 -55 84 -108q-132 -77 -330 -174zM1610 768h21q13 -388 -182 -592.5t-542 -204.5q-176 0 -328 57.5t-258.5 157t-167.5 238t-61 295.5t60 294.5t164 236t250 155.5t313 57q140 0 284.5 -38t238.5 -100l41 -289h-17q-30 115 -115 200
t-196 125.5t-234 40.5q-180 0 -325.5 -88.5t-227.5 -243.5t-82 -346q0 -144 49 -271t135.5 -219.5t213 -146t274.5 -53.5q152 0 279.5 50t219 143t142.5 232t51 310z" />
    <glyph glyph-name="cacute" unicode="&#x107;" horiz-adv-x="1556" 
d="M868 1565l-14 14q174 186 260 268q55 -55 84 -108q-132 -77 -330 -174zM1438 598h17l-25 -322q-87 -141 -230 -223t-346 -82q-159 1 -294.5 54.5t-232 150t-150.5 236.5t-54 307q0 334 203 538.5t540 204.5q275 0 485 -138l41 -289h-17q-46 175 -183 270.5t-326 95.5
q-269 0 -429.5 -186.5t-160.5 -493.5t159 -494.5t419 -193.5q114 0 208.5 30.5t174 94.5t132 176t69.5 264z" />
    <glyph glyph-name="Cdotaccent" unicode="&#x10a;" horiz-adv-x="1681" 
d="M903 1566q-37 0 -62.5 25.5t-25.5 62.5t25.5 62.5t62.5 25.5t62.5 -25.5t25.5 -62.5t-25.5 -62.5t-62.5 -25.5zM1610 768h21q13 -388 -182 -592.5t-542 -204.5q-176 0 -328 57.5t-258.5 157t-167.5 238t-61 295.5t60 294.5t164 236t250 155.5t313 57q140 0 284.5 -38
t238.5 -100l41 -289h-17q-30 115 -115 200t-196 125.5t-234 40.5q-180 0 -325.5 -88.5t-227.5 -243.5t-82 -346q0 -144 49 -271t135.5 -219.5t213 -146t274.5 -53.5q152 0 279.5 50t219 143t142.5 232t51 310z" />
    <glyph glyph-name="cdotaccent" unicode="&#x10b;" horiz-adv-x="1556" 
d="M866 1566q-37 0 -62.5 25.5t-25.5 62.5t25.5 62.5t62.5 25.5t62.5 -25.5t25.5 -62.5t-25.5 -62.5t-62.5 -25.5zM1438 598h17l-25 -322q-87 -141 -230 -223t-346 -82q-159 1 -294.5 54.5t-232 150t-150.5 236.5t-54 307q0 334 203 538.5t540 204.5q275 0 485 -138l41 -289
h-17q-46 175 -183 270.5t-326 95.5q-269 0 -429.5 -186.5t-160.5 -493.5t159 -494.5t419 -193.5q114 0 208.5 30.5t174 94.5t132 176t69.5 264z" />
    <glyph glyph-name="Ccaron" unicode="&#x10c;" horiz-adv-x="1681" 
d="M916 1565l217 243l-12 17l-215 -136l-232 136l-13 -17l234 -243h21zM1610 768h21q13 -388 -182 -592.5t-542 -204.5q-176 0 -328 57.5t-258.5 157t-167.5 238t-61 295.5t60 294.5t164 236t250 155.5t313 57q140 0 284.5 -38t238.5 -100l41 -289h-17q-30 115 -115 200
t-196 125.5t-234 40.5q-180 0 -325.5 -88.5t-227.5 -243.5t-82 -346q0 -144 49 -271t135.5 -219.5t213 -146t274.5 -53.5q152 0 279.5 50t219 143t142.5 232t51 310z" />
    <glyph glyph-name="ccaron" unicode="&#x10d;" horiz-adv-x="1556" 
d="M879 1565l217 243l-12 17l-215 -136l-232 136l-13 -17l234 -243h21zM1438 598h17l-25 -322q-87 -141 -230 -223t-346 -82q-159 1 -294.5 54.5t-232 150t-150.5 236.5t-54 307q0 334 203 538.5t540 204.5q275 0 485 -138l41 -289h-17q-46 175 -183 270.5t-326 95.5
q-269 0 -429.5 -186.5t-160.5 -493.5t159 -494.5t419 -193.5q114 0 208.5 30.5t174 94.5t132 176t69.5 264z" />
    <glyph glyph-name="Dcaron" unicode="&#x10e;" horiz-adv-x="1716" 
d="M1088 1808l-217 -243h-21l-234 243l13 17l233 -136l214 136zM859 1433q330 -7 533 -201.5t203 -514.5q0 -212 -92.5 -375.5t-259.5 -252.5t-384 -89h-459h-233v21h26q51 0 88 33.5t42 83.5v1235q-103 -3 -182.5 -18t-129 -35.5t-89 -55.5t-60 -64t-44.5 -74l-23 8
q31 91 79 150t124.5 92.5t169 47t230.5 15.5q113 2 461 -6zM859 61q262 0 422 180.5t160 475.5q0 294 -159.5 474t-422.5 180q-291 0 -402 1v-1311h402z" />
    <glyph glyph-name="dcaron" unicode="&#x10f;" horiz-adv-x="1652" 
d="M1050 1808l-218 -243h-20l-234 243l12 17l233 -136l215 136zM816 1434q216 0 383.5 -89.5t260 -253t92.5 -375.5t-92.5 -375t-259.5 -252t-384 -89h-530h-163v20h26q54 0 92 38t39 91v1147q-5 50 -42 83.5t-88 33.5h-26v21h163h529zM816 62q263 0 422.5 180t159.5 474
q0 295 -160 475.5t-422 180.5h-402v-1310h402z" />
    <glyph glyph-name="Dcroat" unicode="&#x110;" horiz-adv-x="1716" 
d="M610 1701h512v-72h-512v72zM859 1433q330 -7 533 -201.5t203 -514.5q0 -212 -92.5 -375.5t-259.5 -252.5t-384 -89h-459h-233v21h26q51 0 88 33.5t42 83.5v1235q-103 -3 -182.5 -18t-129 -35.5t-89 -55.5t-60 -64t-44.5 -74l-23 8q31 91 79 150t124.5 92.5t169 47
t230.5 15.5q113 2 461 -6zM859 61q262 0 422 180.5t160 475.5q0 294 -159.5 474t-422.5 180q-291 0 -402 1v-1311h402z" />
    <glyph glyph-name="dcroat" unicode="&#x111;" horiz-adv-x="1652" 
d="M572 1701h512v-72h-512v72zM816 1434q216 0 383.5 -89.5t260 -253t92.5 -375.5t-92.5 -375t-259.5 -252t-384 -89h-530h-163v20h26q54 0 92 38t39 91v1147q-5 50 -42 83.5t-88 33.5h-26v21h163h529zM816 62q263 0 422.5 180t159.5 474q0 295 -160 475.5t-422 180.5h-402
v-1310h402z" />
    <glyph glyph-name="Emacron" unicode="&#x112;" horiz-adv-x="1243" 
d="M258 1701h512v-72h-512v72zM1214 331h21l-120 -331h-992v21h26q54 0 92 37.5t39 90.5v1147q-5 50 -42 83.5t-88 33.5h-26v21h163h251q64 1 139 12.5t105 24.5v-60v-34v-165l-21 1v36q0 49 -33 84t-81 38h-234v-633h390q41 1 70 30.5t29 70.5v30h20v-324h-20v30
q0 41 -28.5 70.5t-68.5 30.5h-391v-613h437q79 0 138.5 19t101.5 57.5t69.5 83t53.5 108.5z" />
    <glyph glyph-name="emacron" unicode="&#x113;" horiz-adv-x="1181" 
d="M358 1701h512v-72h-512v72zM1071 331h20l-119 -331h-849v21h26q54 0 92 37.5t39 90.5v1147q-5 50 -42 83.5t-88 33.5h-26v21h163h435q64 1 139 12.5t105 24.5v-60v-34v-165l-20 1v36q0 49 -33.5 84t-81.5 38h-418v-633h347q41 1 70 30.5t29 70.5v30h20v-324h-20v30
q0 41 -28.5 70.5t-68.5 30.5h-348v-613h293q79 0 139 19t101.5 57.5t69.5 83t54 108.5z" />
    <glyph glyph-name="Edotaccent" unicode="&#x116;" horiz-adv-x="1243" 
d="M506 1566q-37 0 -63 25.5t-26 62.5t26 62.5t63 25.5t62.5 -25.5t25.5 -62.5t-25.5 -62.5t-62.5 -25.5zM1214 331h21l-120 -331h-992v21h26q54 0 92 37.5t39 90.5v1147q-5 50 -42 83.5t-88 33.5h-26v21h163h251q64 1 139 12.5t105 24.5v-60v-34v-165l-21 1v36q0 49 -33 84
t-81 38h-234v-633h390q41 1 70 30.5t29 70.5v30h20v-324h-20v30q0 41 -28.5 70.5t-68.5 30.5h-391v-613h437q79 0 138.5 19t101.5 57.5t69.5 83t53.5 108.5z" />
    <glyph glyph-name="edotaccent" unicode="&#x117;" horiz-adv-x="1181" 
d="M605 1566q-37 0 -62.5 25.5t-25.5 62.5t25.5 62.5t62.5 25.5t63 -25.5t26 -62.5t-26 -62.5t-63 -25.5zM1071 331h20l-119 -331h-849v21h26q54 0 92 37.5t39 90.5v1147q-5 50 -42 83.5t-88 33.5h-26v21h163h435q64 1 139 12.5t105 24.5v-60v-34v-165l-20 1v36
q0 49 -33.5 84t-81.5 38h-418v-633h347q41 1 70 30.5t29 70.5v30h20v-324h-20v30q0 41 -28.5 70.5t-68.5 30.5h-348v-613h293q79 0 139 19t101.5 57.5t69.5 83t54 108.5z" />
    <glyph glyph-name="Eogonek" unicode="&#x118;" horiz-adv-x="1243" 
d="M955 -161q1 -43 26.5 -77t62 -49.5t81 -6t80.5 46.5l12 -12q-15 -41 -47.5 -69t-71.5 -39t-81 -5.5t-76 26.5t-56.5 63.5t-23.5 99.5q-1 67 46.5 117t121.5 66h-906v21h26q54 0 92 37.5t39 90.5v1147q-5 50 -42 83.5t-88 33.5h-26v21h163h251q64 1 139 12.5t105 24.5v-60
v-34v-165l-21 1v36q0 49 -33 84t-81 38h-234v-633h390q41 1 70 30.5t29 70.5v30h20v-324h-20v30q0 41 -28.5 70.5t-68.5 30.5h-392v-613h438q79 0 138.5 19t101.5 57.5t69.5 83t53.5 108.5h21l-120 -331h-7q-158 -39 -153 -161z" />
    <glyph glyph-name="eogonek" unicode="&#x119;" horiz-adv-x="1181" 
d="M819 -161q1 -43 26.5 -77t62 -49.5t81 -6t80.5 46.5l12 -12q-15 -41 -47.5 -69t-71.5 -39t-81 -5.5t-76 26.5t-56.5 63.5t-23.5 99.5q-1 67 46.5 117t121.5 66h-770v21h26q54 0 92 37.5t39 90.5v1147q-5 50 -42 83.5t-88 33.5h-26v21h163h435q64 1 139 12.5t105 24.5v-60
v-34v-165l-20 1v36q0 49 -33.5 84t-81.5 38h-418v-633h347q41 1 70 30.5t29 70.5v30h20v-324h-20v30q0 41 -28.5 70.5t-68.5 30.5h-349v-613h294q79 0 139 19t101.5 57.5t69.5 83t54 108.5h20l-119 -331h-1q-157 -39 -152 -161z" />
    <glyph glyph-name="Ecaron" unicode="&#x11a;" horiz-adv-x="1243" 
d="M736 1808l-217 -243h-21l-234 243l13 17l232 -136l215 136zM1214 331h21l-120 -331h-992v21h26q54 0 92 37.5t39 90.5v1147q-5 50 -42 83.5t-88 33.5h-26v21h163h251q64 1 139 12.5t105 24.5v-60v-34v-165l-21 1v36q0 49 -33 84t-81 38h-234v-633h390q41 1 70 30.5
t29 70.5v30h20v-324h-20v30q0 41 -28.5 70.5t-68.5 30.5h-391v-613h437q79 0 138.5 19t101.5 57.5t69.5 83t53.5 108.5z" />
    <glyph glyph-name="ecaron" unicode="&#x11b;" horiz-adv-x="1181" 
d="M836 1808l-218 -243h-20l-234 243l12 17l233 -136l214 136zM1071 331h20l-119 -331h-849v21h26q54 0 92 37.5t39 90.5v1147q-5 50 -42 83.5t-88 33.5h-26v21h163h435q64 1 139 12.5t105 24.5v-60v-34v-165l-20 1v36q0 49 -33.5 84t-81.5 38h-418v-633h347q41 1 70 30.5
t29 70.5v30h20v-324h-20v30q0 41 -28.5 70.5t-68.5 30.5h-348v-613h293q79 0 139 19t101.5 57.5t69.5 83t54 108.5z" />
    <glyph glyph-name="Gbreve" unicode="&#x11e;" horiz-adv-x="1732" 
d="M921 1565q-86 0 -148.5 63t-62.5 149h20q16 -44 69.5 -77t121.5 -33t121 33t69 77h21q0 -86 -62.5 -149t-148.5 -63zM2285 -285l2 -20q-236 -75 -421 -41.5t-308 156t-162 309.5q-195 -148 -476 -148q-225 1 -407.5 98t-286 267.5t-103.5 380.5q0 214 104 385t286 265.5
t407 94.5q281 0 496 -138l42 -289h-18q-46 175 -181.5 270.5t-338.5 95.5q-182 0 -329 -86.5t-231 -243.5t-84 -354q0 -193 83.5 -349t231 -245t329.5 -90q132 0 253 47t208 130v363q0 45 -27 69t-77 24h-32v21h401v-21h-31q-50 0 -76.5 -24t-25.5 -68v-316
q14 -325 212 -463.5t560 -79.5z" />
    <glyph glyph-name="gbreve" unicode="&#x11f;" horiz-adv-x="1634" 
d="M1043 1777h21q0 -86 -62.5 -149t-148.5 -63t-148.5 63t-62.5 149h20q16 -44 69.5 -77t121.5 -33t121 33t69 77zM1451 574v-339q-38 -50 -90 -94t-124 -84t-170 -63t-208 -23q-216 1 -383 94t-260 262.5t-93 389.5q0 334 204 539.5t531 205.5q282 0 497 -138l41 -289h-17
q-46 175 -181.5 270.5t-338.5 95.5q-261 0 -422 -188t-161 -496q0 -306 161 -494t422 -190q132 0 251.5 47t207.5 130l3 363q0 45 -27.5 69t-77.5 24h-33v21h402v-21h-31q-50 0 -77 -24t-26 -68z" />
    <glyph glyph-name="Gdotaccent" unicode="&#x120;" horiz-adv-x="1732" 
d="M918 1566q-37 0 -63 25.5t-26 62.5t26 62.5t63 25.5t62.5 -25.5t25.5 -62.5t-25.5 -62.5t-62.5 -25.5zM2285 -285l2 -20q-236 -75 -421 -41.5t-308 156t-162 309.5q-195 -148 -476 -148q-225 1 -407.5 98t-286 267.5t-103.5 380.5q0 214 104 385t286 265.5t407 94.5
q281 0 496 -138l42 -289h-18q-46 175 -181.5 270.5t-338.5 95.5q-182 0 -329 -86.5t-231 -243.5t-84 -354q0 -193 83.5 -349t231 -245t329.5 -90q132 0 253 47t208 130v363q0 45 -27 69t-77 24h-32v21h401v-21h-31q-50 0 -76.5 -24t-25.5 -68v-316q14 -325 212 -463.5
t560 -79.5z" />
    <glyph glyph-name="gdotaccent" unicode="&#x121;" horiz-adv-x="1634" 
d="M849 1566q-37 0 -62.5 25.5t-25.5 62.5t25.5 62.5t62.5 25.5t63 -25.5t26 -62.5t-26 -62.5t-63 -25.5zM1451 574v-339q-38 -50 -90 -94t-124 -84t-170 -63t-208 -23q-216 1 -383 94t-260 262.5t-93 389.5q0 334 204 539.5t531 205.5q282 0 497 -138l41 -289h-17
q-46 175 -181.5 270.5t-338.5 95.5q-261 0 -422 -188t-161 -496q0 -306 161 -494t422 -190q132 0 251.5 47t207.5 130l3 363q0 45 -27.5 69t-77.5 24h-33v21h402v-21h-31q-50 0 -77 -24t-26 -68z" />
    <glyph glyph-name="uni0122" unicode="&#x122;" horiz-adv-x="1732" 
d="M2286 -285l1 -20q-236 -75 -421 -41.5t-308 156t-162 309.5q-195 -148 -476 -148q-225 1 -407.5 98t-286 267.5t-103.5 380.5q0 214 104 385t286 265.5t407 94.5q281 0 496 -138l42 -289h-17q-46 175 -182 270.5t-339 95.5q-182 0 -329 -86.5t-231 -243.5t-84 -354
q0 -193 83.5 -349t231 -245t329.5 -90q132 0 253 47t208 130v363q0 45 -27 69t-77 24h-32v21h401v-21h-31q-50 0 -76.5 -24t-25.5 -68v-316q14 -325 212.5 -463.5t560.5 -79.5zM865 -166q10 23 35.5 31.5t52.5 -3.5t40 -44q38 -92 -10 -166.5t-132 -77.5l-4 14q46 14 64 45
t12.5 58.5t-21.5 46.5q-3 4 -11 13.5t-12 14.5t-9.5 14.5t-7.5 17t-1.5 17t4.5 19.5z" />
    <glyph glyph-name="uni0123" unicode="&#x123;" horiz-adv-x="1634" 
d="M1451 574v-339q-38 -50 -90 -94t-124 -84t-170 -63t-208 -23q-216 1 -383 94t-260 262.5t-93 389.5q0 334 204 539.5t531 205.5q282 0 497 -138l41 -289h-17q-46 175 -181.5 270.5t-338.5 95.5q-261 0 -422 -188t-161 -496q0 -306 161 -494t422 -190q132 0 251.5 47
t207.5 130l3 363q0 45 -27.5 69t-77.5 24h-33v21h402v-21h-31q-50 0 -77 -24t-26 -68zM801 -186q10 23 35.5 31.5t52.5 -4t40 -44.5q38 -92 -10 -166t-132 -77l-4 14q46 14 64 44.5t13 58t-21 46.5q-3 4 -11 13.5t-12.5 15t-10 14.5t-7.5 16.5t-1.5 17.5t4.5 20z" />
    <glyph glyph-name="Hbar" unicode="&#x126;" horiz-adv-x="1671" 
d="M1492 20h26l1 -20h-448v20h26q52 0 90 36.5t41 88.5l1 533h-792v-535q0 -114 -20.5 -195t-62 -132t-94 -79.5t-127.5 -45.5l-10 18q93 48 137 150.5t44 283.5v877h-181v62h181v203q-2 53 -40 90.5t-91 37.5h-26l-1 21h164h121h163v-21h-26q-53 0 -91.5 -37t-39.5 -90
v-204h792l1 167q0 114 20.5 195.5t62.5 132.5t94 79.5t127 45.5l10 -19q-93 -48 -137 -150.5t-44 -283.5v-167h129v-62h-130l-1 -871q1 -53 39 -91t92 -38zM437 1020v-281h792v281h-792z" />
    <glyph glyph-name="hbar" unicode="&#x127;" horiz-adv-x="1665" 
d="M1542 20v-20h-448l1 20h25q53 0 92 37.5t40 90.5v530h-838v-529q1 -53 39 -91t92 -38h26v-20h-448v20h26q54 0 92 38t39 91v871h-129v62h129v203q-2 53 -40 90.5t-91 37.5h-26v21h163h122h163v-21h-26q-53 0 -91.5 -37t-39.5 -90v-204h838v205q-2 53 -40.5 89.5
t-91.5 36.5h-25l-1 21h164h121h163v-21h-26q-54 0 -92 -38t-39 -91v-202h135v-62h-135v-871q1 -53 39 -91t92 -38h26zM414 1020v-281h838v281h-838z" />
    <glyph glyph-name="Imacron" unicode="&#x12a;" horiz-adv-x="804" 
d="M209 1629v72h512v-72h-512zM684 1475l3 -21q-88 -14 -124 -59t-37 -126v-1120q1 -53 39.5 -91t92.5 -38h25l1 -20h-448v20h26q54 0 92 38t39 91v1230l-219 -13q-199 -11 -207 -135q-5 -65 33 -106.5t116 -44.5v-12q-92 -25 -156.5 26t-61.5 137q7 167 264 194q4 0 205 14
t317 36z" />
    <glyph glyph-name="imacron" unicode="&#x12b;" horiz-adv-x="692" 
d="M97 1629v72h512v-72h-512zM545 20h26v-20h-448v20h26q54 0 92 38t39 91v1136q-2 53 -40 90.5t-91 37.5h-26v21h163h122h163v-21h-26q-53 0 -91.5 -37t-39.5 -90v-1137q1 -53 39 -91t92 -38z" />
    <glyph glyph-name="Iogonek" unicode="&#x12e;" horiz-adv-x="804" 
d="M498 0q-158 -39 -153 -161q1 -43 26.5 -77t62 -49.5t81 -6t80.5 46.5l12 -12q-15 -41 -47.5 -69t-71.5 -39t-81 -5.5t-76 26.5t-56.5 63.5t-23.5 99.5q-1 67 46.5 117t121.5 66h-183v20h26q54 0 92 38t39 91v1230l-219 -13q-199 -11 -207 -135q-5 -65 33 -106.5
t116 -44.5v-12q-92 -25 -156.5 26t-61.5 137q7 167 264 194q4 0 205 14t317 36l3 -21q-88 -14 -124 -59t-37 -126v-1120q1 -53 39 -91t92 -38h26l1 -20h-186z" />
    <glyph glyph-name="iogonek" unicode="&#x12f;" horiz-adv-x="692" 
d="M234 -160q1 -43 26.5 -77t61.5 -49.5t80.5 -6t80.5 46.5l13 -12q-15 -41 -47.5 -69t-72 -39t-81.5 -5.5t-76 26.5t-56.5 63.5t-23.5 99.5q-1 67 46.5 116.5t121.5 65.5h-184v20h26q54 0 92 38t39 91v1136q-2 53 -40 90.5t-91 37.5h-26v21h163h122h163v-21h-26
q-53 0 -91.5 -37t-39.5 -90v-1137q1 -53 39 -91t92 -38h26v-20h-185q-157 -37 -152 -160z" />
    <glyph glyph-name="Idotaccent" unicode="&#x130;" horiz-adv-x="804" 
d="M457 1566q-37 0 -63 25.5t-26 62.5t26 62.5t63 25.5t62.5 -25.5t25.5 -62.5t-25.5 -62.5t-62.5 -25.5zM657 20h26l1 -20h-448v20h26q54 0 92 38t39 91v1230l-219 -13q-199 -11 -207 -135q-5 -65 33 -106.5t116 -44.5v-12q-92 -25 -156.5 26t-61.5 137q7 167 264 194
q4 0 205 14t317 36l3 -21q-88 -14 -124 -59t-37 -126v-1120q1 -53 39 -91t92 -38z" />
    <glyph glyph-name="dotlessi" unicode="&#x131;" horiz-adv-x="692" 
d="M571 20v-20h-448v20h26q54 0 92 38t39 91v1136q-2 53 -40 90.5t-91 37.5h-26v21h163h122h163v-21h-26q-53 0 -91.5 -37t-39.5 -90v-1137q1 -53 39 -91t92 -38h26z" />
    <glyph glyph-name="IJ" unicode="&#x132;" horiz-adv-x="1499" 
d="M683 20l1 -20h-448v20h26q54 0 92 38t39 91v1230l-219 -13q-199 -11 -207 -135q-5 -65 33 -106.5t116 -44.5v-12q-92 -25 -156.5 26t-61.5 137q7 167 264 194q4 0 205 14t317 36l3 -21q-88 -14 -124 -59t-37 -126v-1120q1 -53 39 -91t92 -38h26zM1213 1433v1h163v-21h-26
q-53 0 -91 -37.5t-40 -90.5v-1121q0 -102 -22.5 -185t-61 -137.5t-88.5 -93t-105 -56.5t-111.5 -22.5t-106.5 4t-91 27.5l8 22q50 -17 105 -18.5t116.5 21.5t110 72t80.5 144.5t32 227.5v1114q-1 53 -39 91t-92 38h-26v21h163v-1h122z" />
    <glyph glyph-name="ij" unicode="&#x133;" horiz-adv-x="1355" 
d="M545 20h26v-20h-448v20h26q54 0 92 38t39 91v1136q-2 53 -40 90.5t-91 37.5h-26v21h163h122h163v-21h-26q-53 0 -91.5 -37t-39.5 -90v-1137q1 -53 39 -91t92 -38zM1100 1434h164l-1 -21h-26q-53 0 -91 -37.5t-40 -90.5v-1285q0 -172 -108 -291t-265 -119v19
q101 35 170.5 150t69.5 247v1278q-1 53 -39.5 91t-92.5 38h-25l-1 21h164v-1z" />
    <glyph glyph-name="uni0136" unicode="&#x136;" horiz-adv-x="1370" 
d="M545 20h26v-20h-448v20h26q54 0 92 38t39 91v1136q-2 53 -40 90.5t-91 37.5h-26v21h163h122h163v-21h-26q-53 0 -91.5 -37t-39.5 -90v-1137q1 -53 39 -91t92 -38zM619 768l696 -744q136 -145 304 -238t345 -93v-21q-417 -95 -806 318l-679 723l483 606q26 35 9.5 65.5
t-58.5 30.5h-20v18h433v-18h-9q-65 0 -123 -25.5t-98 -70.5zM746 -166q10 23 35.5 31.5t52.5 -3.5t40 -44q38 -92 -10 -166.5t-132 -77.5l-4 14q46 14 64 45t12.5 58.5t-21.5 46.5q-3 4 -11 13.5t-12 14.5t-9.5 14.5t-7.5 17t-1.5 17t4.5 19.5z" />
    <glyph glyph-name="uni0137" unicode="&#x137;" horiz-adv-x="1345" 
d="M545 20h26v-20h-448v20h26q54 0 92 38t39 91v1136q-2 53 -40 90.5t-91 37.5h-26v21h163h122h163v-21h-26q-53 0 -91.5 -37t-39.5 -90v-1137q1 -53 39 -91t92 -38zM614 762l560 -658q43 -43 87.5 -62.5t105.5 -20.5v-21h-86q-210 0 -309 116l-493 597l483 606
q26 35 9.5 65.5t-58.5 30.5h-20v18h433v-18h-9q-65 0 -123 -25.5t-98 -70.5zM751 -166q10 23 35.5 31.5t53 -3.5t40.5 -44q38 -92 -10 -166.5t-132 -77.5l-4 14q46 14 64 45t12.5 58.5t-21.5 46.5q-4 5 -11.5 13.5t-12 14.5t-10 15t-7.5 16.5t-1.5 17t4.5 19.5z" />
    <glyph glyph-name="Lacute" unicode="&#x139;" horiz-adv-x="821" 
d="M677 1739q-132 -77 -330 -174l-14 14q174 186 260 268q55 -55 84 -108zM1887 -227l10 -17q-100 -69 -203 -109.5t-191.5 -54.5t-187.5 -4.5t-176 29.5t-174 58.5t-163.5 71.5t-162.5 80t-155 73q-220 98 -361 100v20h27q53 0 91 37.5t39 91.5v1135q-1 53 -39 91t-92 38
h-26v20h157v1h134v-1h157v-20h-26q-54 0 -92 -38t-39 -91v-1182q0 -28 2 -43t10.5 -35.5t29.5 -35.5t56 -27q264 -92 434.5 -144t310.5 -84.5t243.5 -33t191.5 16t195 57.5z" />
    <glyph glyph-name="lacute" unicode="&#x13a;" horiz-adv-x="1150" 
d="M678 1739q-137 -80 -329 -174l-15 14q174 186 260 268q55 -55 84 -108zM1071 331h20l-119 -331h-849v20h26q54 0 92 38t39 91v1135q-1 53 -39 91t-92 38h-26v20h157v1h134v-1h157v-20h-26q-54 0 -92 -38t-39 -91v-1221h293q79 0 139 19t101.5 57.5t69.5 83t54 108.5z" />
    <glyph glyph-name="uni013B" unicode="&#x13b;" horiz-adv-x="821" 
d="M1887 -227l10 -17q-100 -69 -203 -109.5t-191.5 -54.5t-187.5 -4.5t-176 29.5t-174 58.5t-163.5 71.5t-162.5 80t-155 73q-220 98 -361 100v21h27q53 0 91 37t39 91v1135q-1 53 -39 91t-92 38h-26v20h157v1h134v-1h157v-20h-26q-54 0 -92 -38t-39 -91v-1182q0 -28 2 -43
t10.5 -35.5t29.5 -35.5t56 -27q264 -92 434.5 -144t310.5 -84.5t243.5 -33t191.5 16t195 57.5zM430 -260q10 23 35.5 31.5t53 -3.5t40.5 -44q38 -92 -10 -166.5t-132 -77.5l-4 14q46 14 64 45t12.5 58.5t-21.5 46.5q-4 5 -11.5 13.5t-12 14.5t-10 15t-7.5 16.5t-1.5 17
t4.5 19.5z" />
    <glyph glyph-name="uni013C" unicode="&#x13c;" horiz-adv-x="1150" 
d="M1071 331h20l-119 -331h-849v20h26q54 0 92 38t39 91v1135q-1 53 -39 91t-92 38h-26v20h157v1h134v-1h157v-20h-26q-54 0 -92 -38t-39 -91v-1221h293q79 0 139 19t101.5 57.5t69.5 83t54 108.5zM565 -166q10 23 35.5 31.5t52.5 -3.5t40 -44q38 -92 -10 -166.5t-132 -77.5
l-4 14q46 14 64 45t12.5 58.5t-21.5 46.5q-3 4 -11 13.5t-12 14.5t-9.5 14.5t-7.5 17t-1.5 17t4.5 19.5z" />
    <glyph glyph-name="Lcaron" unicode="&#x13d;" horiz-adv-x="821" 
d="M745 1150l-4 14q46 15 64 45.5t12.5 57.5t-21.5 47q-3 4 -11 13t-12 14t-9.5 14.5t-7.5 17t-1.5 17.5t4.5 20q10 23 35.5 31.5t52.5 -4t40 -43.5q38 -92 -10 -167t-132 -77zM1887 -227l10 -17q-100 -69 -203 -109.5t-191.5 -54.5t-187.5 -4.5t-176 29.5t-174 58.5
t-163.5 71.5t-162.5 80t-155 73q-220 98 -361 100v21h27q53 0 91 37t39 91v1135q-1 53 -39 91t-92 38h-26v20h157v1h134v-1h157v-20h-26q-54 0 -92 -38t-39 -91v-1182q0 -28 2 -43t10.5 -35.5t29.5 -35.5t56 -27q264 -92 434.5 -144t310.5 -84.5t243.5 -33t191.5 16
t195 57.5z" />
    <glyph glyph-name="lcaron" unicode="&#x13e;" horiz-adv-x="1150" 
d="M745 1150l-4 14q46 15 64 45.5t12.5 57.5t-21.5 47q-3 4 -11 13t-12 14t-9.5 14.5t-7.5 17t-1.5 17.5t4.5 20q10 23 35.5 31.5t52.5 -4t40 -43.5q38 -92 -10 -167t-132 -77zM1071 331h20l-119 -331h-849v21l26 -1q54 0 92 38t39 91v1135q-1 53 -39 91t-92 38h-26v21h157
h133h158v-21h-26q-54 0 -92 -38t-39 -91v-1221h293q79 0 139 19t101.5 57.5t69.5 83t54 108.5z" />
    <glyph glyph-name="Ldot" unicode="&#x13f;" horiz-adv-x="974" 
d="M1887 -227l10 -17q-100 -69 -203 -109.5t-191.5 -54.5t-187.5 -4.5t-176 29.5t-174 58.5t-163.5 71.5t-162.5 80t-155 73q-220 98 -361 100v21h27q53 0 91 37t39 91v1135q-1 53 -39 91t-92 38h-26v20h157v1h134v-1h157v-20h-26q-54 0 -92 -38t-39 -91v-1182q0 -28 2 -43
t10.5 -35.5t29.5 -35.5t56 -27q264 -92 434.5 -144t310.5 -84.5t243.5 -33t191.5 16t195 57.5zM685 825q-38 0 -65 27.5t-27 65.5t27 65t65 27t65 -27t27 -65t-27 -65.5t-65 -27.5z" />
    <glyph glyph-name="ldot" unicode="&#x140;" horiz-adv-x="1150" 
d="M1071 331h20l-119 -331h-849v20h26q54 0 92 38t39 91v1135q-1 53 -39 91t-92 38h-26v20h157v1h134v-1h157v-20h-26q-54 0 -92 -38t-39 -91v-1221h293q79 0 139 19t101.5 57.5t69.5 83t54 108.5zM685 825q-38 0 -65 27t-27 65t27 65.5t65 27.5t65 -27.5t27 -65.5t-27 -65
t-65 -27z" />
    <glyph glyph-name="Lslash" unicode="&#x141;" horiz-adv-x="907" 
d="M1887 -227l10 -17q-100 -69 -203 -109.5t-191.5 -54.5t-187.5 -4.5t-176 29.5t-174 58.5t-163.5 71.5t-162.5 80t-155 73q-220 98 -361 100v21h27q53 0 91 37t39 91v432l-126 -74l-31 54l157 91v632q-1 53 -39 91t-92 38h-26v20h157v1h134v-1h157v-20h-26q-54 0 -92 -38
t-39 -91v-555l341 197l31 -53l-372 -215v-556q0 -28 2 -43t10.5 -35.5t29.5 -35.5t56 -27q264 -92 434.5 -144t310.5 -84.5t243.5 -33t191.5 16t195 57.5z" />
    <glyph glyph-name="lslash" unicode="&#x142;" horiz-adv-x="1150" 
d="M1071 331h20l-119 -331h-849v20h26q54 0 92 38t39 91v482l-213 -124l-31 54l244 141v582q-1 53 -39 91t-92 38h-26v20h157v1h134v-1h157v-20h-26q-54 0 -92 -38t-39 -91v-505l254 147l31 -53l-285 -165v-645h293q79 0 139 19t101.5 57.5t69.5 83t54 108.5z" />
    <glyph glyph-name="Nacute" unicode="&#x143;" horiz-adv-x="1722" 
d="M1202 1739q-132 -77 -330 -174l-14 14q174 186 260 268q55 -55 84 -108zM2150 -291l8 -20q-80 -25 -155 -29.5t-140.5 12t-122.5 42.5t-113.5 71t-100.5 87t-96 99l-1082 1196l2 -1024q2 -51 38 -87t88 -36h38v-20h-422v20h38q52 0 89 36t38 88v1126q-12 15 -38.5 48.5
t-44.5 56t-48.5 57.5t-55.5 59.5t-60 54.5t-66 49t-71 36.5t-78 24t-82.5 5t-89.5 -14.5l-8 21q68 29 134 38t120.5 3t112 -30.5t100 -51.5t93.5 -72.5t85.5 -81t81.5 -88.5l1031 -1147v1052q-1 52 -37.5 88t-88.5 36h-38v21h422l-1 -21h-37q-52 0 -88.5 -35.5t-38.5 -86.5
v-1157l24 -27q15 -17 51 -60q66 -81 110.5 -127.5t127.5 -114t176.5 -91.5t194.5 -5z" />
    <glyph glyph-name="nacute" unicode="&#x144;" horiz-adv-x="1722" 
d="M1202 1739q-132 -77 -330 -174l-14 14q174 186 260 268q55 -55 84 -108zM1631 1434v-21h-38q-52 0 -88.5 -35.5t-38.5 -86.5v-1058q0 -59 5 -124.5t9 -101.5l5 -36h-19l-1118 1192l2 -1020q2 -51 38 -87t88 -36h38v-20h-422v20h38q52 0 89 36t38 88v1064q0 62 -4.5 126
t-9.5 97l-5 33h20l1 -2l1114 -1189v1016q-1 52 -37.5 88t-88.5 36h-38v21h422z" />
    <glyph glyph-name="uni0145" unicode="&#x145;" horiz-adv-x="1722" 
d="M2150 -291l8 -20q-80 -25 -155 -29.5t-140.5 12t-122.5 42.5t-113.5 71t-100.5 87t-96 99l-1082 1196l2 -1024q2 -51 38 -87t88 -36h38v-20h-422v20h38q52 0 89 36t38 88v1126q-12 15 -38.5 48.5t-44.5 56t-48.5 57.5t-55.5 59.5t-60 54.5t-66 49t-71 36.5t-78 24
t-82.5 5t-89.5 -14.5l-8 21q68 29 134 38t120.5 3t112 -30.5t100 -51.5t93.5 -72.5t85.5 -81t81.5 -88.5l1031 -1147v1052q-1 52 -37.5 88t-88.5 36h-38v21h422l-1 -21h-37q-52 0 -88.5 -35.5t-38.5 -86.5v-1157l24 -27q15 -17 51 -60q66 -81 110.5 -127.5t127.5 -114
t176.5 -91.5t194.5 -5zM817 -166q10 23 35.5 31.5t52.5 -3.5t40 -44q38 -92 -10 -166.5t-132 -77.5l-4 14q46 14 64 45t12.5 58.5t-21.5 46.5q-3 4 -11 13.5t-12 14.5t-9.5 14.5t-7.5 17t-1.5 17t4.5 19.5z" />
    <glyph glyph-name="uni0146" unicode="&#x146;" horiz-adv-x="1722" 
d="M1631 1434v-21h-38q-52 0 -88.5 -35.5t-38.5 -86.5v-1058q0 -59 5 -124.5t9 -101.5l5 -36h-19l-1118 1192l2 -1020q2 -51 38 -87t88 -36h38v-20h-422v20h38q52 0 89 36t38 88v1064q0 62 -4.5 126t-9.5 97l-5 33h20l1 -2l1114 -1189v1016q-1 52 -37.5 88t-88.5 36h-38v21
h422zM817 -166q10 23 35.5 31.5t52.5 -3.5t40 -44q38 -92 -10 -166.5t-132 -77.5l-4 14q46 14 64 45t12.5 58.5t-21.5 46.5q-3 4 -11 13.5t-12 14.5t-9.5 14.5t-7.5 17t-1.5 17t4.5 19.5z" />
    <glyph glyph-name="Ncaron" unicode="&#x147;" horiz-adv-x="1722" 
d="M1100 1808l-218 -243h-20l-234 243l12 17l233 -136l214 136zM2150 -291l8 -20q-80 -25 -155 -29.5t-140.5 12t-122.5 42.5t-113.5 71t-100.5 87t-96 99l-1082 1196l1 -1024q2 -51 38.5 -87t88.5 -36h38v-20h-422v20h38q52 0 89 36t38 88v1126q-12 15 -38 48.5t-44.5 56.5
t-49 58t-55.5 59.5t-60 54t-66 49t-71 37t-78 24t-82.5 5t-89.5 -14.5l-8 20q68 29 134 38t120.5 3t112 -30.5t100 -51.5t93.5 -72.5t85.5 -81t81.5 -88.5l1031 -1147v1052q-1 52 -37.5 88t-88.5 36h-38v21h422l-1 -21h-37q-52 0 -88.5 -35.5t-38.5 -86.5v-1157l24 -27
q15 -17 51 -60q66 -81 110.5 -127.5t127.5 -114t176.5 -91.5t194.5 -5z" />
    <glyph glyph-name="ncaron" unicode="&#x148;" horiz-adv-x="1722" 
d="M1100 1808l-218 -243h-20l-234 243l12 17l233 -136l214 136zM1631 1434v-21h-38q-52 0 -88.5 -35.5t-38.5 -86.5v-1058q0 -59 5 -124.5t9 -101.5l5 -36h-19l-1118 1192l2 -1020q2 -51 38 -87t88 -36l38 1v-21h-422v21l38 -1q52 0 89 36.5t38 88.5v1063q0 62 -4.5 126
t-9.5 97l-5 33h20l1 -2l1114 -1189v1016q-1 52 -37.5 88t-88.5 36h-38v21h422z" />
    <glyph glyph-name="Eng" unicode="&#x14a;" horiz-adv-x="1677" 
d="M1444 1434h141v-27h-32q-44 0 -76 -31t-33 -75v-1366q0 -154 -73.5 -238.5t-188.5 -108.5l-11 17q76 34 128 116t52 218v129l-1007 1074l-18 21l1 -1030q1 -44 32.5 -75.5t76.5 -31.5h32l1 -26h-377v26h33q43 0 74.5 29t34.5 72l-2 1154q-30 37 -57 67t-63.5 65t-71 60
t-77.5 47.5t-85.5 33t-92.5 10t-100 -15.5l-9 21q68 29 134.5 37.5t120.5 3t111.5 -31t100 -52t94 -72.5t85.5 -81t82 -88l947 -1010v1025q-1 44 -32.5 75.5t-76.5 31.5h-33v27h142h93z" />
    <glyph glyph-name="eng" unicode="&#x14b;" horiz-adv-x="1718" 
d="M1413 1434h142v-27h-33q-44 0 -76 -31t-33 -75v-1366q0 -154 -73 -238.5t-188 -108.5l-11 17q76 34 127.5 116t51.5 218v129l-1025 1095l2 -1030q1 -45 32 -76t76 -31h33v-26h-376v26h33q44 0 76 31t33 75v1076q0 62 -5 126t-9 97l-5 33h20l1 -2l1114 -1187v1025
q-1 44 -32.5 75.5t-76.5 31.5h-32l-1 27h142h93z" />
    <glyph glyph-name="Omacron" unicode="&#x14c;" horiz-adv-x="1902" 
d="M1222 1629h-512v72h512v-72zM587 961l-20 -5q-9 35 -6 75t9.5 82.5t27 84.5t47.5 80.5t69 72t92.5 58.5t118.5 39t146 14q208 0 371 -96.5t250.5 -261t87.5 -365.5q0 -225 -107 -400.5t-295 -271.5t-424 -96q-175 0 -328 55.5t-264 154.5t-175 243t-64 313
q0 218 102.5 388t292.5 267l12 -18q-91 -59 -149 -166.5t-79 -215t-21 -224.5q0 -174 51.5 -314.5t142 -232t212 -140t263.5 -48.5q195 0 347.5 87.5t238.5 249.5t86 373q0 104 -22 200.5t-68.5 180t-112.5 145t-159.5 97t-204.5 35.5q-122 0 -220 -42.5t-153.5 -108
t-81 -142t-13.5 -147.5z" />
    <glyph glyph-name="omacron" unicode="&#x14d;" horiz-adv-x="1736" 
d="M1133 1701v-72h-512v72h512zM869 1462q231 0 410 -92.5t278.5 -262t99.5 -390.5q0 -165 -58 -304.5t-161.5 -236.5t-249.5 -151t-319 -54q-230 0 -409 92.5t-278.5 262.5t-99.5 391t99.5 390.5t278 262t409.5 92.5zM869 33q283 0 456 188t173 496t-173 496t-456 188
t-456 -188t-173 -496t173 -496t456 -188z" />
    <glyph glyph-name="Ohungarumlaut" unicode="&#x150;" horiz-adv-x="1902" 
d="M844 1574l-23 4q71 151 137 268q72 -3 125 -26q-117 -130 -239 -246zM1094 1574l-23 4q67 156 137 268q61 0 125 -26q-144 -160 -239 -246zM587 961l-20 -5q-9 35 -6 75t9.5 82.5t27 84.5t47.5 80.5t69 72t92.5 58.5t118.5 39t146 14q208 0 371 -96.5t250.5 -261
t87.5 -365.5q0 -225 -107 -400.5t-295 -271.5t-424 -96q-175 0 -328 55.5t-264 154.5t-175 243t-64 313q0 218 102.5 388t292.5 267l12 -18q-91 -59 -149 -166.5t-79 -215t-21 -224.5q0 -174 51.5 -314.5t142 -232t212 -140t263.5 -48.5q195 0 347.5 87.5t238.5 249.5
t86 373q0 104 -22 200.5t-68.5 180t-112.5 145t-159.5 97t-204.5 35.5q-122 0 -220 -42.5t-153.5 -108t-81 -142t-13.5 -147.5z" />
    <glyph glyph-name="ohungarumlaut" unicode="&#x151;" horiz-adv-x="1736" 
d="M754 1574l-22 4q71 151 137 268q72 -3 125 -26q-111 -123 -240 -246zM1005 1574l-23 4q67 156 137 268q61 0 125 -26q-144 -160 -239 -246zM869 1462q231 0 410 -92.5t278.5 -262t99.5 -390.5q0 -165 -58 -304.5t-161.5 -236.5t-249.5 -151t-319 -54q-230 0 -409 92.5
t-278.5 262.5t-99.5 391t99.5 390.5t278 262t409.5 92.5zM869 33q283 0 456 188t173 496t-173 496t-456 188t-456 -188t-173 -496t173 -496t456 -188z" />
    <glyph glyph-name="OE" unicode="&#x152;" horiz-adv-x="2041" 
d="M2012 331h20l-119 -331h-693q-52 0 -110 -4q-12 -1 -115 -13t-146 -12q-327 0 -526.5 205.5t-199.5 540.5t199.5 540t526.5 205q111 0 230 -17q75 -11 140 -11h125q64 1 139 12.5t105 24.5v-37v-63v-159l-25 1v36q0 49 -33 84t-81 38h-225v-633h387q41 1 70 30.5t29 70.5
v30h20v-324h-20v30q0 41 -28.5 70.5t-68.5 30.5h-389v-613h424q79 0 139 19t101.5 57.5t69.5 83t54 108.5zM1099 132v1170q0 36 -41.5 59t-94.5 31.5t-114 8.5q-260 0 -419.5 -188t-159.5 -496t159.5 -496t419.5 -188q93 0 171.5 26.5t78.5 72.5z" />
    <glyph glyph-name="oe" unicode="&#x153;" horiz-adv-x="1998" 
d="M1889 331h21l-120 -331h-570q-52 0 -110 -4q-12 -1 -115 -13t-146 -12q-327 0 -526.5 205.5t-199.5 540.5t199.5 540t526.5 205q111 0 230 -17q75 -11 140 -11h321q64 1 139.5 12.5t105.5 24.5v-37v-63v-159l-25 1v36q0 49 -33.5 84t-81.5 38h-421v-633h354q41 1 70 30.5
t29 70.5v30h20v-324h-20v30q0 41 -28.5 70.5t-68.5 30.5h-356v-613h301q79 0 139 19t101.5 57.5t69.5 83t54 108.5zM1099 132v1170q0 36 -41.5 59t-94.5 31.5t-114 8.5q-260 0 -419.5 -188t-159.5 -496t159.5 -496t419.5 -188q93 0 171.5 26.5t78.5 72.5z" />
    <glyph glyph-name="Racute" unicode="&#x154;" horiz-adv-x="1335" 
d="M992 1739q-137 -80 -329 -174l-15 14q174 186 260 268q55 -55 84 -108zM1264 74q57 -60 91 -95t89 -87t94 -81.5t93 -63.5t100 -50t101 -24t109 -1v-20q-81 -22 -157.5 -23.5t-145.5 17t-131.5 48.5t-124.5 78t-115.5 99.5t-111.5 118.5q-55 63 -278 309.5t-273 302.5
q-43 48 -71 72t-52 27v19q96 0 109 1q25 2 43 4t49.5 8.5t54.5 15t52 25t50 37.5t40 52.5t30 70.5q15 58 13 123q-5 138 -69.5 224.5t-184.5 86.5l-255 1v-1220q1 -52 38.5 -90.5t93.5 -38.5h25v-20h-447v20h27q52 0 90.5 36.5t39.5 91.5v1136q-1 53 -39 91t-92 38h-26v21
h553q181 0 290 -101.5t109 -269.5q0 -109 -45 -202t-125 -148t-177 -55q71 -76 239.5 -262.5t296.5 -321.5z" />
    <glyph glyph-name="racute" unicode="&#x155;" horiz-adv-x="1386" 
d="M971 1739q-137 -80 -329 -174l-15 14q174 186 260 268q55 -55 84 -108zM1130 175q70 -77 133 -115t146 -39v-21h-113q-68 0 -126 16t-102 46t-72 56.5t-57 61.5q-13 15 -138 195t-132 188q-35 44 -57.5 68t-59 47t-71.5 23v19q46 -1 108 1q255 7 320 212q15 47 13 123
q-4 139 -72 222.5t-182 89.5q-46 3 -103 3t-100.5 -0.5t-51.5 -0.5v-1221q1 -53 39 -91t92 -38h26v-20h-447v20h26q53 0 91 37.5t40 90.5v1136q-1 53 -39 91t-92 38h-26v21h163v-1h389q186 0 293.5 -102.5t107.5 -281.5q0 -99 -45 -188.5t-126.5 -146t-176.5 -56.5
q31 -14 72 -56t74 -88q177 -252 256 -339z" />
    <glyph glyph-name="uni0156" unicode="&#x156;" horiz-adv-x="1335" 
d="M1264 74q57 -60 91 -95t89 -87t94 -81.5t93 -63.5t100 -50t101 -24t109 -1v-20q-81 -22 -157.5 -23.5t-145.5 17t-131.5 48.5t-124.5 78t-115.5 99.5t-111.5 118.5q-55 63 -278 309.5t-273 302.5q-43 48 -71 72t-52 27v19q96 0 109 1q25 2 43 4t49.5 8.5t54.5 15t52 25
t50 37.5t40 52.5t30 70.5q15 58 13 123q-5 138 -69.5 224.5t-184.5 86.5l-255 1v-1220q1 -52 38.5 -90.5t93.5 -38.5h25v-20h-447v20h27q52 0 90.5 36.5t39.5 91.5v1137q-1 53 -39 90.5t-92 37.5h-26v21h553q181 0 290 -101.5t109 -269.5q0 -109 -45 -202t-125 -148
t-177 -55q71 -76 239.5 -262.5t296.5 -321.5zM718 -137q10 23 35.5 31.5t52.5 -4t40 -44.5q38 -92 -10 -166t-132 -77l-4 14q46 14 64 45t12.5 58.5t-21.5 46.5q-3 4 -11 13.5t-12 14.5t-9.5 14.5t-7.5 17t-1.5 17t4.5 19.5z" />
    <glyph glyph-name="uni0157" unicode="&#x157;" horiz-adv-x="1386" 
d="M1130 175q70 -77 133 -115t146 -39v-21h-113q-68 0 -126 16t-102 46t-72 56.5t-57 61.5q-13 15 -138 195t-132 188q-35 44 -57.5 68t-59 47t-71.5 23v19q46 -1 108 1q255 7 320 212q15 47 13 123q-4 139 -72 222.5t-182 89.5q-46 3 -103 3t-100.5 -0.5t-51.5 -0.5v-1221
q1 -53 39 -91t92 -38h26v-20h-447v20h26q53 0 91 37.5t40 90.5v1136q-1 53 -39 91t-92 38h-26v21h163v-1h389q186 0 293.5 -102.5t107.5 -281.5q0 -99 -45 -188.5t-126.5 -146t-176.5 -56.5q31 -14 72 -56t74 -88q177 -252 256 -339zM721 -166q10 23 35.5 31.5t53 -3.5
t40.5 -44q38 -92 -10 -166.5t-132 -77.5l-4 14q46 14 64 45t12.5 58.5t-21.5 46.5q-4 5 -11.5 13.5t-12 14.5t-10 15t-7.5 16.5t-1.5 17t4.5 19.5z" />
    <glyph glyph-name="Rcaron" unicode="&#x158;" horiz-adv-x="1335" 
d="M890 1808l-217 -243h-21l-233 243l12 17l233 -136l214 136zM1264 74q57 -60 91 -95t89 -87t94 -81.5t93 -63.5t100 -50t101 -24t109 -1v-20q-81 -22 -157.5 -23.5t-145.5 17t-131.5 48.5t-124.5 78t-115.5 99.5t-111.5 118.5q-55 63 -278 309.5t-273 302.5q-43 48 -71 72
t-52 27v19q96 0 109 1q25 2 43 4t49.5 8.5t54.5 15t52 25t50 37.5t40 52.5t30 70.5q15 58 13 123q-5 138 -69.5 224.5t-184.5 86.5l-255 1v-1220q1 -52 38.5 -90t93.5 -38h25v-21h-447v21h26q52 0 91 36t40 91v1137q-1 53 -39 90.5t-92 37.5h-26v21h553q181 0 290 -101.5
t109 -269.5q0 -109 -45 -202t-125 -148t-177 -55q71 -76 239.5 -262.5t296.5 -321.5z" />
    <glyph glyph-name="rcaron" unicode="&#x159;" horiz-adv-x="1386" 
d="M869 1808l-217 -243h-21l-233 243l12 17l233 -136l214 136zM1130 175q70 -77 133 -115t146 -39v-21h-113q-68 0 -126 16t-102 46t-72 56.5t-57 61.5q-13 15 -138 195t-132 188q-35 44 -57.5 68t-59 47t-71.5 23v19q46 -1 108 1q255 7 320 212q15 47 13 123
q-4 139 -72 222.5t-182 89.5q-46 3 -103 3t-100.5 -0.5t-51.5 -0.5v-1221q1 -53 39 -91t92 -38h26v-20h-447v20h26q53 0 91 37.5t40 90.5v1136q-1 53 -39 91t-92 38h-26v21h163v-1h389q186 0 293.5 -102.5t107.5 -281.5q0 -99 -45 -188.5t-126.5 -146t-176.5 -56.5
q31 -14 72 -56t74 -88q177 -252 256 -339z" />
    <glyph glyph-name="Sacute" unicode="&#x15a;" horiz-adv-x="1124" 
d="M908 1739q-132 -77 -330 -174l-14 14q174 186 260 268q55 -55 84 -108zM446 977l380 -299q99 -79 156 -177t68 -193t-18 -186.5t-91 -160.5t-162 -111.5t-221 -42.5q-109 0 -200 35t-149.5 93t-91 135.5t-32 159.5t35.5 168.5t104 159.5l19 -14q-55 -72 -82 -151
t-25 -151.5t29.5 -139t76 -115t121 -77.5t158.5 -29q93 0 170.5 33.5t126.5 88.5t72 127.5t15 148t-52.5 153.5t-122.5 140l-369 290q-65 51 -92.5 121t-27.5 137q0 64 23.5 124.5t67 109.5t113 78.5t152.5 29.5q78 0 179 -21h80l1 -24l4 -227h-20q-1 99 -70 155t-168 56
q-109 0 -178.5 -68.5t-69.5 -171.5q0 -111 90 -184z" />
    <glyph glyph-name="sacute" unicode="&#x15b;" horiz-adv-x="974" 
d="M836 1739q-132 -77 -330 -174l-14 14q174 186 260 268q55 -55 84 -108zM351 976l402 -372q103 -95 103 -250q0 -172 -104 -277.5t-279 -105.5q-90 0 -191.5 27.5t-155.5 84.5q-12 45 -5.5 132t29.5 154h18q-15 -156 70.5 -250t224.5 -86q117 6 195.5 80.5t78.5 193.5
q0 117 -80 191l-392 364q-111 102 -111 254q0 66 24 127.5t68 110.5t114 78.5t154 29.5q80 0 175 -21h81v-24v-227h-19q0 96 -66 153.5t-165 57.5q-110 0 -181 -69.5t-71 -166.5q0 -112 83 -189z" />
    <glyph glyph-name="Scedilla" unicode="&#x15e;" horiz-adv-x="1124" 
d="M446 977l380 -299q97 -76 153.5 -171.5t69 -188t-12.5 -182.5t-82 -159t-149.5 -115t-206.5 -53l-84 -99q30 10 64 11.5t68.5 -8t58 -40.5t24.5 -81q1 -47 -24.5 -84t-67 -55.5t-93.5 -23.5t-103 13l1 20q46 0 86.5 12t70 43t27.5 77q-1 41 -29 62.5t-65.5 20
t-76.5 -15.5l-10 21l96 126q-106 3 -194 39t-144.5 94t-87 135t-29.5 158t36 166.5t103 157.5l19 -14q-55 -72 -82 -151t-25 -151.5t29.5 -139t76 -115t121 -77.5t158.5 -29q93 0 170.5 33.5t126.5 88.5t72 127.5t15 148t-52.5 153.5t-122.5 140l-369 290q-65 51 -92.5 121
t-27.5 137q0 64 23.5 124.5t67 109.5t113 78.5t152.5 29.5q77 0 178 -21h81l1 -24l4 -227h-20q-1 99 -70 155t-168 56q-109 0 -178.5 -68.5t-69.5 -171.5q0 -111 90 -184z" />
    <glyph glyph-name="scedilla" unicode="&#x15f;" horiz-adv-x="974" 
d="M856 354q0 -162 -92.5 -265.5t-251.5 -115.5l-82 -96q30 10 64 11.5t68.5 -8t58 -41t24.5 -81.5q1 -47 -24.5 -84t-67 -55t-93.5 -23t-103 13l1 20q46 0 86.5 11.5t70.5 42.5t28 77q-1 41 -29.5 63t-66 20.5t-76.5 -15.5l-10 21l94 123q-90 3 -183.5 30.5t-145.5 80.5
q-12 45 -5.5 132t29.5 154h18q-15 -156 70.5 -250t224.5 -86q117 6 195.5 80.5t78.5 193.5q0 117 -80 191l-392 364q-111 102 -111 254q0 66 24 127.5t68 110.5t114 78.5t154 29.5q80 0 175 -21h81v-24v-227h-19q0 96 -66 153.5t-165 57.5q-110 0 -181 -69.5t-71 -166.5
q0 -112 83 -189l402 -372q103 -95 103 -250z" />
    <glyph glyph-name="Scaron" unicode="&#x160;" horiz-adv-x="1124" 
d="M806 1808l-217 -243h-21l-234 243l13 17l232 -136l215 136zM446 977l380 -299q99 -79 156 -177t68 -193t-18 -186.5t-91 -160.5t-162 -111.5t-221 -42.5q-109 0 -200 35t-149.5 93t-91 135.5t-32 159.5t35.5 168.5t104 159.5l19 -14q-55 -72 -82 -151t-25 -151.5
t29.5 -139t76 -115t121 -77.5t158.5 -29q93 0 170.5 33.5t126.5 88.5t72 127.5t15 148t-52.5 153.5t-122.5 140l-369 290q-65 51 -92.5 121t-27.5 137q0 64 23.5 124.5t67 109.5t113 78.5t152.5 29.5q77 0 178 -21h81l1 -24l4 -227h-20q-1 99 -70 155t-168 56
q-109 0 -178.5 -68.5t-69.5 -171.5q0 -111 90 -184z" />
    <glyph glyph-name="scaron" unicode="&#x161;" horiz-adv-x="974" 
d="M734 1808l-217 -243h-21l-234 243l13 17l232 -136l215 136zM351 977l402 -373q103 -95 103 -250q0 -172 -104 -277.5t-279 -105.5q-90 0 -191.5 27.5t-155.5 84.5q-12 45 -5.5 132t29.5 154h18q-15 -156 70.5 -250t224.5 -86q117 6 195.5 80.5t78.5 193.5q0 117 -80 191
l-392 364q-111 102 -111 254q0 66 24 127.5t68 110.5t114 78.5t154 29.5q80 0 175 -21h81v-24v-227h-19q0 96 -66 153.5t-165 57.5q-110 0 -181 -69.5t-71 -166.5q0 -111 83 -188z" />
    <glyph glyph-name="uni0162" unicode="&#x162;" horiz-adv-x="1265" 
d="M139 1436h840q63 0 140 12t107 25v-258l-21 1v36q0 49 -33.5 84.5t-82.5 37.5h-389v-1226q1 -53 40 -90.5t92 -37.5h25l1 -20h-190l-84 -98q30 10 64 11.5t68.5 -8t58 -41t24.5 -81.5q1 -47 -24.5 -84t-67 -55.5t-94 -23.5t-103.5 13l2 21q46 0 86.5 11.5t70 42.5
t27.5 77q-1 41 -29 63t-65.5 20.5t-76.5 -15.5l-11 20l97 127h-202l1 20h26q53 0 91 36.5t40 89.5v1228h-428q-80 0 -143 -28.5t-95 -75.5t-36.5 -108t31.5 -126l-17 -10q-45 55 -58.5 114.5t5.5 111t59.5 93.5t107.5 66.5t146 24.5z" />
    <glyph glyph-name="uni0163" unicode="&#x163;" horiz-adv-x="1265" 
d="M288 1436h691q63 0 140 12t107 25v-258l-21 1v36q0 49 -33.5 84.5t-82.5 37.5h-389v-1226q1 -53 40 -90.5t92 -37.5h25l1 -20h-187l-84 -98q30 10 64 11.5t68 -8t57.5 -41t24.5 -81.5q1 -47 -24.5 -84t-67 -55.5t-93.5 -23.5t-103 13l2 21q46 0 86.5 11.5t70 42.5
t27.5 77q-1 41 -29.5 63t-66 20.5t-76.5 -15.5l-10 20l97 127h-205l1 20h26q53 0 91 36.5t40 89.5v1228h-389q-49 -2 -82.5 -37.5t-33.5 -84.5v-36l-21 -1v258q30 -13 106.5 -25t140.5 -12z" />
    <glyph glyph-name="Tcaron" unicode="&#x164;" horiz-adv-x="1265" 
d="M848 1693l12 -16l-216 -241h-23l-232 241l12 17l233 -136zM644 1436h335q63 0 140 12t107 25v-258l-21 1v36q0 49 -33.5 84.5t-82.5 37.5h-389v-1226q1 -53 40 -90.5t92 -37.5h25l1 -20h-449l1 20h26q53 0 91 36.5t40 89.5v1228h-428q-80 0 -143 -28.5t-95 -75.5
t-36.5 -108t31.5 -126l-17 -10q-45 55 -58.5 114.5t5.5 111t59.5 93.5t107.5 66.5t146 24.5h482l1 -2h21z" />
    <glyph glyph-name="tcaron" unicode="&#x165;" horiz-adv-x="1265" 
d="M860 1808l-217 -243h-20l-234 243l12 17l233 -136l214 136zM288 1436h691q63 0 140 12t107 25v-258l-21 1v36q0 49 -33.5 84.5t-82.5 37.5h-389v-1226q1 -53 40 -90.5t92 -37.5h25l1 -20h-449l1 20h26q53 0 91 36.5t40 89.5v1228h-389q-49 -2 -82.5 -37.5t-33.5 -84.5
v-36l-21 -1v258q30 -13 106.5 -25t140.5 -12z" />
    <glyph glyph-name="Tbar" unicode="&#x166;" horiz-adv-x="1265" 
d="M139 1436h840q63 0 140 12t107 25v-258l-21 1v36q0 49 -33.5 84.5t-82.5 37.5h-389v-594h332v-61h-332v-571q1 -53 40 -90.5t92 -37.5h25l1 -20h-449l1 20h26q53 0 91 36.5t40 89.5v573h-329v61h329v594h-428q-80 0 -143 -28.5t-95 -75.5t-36.5 -108t31.5 -126l-17 -10
q-45 55 -58.5 114.5t5.5 111t59.5 93.5t107.5 66.5t146 24.5z" />
    <glyph glyph-name="tbar" unicode="&#x167;" horiz-adv-x="1265" 
d="M288 1436h691q63 0 140 12t107 25v-258l-21 1v36q0 49 -33.5 84.5t-82.5 37.5h-389v-553h332v-61h-332v-612q1 -53 40 -90.5t92 -37.5h25l1 -20h-449l1 20h26q53 0 91 36.5t40 89.5v614h-329v61h329v553h-389q-49 -2 -82.5 -37.5t-33.5 -84.5v-36l-21 -1v258
q30 -13 106.5 -25t140.5 -12z" />
    <glyph glyph-name="Umacron" unicode="&#x16a;" horiz-adv-x="1603" 
d="M1268 507v678q0 302 157 456.5t426 143.5v-20q-225 0 -356 -148t-131 -429v-681q0 -241 -152 -388.5t-400 -147.5q-256 0 -412 146.5t-156 385.5v809q-1 44 -32 72.5t-76 28.5h-34v21h416v-21h-33q-44 0 -75 -28t-33 -70v-782q0 -224 119.5 -360.5t315.5 -136.5
q205 0 330.5 129.5t125.5 341.5zM613 1701h512v-72h-512v72z" />
    <glyph glyph-name="umacron" unicode="&#x16b;" horiz-adv-x="1607" 
d="M572 1701h512v-72h-512v72zM1359 1434h146v-21h-33q-44 0 -75 -27.5t-33 -69.5v-809q0 -241 -152 -388.5t-400 -147.5q-256 0 -412 146.5t-156 385.5v809q-1 44 -32 72.5t-76 28.5h-34v21h416v-21h-33q-44 0 -75 -28t-33 -70v-782q0 -224 119.5 -360.5t315.5 -136.5
q205 0 330.5 129.5t125.5 341.5v808q-2 42 -33 70t-75 28h-33v21h146h86z" />
    <glyph glyph-name="Uring" unicode="&#x16e;" horiz-adv-x="1603" 
d="M864 1565q-82 0 -137 43.5t-55 110.5t55 110t137 43q84 0 138 -41t54 -112q0 -67 -55 -110.5t-137 -43.5zM864 1837q-44 0 -72 -31.5t-28 -86.5t28 -86.5t72 -31.5t72 31.5t28 86.5t-28 86.5t-72 31.5zM1268 507v678q0 302 157 456.5t426 143.5v-20q-225 0 -356 -148
t-131 -429v-681q0 -241 -152 -388.5t-400 -147.5q-256 0 -412 146.5t-156 385.5v809q-1 44 -32 72.5t-76 28.5h-34v21h416v-21h-33q-44 0 -75 -28t-33 -70v-782q0 -224 119.5 -360.5t315.5 -136.5q205 0 330.5 129.5t125.5 341.5z" />
    <glyph glyph-name="uring" unicode="&#x16f;" horiz-adv-x="1607" 
d="M823 1565q-82 0 -137 43.5t-55 110.5t55 110t137 43q84 0 138 -41t54 -112q0 -67 -55 -110.5t-137 -43.5zM823 1837q-44 0 -72 -31.5t-28 -86.5t28 -86.5t72 -31.5t72 31.5t28 86.5t-28 86.5t-72 31.5zM1359 1434h146v-21h-33q-44 0 -75 -27.5t-33 -69.5v-809
q0 -241 -152 -388.5t-400 -147.5q-256 0 -412 146.5t-156 385.5v809q-1 44 -32 72.5t-76 28.5h-34v21h416v-21h-33q-44 0 -75 -28t-33 -70v-782q0 -224 119.5 -360.5t315.5 -136.5q205 0 330.5 129.5t125.5 341.5v808q-2 42 -33 70t-75 28h-33v21h146h86z" />
    <glyph glyph-name="Uhungarumlaut" unicode="&#x170;" horiz-adv-x="1603" 
d="M986 1820q-117 -130 -239 -246l-23 4q71 151 137 268q72 -3 125 -26zM997 1574l-23 4q67 156 137 268q61 0 125 -26q-144 -160 -239 -246zM1268 507v678q0 302 157 456.5t426 143.5v-20q-225 0 -356 -148t-131 -429v-682q0 -241 -152 -388t-400 -147q-256 0 -412 146.5
t-156 385.5v809q-1 44 -32 72.5t-76 28.5h-34v20h416v-20h-33q-44 0 -75 -28t-33 -70v-782q0 -224 119.5 -360.5t315.5 -136.5q205 0 330.5 129.5t125.5 341.5z" />
    <glyph glyph-name="uhungarumlaut" unicode="&#x171;" horiz-adv-x="1607" 
d="M945 1820q-117 -130 -239 -246l-23 4q71 151 137 268q72 -3 125 -26zM956 1574l-23 4q67 156 137 268q61 0 125 -26q-144 -160 -239 -246zM1359 1433h146v-20h-33q-44 0 -75 -27.5t-33 -69.5v-810q0 -241 -152 -388t-400 -147q-256 0 -412 146.5t-156 385.5v809
q-1 44 -32 72.5t-76 28.5h-34v20h416v-20h-33q-44 0 -75 -28t-33 -70v-782q0 -224 119.5 -360.5t315.5 -136.5q205 0 330.5 129.5t125.5 341.5v807q-2 43 -33 71t-75 28h-33v21h146v-1h86z" />
    <glyph glyph-name="Uogonek" unicode="&#x172;" horiz-adv-x="1603" 
d="M1268 507v678q0 302 157 456.5t426 143.5v-20q-225 0 -356 -148t-131 -429v-681q0 -217 -124.5 -359.5t-333.5 -170.5q-149 -39 -144 -158q1 -43 26.5 -77t61.5 -49.5t80.5 -6t80.5 46.5l13 -12q-15 -41 -47.5 -69t-72 -39.5t-81.5 -6t-76 26.5t-56.5 63.5t-23.5 99.5
q-1 59 38 106t101 69q-253 1 -407.5 147.5t-154.5 384.5v809q-1 44 -32 72.5t-76 28.5h-34v21h416v-21h-33q-44 0 -75 -28t-33 -70v-782q0 -224 119.5 -360.5t315.5 -136.5q205 0 330.5 129.5t125.5 341.5z" />
    <glyph glyph-name="uogonek" unicode="&#x173;" horiz-adv-x="1607" 
d="M1359 1434h146v-21h-33q-44 0 -75 -27.5t-33 -69.5v-809q0 -217 -124.5 -359.5t-333.5 -170.5q-149 -39 -144 -158q1 -43 26.5 -77t61.5 -49.5t80.5 -6t80.5 46.5l13 -12q-15 -41 -47.5 -69t-72 -39.5t-81.5 -6t-76 26.5t-56.5 63.5t-23.5 99.5q-1 59 38 106t101 69
q-253 1 -407.5 147.5t-154.5 384.5v809q-1 44 -32 72.5t-76 28.5h-34v21h416v-21h-33q-44 0 -75 -28t-33 -70v-782q0 -224 119.5 -360.5t315.5 -136.5q205 0 330.5 129.5t125.5 341.5v808q-2 42 -33 70t-75 28h-33v21h146h86z" />
    <glyph glyph-name="Wcircumflex" unicode="&#x174;" horiz-adv-x="1953" 
d="M1452 329l304 1015q25 82 62.5 160.5t99.5 160t138 141.5t182.5 96t227.5 31v-20q-97 -4 -183 -44.5t-145.5 -98t-111 -137.5t-81.5 -146.5t-56 -142.5l-393 -1141q-42 -130 -45 -228h-20l-418 1170l-330 -1032q-35 -110 -93 -200.5t-135 -154.5t-176 -89t-207 -1l4 21
q83 -16 163.5 13t146 92.5t117.5 146t87 177.5l-415 1170q-24 62 -75 93.5t-104 31.5h-16v21h455v-21h-18q-43 0 -70 -34.5t-10 -91.5l310 -996l381 1175h19v-2v1zM1269 1562l-232 136l-215 -136l-12 17l217 243h21l234 -243z" />
    <glyph glyph-name="wcircumflex" unicode="&#x175;" horiz-adv-x="2011" 
d="M1270 1583l-233 135l-214 -135l-12 16l217 244h20l234 -244zM1628 1413v21h404v-21h-18q-53 0 -105.5 -32.5t-73.5 -94.5l-339 -1083q-42 -130 -45 -228h-20l-418 1172l-311 -944q-39 -127 -42 -228h-20l-465 1313q-24 62 -75 93.5t-104 31.5h-16v21h455v-21h-18
q-43 0 -70 -34.5t-10 -91.5l310 -996l381 1175h19v-2v1l404 -1133l274 959q14 56 -10 89t-69 33h-18z" />
    <glyph glyph-name="Ycircumflex" unicode="&#x176;" horiz-adv-x="1265" 
d="M909 1562l-232 136l-215 -135l-12 16l217 243h21l234 -243zM672 770q91 242 133 331q140 299 325 397q101 53 219 53v-21q-78 0 -159 -56.5t-149.5 -148t-129.5 -208t-103.5 -236.5t-67 -233t-24.5 -197v-302q1 -52 38.5 -90.5t93.5 -38.5h25v-20h-448l1 20h27
q52 0 90.5 37.5t39.5 90.5v305q0 89 -26 205t-70.5 235t-108.5 234t-136 204t-157 144t-167 55v21q97 4 183 -20t149 -63.5t120.5 -103.5t95.5 -123t76.5 -141t59.5 -138t49 -133q4 -13 7 -20.5t7 -18.5t7 -20z" />
    <glyph glyph-name="ycircumflex" unicode="&#x177;" horiz-adv-x="1353" 
d="M935 1562l-233 136l-214 -135l-13 16l218 243h20l234 -243zM921 1413v21h454v-21h-28q-60 0 -115 -34t-91 -85l-405 -654v-491q1 -53 39.5 -91t92.5 -38l26 1v-21h-448v21l26 -1q53 0 91 37.5t40 90.5v494l-390 652q-32 50 -88 84.5t-118 34.5h-27v21h503v-21h-26
q-45 0 -69 -42t-2 -85l307 -573l326 573v0l1 2q23 42 -3.5 83.5t-69.5 41.5h-26z" />
    <glyph glyph-name="Ydieresis" unicode="&#x178;" horiz-adv-x="1265" 
d="M485 1565q-33 0 -56.5 23.5t-23.5 56.5t23.5 56.5t56.5 23.5t56.5 -23.5t23.5 -56.5t-23.5 -56.5t-56.5 -23.5zM871 1565q-33 0 -56.5 23.5t-23.5 56.5t23.5 56.5t56.5 23.5t56.5 -23.5t23.5 -56.5t-23.5 -56.5t-56.5 -23.5zM672 770q91 242 133 331q140 299 325 397
q101 53 219 53v-21q-78 0 -159 -56.5t-149.5 -148t-129.5 -208t-103.5 -236.5t-67 -233t-24.5 -197v-302q1 -52 38.5 -90.5t93.5 -38.5h25v-20h-448l1 20h27q52 0 90.5 37.5t39.5 90.5v305q0 89 -26 205t-70.5 235t-108.5 234t-136 204t-157 144t-167 55v21q97 4 183 -20
t149 -63.5t120.5 -103.5t95.5 -123t76.5 -141t59.5 -138t49 -133q4 -13 7 -20.5t7 -18.5t7 -20z" />
    <glyph glyph-name="Zacute" unicode="&#x179;" horiz-adv-x="1302" 
d="M993 1739q-132 -77 -330 -174l-14 14q174 186 260 268q55 -55 84 -108zM2030 -166l10 -16q-90 -105 -212 -159.5t-250 -60.5t-273 17t-279 68t-271 97t-247 100.5t-207.5 82t-151.5 37.5h-26v19l861 1355h-691q-50 -1 -85 -36.5t-35 -85.5v-37h-21v164v34v60
q31 -13 108.5 -25t141.5 -12l-3 -1l571 1q62 0 130.5 8t86.5 18v-18l-894 -1413q34 -9 219 -70q319 -105 539.5 -159.5t397 -66.5t306.5 12.5t275 86.5z" />
    <glyph glyph-name="zacute" unicode="&#x17a;" horiz-adv-x="1333" 
d="M993 1739q-132 -77 -330 -174l-14 14q174 186 260 268q55 -55 84 -108zM1243 316h20l-68 -316h-1072v19l861 1355h-691q-50 -1 -85 -36.5t-35 -85.5v-37h-21v164v34v60q31 -13 108.5 -25t141.5 -12l-3 -1l571 1q62 0 130.5 8t86.5 18v-18l-875 -1383h651q108 0 178.5 70
t101.5 185z" />
    <glyph glyph-name="Zdotaccent" unicode="&#x17b;" horiz-adv-x="1302" 
d="M661 1566q-37 0 -63 25.5t-26 62.5t26 62.5t63 25.5t62.5 -25.5t25.5 -62.5t-25.5 -62.5t-62.5 -25.5zM2030 -166l10 -16q-80 -93 -185.5 -147t-219 -67t-237.5 -2t-249 45.5t-245.5 76.5t-235.5 90t-210.5 87.5t-178 67.5t-131.5 31h-25v19l861 1355h-691
q-50 -1 -85 -36.5t-35 -85.5v-37h-21v164v34v60q31 -13 108.5 -25t141.5 -12l-3 -1l571 1q62 0 130.5 8t86.5 18v-18l-894 -1413q34 -9 219 -70q319 -105 539.5 -159.5t397 -66.5t306.5 12.5t275 86.5z" />
    <glyph glyph-name="zdotaccent" unicode="&#x17c;" horiz-adv-x="1333" 
d="M661 1566q-37 0 -63 25.5t-26 62.5t26 62.5t63 25.5t62.5 -25.5t25.5 -62.5t-25.5 -62.5t-62.5 -25.5zM1243 316h20l-68 -316h-1072v19l861 1355h-691q-50 -1 -85 -36.5t-35 -85.5v-37h-21v164v34v60q31 -13 108.5 -25t141.5 -12l-3 -1l571 1q62 0 130.5 8t86.5 18v-17
l-875 -1384h651q108 0 178.5 70t101.5 185z" />
    <glyph glyph-name="Zcaron" unicode="&#x17d;" horiz-adv-x="1302" 
d="M891 1808l-217 -243h-21l-234 243l13 17l232 -136l215 136zM2030 -166l10 -16q-80 -93 -185.5 -147t-219 -67t-237.5 -2t-249 45.5t-245.5 76.5t-235.5 90t-210.5 87.5t-178 67.5t-131.5 31h-25v19l861 1355h-691q-50 -1 -85 -36.5t-35 -85.5v-37h-21v164v34v60
q31 -13 108.5 -25t141.5 -12l-3 -1l571 1q62 0 130.5 8t86.5 18v-18l-894 -1413q34 -9 219 -70q319 -105 539.5 -159.5t397 -66.5t306.5 12.5t275 86.5z" />
    <glyph glyph-name="zcaron" unicode="&#x17e;" horiz-adv-x="1333" 
d="M891 1808l-217 -243h-21l-234 243l13 17l232 -136l215 136zM1243 316h20l-68 -316h-1072v19l861 1355h-691q-50 -1 -85 -36.5t-35 -85.5v-37h-21v165v33v60q31 -13 108.5 -25t141.5 -12l-3 -1l571 1q62 0 130.5 8t86.5 18v-17l-875 -1384h651q108 0 178.5 70t101.5 185z
" />
    <glyph glyph-name="florin" unicode="&#x192;" horiz-adv-x="1009" 
d="M676 1229q55 1 120 11t91 21v-232l-20 1v31q0 44 -28 74t-73 31h-387v-521h319q39 1 60 25.5t21 61.5v26h20v-287h-20v26q0 36 -20 60.5t-57 26.5h-323v-584q0 -148 -101 -256.5t-237 -108.5v21q87 31 147 130.5t60 213.5v1102q-2 45 -32.5 75.5t-76.5 30.5h-26v21h563z
" />
    <glyph glyph-name="uni0218" unicode="&#x218;" horiz-adv-x="1124" 
d="M446 977l380 -299q99 -79 156 -177t68 -193t-18 -186.5t-91 -160.5t-162 -111.5t-221 -42.5q-109 0 -200 35t-149.5 93t-91 135.5t-32 159.5t35.5 168.5t104 159.5l19 -14q-55 -72 -82 -151t-25 -151.5t29.5 -139t76 -115t121 -77.5t158.5 -29q93 0 170.5 33.5
t126.5 88.5t72 127.5t15 148t-52.5 153.5t-122.5 140l-369 290q-65 51 -92.5 121t-27.5 137q0 64 23.5 124.5t67 109.5t113 78.5t152.5 29.5q77 0 178 -21h81l1 -24l4 -227h-20q-1 99 -70 155t-168 56q-109 0 -178.5 -68.5t-69.5 -171.5q0 -111 90 -184zM516 -322
q10 24 35 33t52 -3t41 -44q40 -91 -6.5 -166t-130.5 -80l-5 14q46 15 63.5 46t11.5 59t-22 46q-3 4 -11.5 13t-12.5 14t-10 14.5t-8 16.5t-1.5 17t4.5 20z" />
    <glyph glyph-name="uni0219" unicode="&#x219;" horiz-adv-x="974" 
d="M351 976l402 -372q103 -95 103 -250q0 -172 -104 -277.5t-279 -105.5q-90 0 -191.5 27.5t-155.5 84.5q-12 45 -5.5 132t28.5 154h19q-15 -156 70.5 -250t224.5 -86q117 6 195.5 80.5t78.5 193.5q0 117 -80 191l-392 364q-111 102 -111 254q0 66 24 127.5t68 110.5
t114 78.5t154 29.5q80 0 175 -21h81v-24v-227h-19q0 96 -66 153.5t-165 57.5q-110 0 -181 -69.5t-71 -166.5q0 -112 83 -189zM440 -166q10 23 35.5 31.5t52.5 -3.5t40 -44q38 -92 -10 -166.5t-132 -77.5l-4 14q35 11 54.5 31.5t21.5 43t-3.5 42.5t-16.5 33q-4 5 -11.5 13.5
t-12 14.5t-10 15t-7.5 16.5t-1.5 17t4.5 19.5z" />
    <glyph glyph-name="uni021A" unicode="&#x21a;" horiz-adv-x="1265" 
d="M139 1436h840q63 0 140 12t107 25v-258l-21 1v36q0 49 -33.5 84.5t-82.5 37.5h-389v-1226q1 -53 40 -90.5t92 -37.5h25l1 -20h-449l1 20h26q53 0 91 36.5t40 89.5v1228h-428q-80 0 -143 -28.5t-95 -75.5t-36.5 -108t31.5 -126l-17 -10q-45 55 -58.5 114.5t5.5 111
t59.5 93.5t107.5 66.5t146 24.5zM575 -164q10 24 35 32.5t52.5 -3.5t41.5 -44q40 -91 -7 -166t-131 -80l-4 15q46 15 63.5 46t11.5 58.5t-22 45.5q-3 4 -11.5 13t-13 14.5t-10.5 15t-8 16.5t-1.5 17t4.5 20z" />
    <glyph glyph-name="uni021B" unicode="&#x21b;" horiz-adv-x="1265" 
d="M288 1436h691q63 0 140 12t107 25v-258l-21 1v36q0 49 -33.5 84.5t-82.5 37.5h-389v-1226q1 -53 40 -90.5t92 -37.5h25l1 -20h-449l1 20h26q53 0 91 36.5t40 89.5v1228h-389q-49 -2 -82.5 -37.5t-33.5 -84.5v-36l-21 -1v258q30 -13 106.5 -25t140.5 -12zM577 -166
q10 23 35.5 32t52.5 -3.5t40 -44.5q38 -92 -10 -166.5t-132 -77.5l-4 14q35 11 54.5 31.5t21.5 43t-3.5 42.5t-16.5 33q-4 5 -11.5 13.5t-12 14.5t-10 15t-7.5 16.5t-1.5 17t4.5 19.5z" />
    <glyph glyph-name="circumflex" unicode="&#x2c6;" horiz-adv-x="1228" 
d="M811 1509l-234 244h-20l-218 -244l13 -16l214 135l233 -135z" />
    <glyph glyph-name="caron" unicode="&#x2c7;" horiz-adv-x="1228" 
d="M594 1493l217 243l-12 16l-215 -135l-232 136l-13 -17l234 -243h21z" />
    <glyph glyph-name="breve" unicode="&#x2d8;" horiz-adv-x="901" 
d="M641 1748h21q0 -86 -62.5 -149t-148.5 -63t-148.5 63t-62.5 149h20q16 -44 69.5 -76.5t121.5 -32.5t121 32.5t69 76.5z" />
    <glyph glyph-name="dotaccent" unicode="&#x2d9;" horiz-adv-x="1228" 
d="M616 1435q-37 0 -62.5 25.5t-25.5 62.5t25.5 62.5t62.5 25.5t62.5 -25.5t25.5 -62.5t-25.5 -62.5t-62.5 -25.5z" />
    <glyph glyph-name="ring" unicode="&#x2da;" horiz-adv-x="1228" 
d="M617 1739q84 0 138 -41t54 -112q0 -67 -55 -110.5t-137 -43.5t-137 43.5t-55 110.5t55 110t137 43zM617 1704q-44 0 -72 -31.5t-28 -86.5q0 -56 28 -87.5t72 -31.5t72 31.5t28 87.5q0 55 -28 86.5t-72 31.5z" />
    <glyph glyph-name="ogonek" unicode="&#x2db;" horiz-adv-x="1228" 
d="M753 34l20 -6q-157 -38 -152 -161q1 -43 26.5 -77t61.5 -49.5t80.5 -6t80.5 46.5l13 -12q-15 -41 -47.5 -69t-72 -39.5t-81.5 -6t-76 26.5t-56.5 63.5t-23.5 99.5q-1 81 66 135.5t161 54.5z" />
    <glyph glyph-name="tilde" unicode="&#x2dc;" horiz-adv-x="1228" 
d="M332 1440h21q33 83 111 83q30 0 114.5 -45t131.5 -45q53 0 89 43t45 118h-20q-27 -68 -114 -68q-32 0 -114.5 43.5t-131.5 43.5q-50 0 -85.5 -46t-46.5 -127z" />
    <glyph glyph-name="hungarumlaut" unicode="&#x2dd;" horiz-adv-x="1228" 
d="M433 1538l-22 4q71 151 137 268q72 -3 125 -26q-111 -123 -240 -246zM684 1538l-23 4q67 156 137 268q61 0 125 -26q-144 -160 -239 -246z" />
    <glyph glyph-name="uni0326" unicode="&#x326;" horiz-adv-x="0" 
d="M-206 -35q10 23 35.5 31.5t53 -3.5t40.5 -44q38 -92 -10 -166.5t-132 -77.5l-4 14q46 14 64 45t12.5 58.5t-21.5 46.5q-4 5 -11.5 13.5t-12 14.5t-10 15t-7.5 16.5t-1.5 17t4.5 19.5z" />
    <glyph glyph-name="uni0394" unicode="&#x394;" horiz-adv-x="1335" 
d="M657 1462h21l647 -1442v-20h-1315v20zM1143 61l-514 1192l-530 -1192h1044z" />
    <glyph glyph-name="uni03A9" unicode="&#x3a9;" horiz-adv-x="1654" 
d="M1521 286h21l-98 -286h-491v133q77 45 149 107t137.5 144.5t106.5 188.5t44 218q4 168 -68.5 308.5t-202.5 221t-288 80.5q-117 0 -221.5 -47.5t-179.5 -129t-119 -194.5t-44 -239q0 -112 37 -217t100 -186.5t135 -144.5t154 -110v-133h-486l-98 286h21
q56 -101 103.5 -137t136.5 -36h22h239q-114 38 -204 102.5t-144.5 135.5t-91.5 153t-51.5 151.5t-16.5 135.5q-6 185 86.5 339.5t258 243t366.5 88.5q193 0 353.5 -88.5t253 -243t92.5 -339.5q0 -78 -35.5 -176.5t-98.5 -196.5t-164.5 -182t-219.5 -123h244h23q89 0 136 36
t103 137z" />
    <glyph glyph-name="uni03BC" unicode="&#x3bc;" horiz-adv-x="1906" 
d="M1844 20h32v-20h-445v19h32q32 0 56 27t24 61q0 1 -0.5 4t-0.5 5l-92 1021l-430 -957q-58 -124 -71 -209h-19l-524 1137l-89 -992v-1v-3v-5q0 -34 23.5 -61t55.5 -27h32v-19h-396v20h32q57 0 99.5 35t49.5 94l155 1313h18l572 -1236l559 1236h18l159 -1313q7 -59 50 -94
t100 -35z" />
    <glyph glyph-name="pi" unicode="&#x3c0;" horiz-adv-x="1439" 
d="M1329 20v-20h-403l1 21l22 -1q46 0 79 32.5t34 78.5v925q-1 45 -33 78t-77 33h-463q-44 0 -75.5 -31t-33.5 -76v-930q2 -46 34.5 -78t78.5 -32l22 1v-21h-402v21l22 -1q46 0 79 32.5t34 78.5v966q-1 46 -33.5 78.5t-79.5 32.5h-22v21h1216v-21h-23q-46 0 -78.5 -31
t-34.5 -76v-971q2 -46 34.5 -78t78.5 -32h23z" />
    <glyph glyph-name="Wgrave" unicode="&#x1e80;" horiz-adv-x="1953" 
d="M1452 329l304 1015q25 82 62.5 160.5t99.5 160t138 141.5t182.5 96t227.5 31v-20q-97 -4 -183 -44.5t-145.5 -98t-111 -137.5t-81.5 -146.5t-56 -142.5l-393 -1141q-42 -130 -45 -228h-20l-418 1170l-330 -1032q-35 -110 -93 -200.5t-135 -154.5t-176 -89t-207 -1l4 21
q83 -16 163.5 13t146 92.5t117.5 146t87 177.5l-415 1170q-24 62 -75 93.5t-104 31.5h-16v21h455v-21h-18q-43 0 -70 -34.5t-10 -91.5l310 -996l381 1175h19v-2v1zM1052 1579l-14 -14q-160 75 -329 174q31 59 83 108q115 -110 260 -268z" />
    <glyph glyph-name="wgrave" unicode="&#x1e81;" horiz-adv-x="2011" 
d="M1053 1599l-14 -14q-156 74 -330 175q29 56 84 107q115 -110 260 -268zM1628 1413v21h404v-21h-18q-53 0 -105.5 -32.5t-73.5 -94.5l-339 -1083q-42 -129 -45 -227h-20l-418 1171l-311 -944q-40 -126 -43 -227h-19l-465 1312q-24 62 -75 93.5t-104 31.5h-16v21h455v-21
h-18q-43 0 -70 -34t-10 -91l310 -997l381 1175h19v-2v1l404 -1133l274 959q14 56 -10 89t-69 33h-18z" />
    <glyph glyph-name="Wacute" unicode="&#x1e82;" horiz-adv-x="1953" 
d="M1452 329l304 1015q25 82 62.5 160.5t99.5 160t138 141.5t182.5 96t227.5 31v-20q-97 -4 -183 -44.5t-145.5 -98t-111 -137.5t-81.5 -146.5t-56 -142.5l-393 -1141q-42 -130 -45 -228h-20l-418 1170l-330 -1032q-35 -110 -93 -200.5t-135 -154.5t-176 -89t-207 -1l4 21
q83 -16 163.5 13t146 92.5t117.5 146t87 177.5l-415 1170q-24 62 -75 93.5t-104 31.5h-16v21h455v-21h-18q-43 0 -70 -34.5t-10 -91.5l310 -996l381 1175h19v-2v1zM1367 1739q-137 -80 -329 -174l-14 14q174 186 260 268q52 -52 83 -108z" />
    <glyph glyph-name="wacute" unicode="&#x1e83;" horiz-adv-x="2011" 
d="M1368 1760q-148 -86 -329 -175l-15 14q174 186 260 268q56 -56 84 -107zM1628 1413v21h404v-21h-18q-53 0 -105.5 -32.5t-73.5 -94.5l-339 -1083q-42 -130 -45 -228h-20l-418 1172l-311 -944q-40 -127 -43 -228h-19l-465 1313q-24 62 -75 93.5t-104 31.5h-16v21h455v-21
h-18q-43 0 -70 -34.5t-10 -91.5l310 -996l381 1175h19v-2v1l404 -1133l274 959q14 56 -10 89t-69 33h-18z" />
    <glyph glyph-name="Wdieresis" unicode="&#x1e84;" horiz-adv-x="1953" 
d="M1452 329l304 1015q25 82 62.5 160.5t99.5 160t138 141.5t182.5 96t227.5 31v-20q-97 -4 -183 -44.5t-145.5 -98t-111 -137.5t-81.5 -146.5t-56 -142.5l-393 -1141q-42 -130 -45 -228h-20l-418 1170l-330 -1032q-35 -110 -93 -200.5t-135 -154.5t-176 -89t-207 -1l4 21
q83 -16 163.5 13t146 92.5t117.5 146t87 177.5l-415 1170q-24 62 -75 93.5t-104 31.5h-16v21h455v-21h-18q-43 0 -70 -34.5t-10 -91.5l310 -996l381 1175h19v-2v1zM845 1565q-33 0 -56.5 23.5t-23.5 56.5t23.5 56.5t56.5 23.5t56.5 -23.5t23.5 -56.5t-23.5 -56.5
t-56.5 -23.5zM1231 1565q-33 0 -56.5 23.5t-23.5 56.5t23.5 56.5t56.5 23.5t56.5 -23.5t23.5 -56.5t-23.5 -56.5t-56.5 -23.5z" />
    <glyph glyph-name="wdieresis" unicode="&#x1e85;" horiz-adv-x="2011" 
d="M846 1585q-33 0 -56.5 23.5t-23.5 56.5t23.5 56.5t56.5 23.5t56.5 -23.5t23.5 -56.5t-23.5 -56.5t-56.5 -23.5zM1231 1585q-33 0 -56.5 23.5t-23.5 56.5t23.5 56.5t56.5 23.5t57 -23.5t24 -56.5t-24 -56.5t-57 -23.5zM1628 1413v21h404v-21h-18q-53 0 -105.5 -32.5
t-73.5 -94.5l-340 -1083q-41 -130 -44 -228h-20l-418 1172l-311 -944q-40 -126 -43 -227h-19l-465 1312q-24 62 -75 93.5t-104 31.5h-16v21h455v-21h-18q-43 0 -70 -34.5t-10 -91.5l309 -996l382 1175h18l1 -2v1l404 -1133l274 959q14 56 -10 89t-69 33h-18z" />
    <glyph glyph-name="Ygrave" unicode="&#x1ef2;" horiz-adv-x="1265" 
d="M692 1579l-14 -14q-160 75 -329 174q31 59 83 108q115 -110 260 -268zM672 770q91 242 133 331q140 299 325 397q101 53 219 53v-21q-78 0 -159 -56.5t-149.5 -148t-129.5 -208t-103.5 -236.5t-67 -233t-24.5 -197v-302q1 -52 38.5 -90t93.5 -38h25v-21h-448l1 21h27
q52 0 90.5 37t39.5 90v305q0 89 -26 205t-70.5 235t-108.5 234t-136 204t-157 144t-167 55v21q97 4 183 -20t149 -63.5t120.5 -103.5t95.5 -123t76.5 -141t59.5 -138t49 -133q4 -13 7 -20.5t7 -18.5t7 -20z" />
    <glyph glyph-name="ygrave" unicode="&#x1ef3;" horiz-adv-x="1353" 
d="M718 1579l-15 -14q-160 75 -329 174q30 57 84 108q115 -110 260 -268zM921 1413v21h454v-21h-28q-60 0 -115 -34t-91 -85l-405 -654v-491q1 -53 39.5 -90.5t92.5 -37.5h26v-21h-448v21h26q53 0 91.5 37t39.5 90v494l-390 652q-32 50 -88 84.5t-118 34.5h-27v21h503v-21
h-26q-45 0 -69 -42t-2 -85l307 -573l326 573v0l1 2q23 42 -3.5 83.5t-69.5 41.5h-26z" />
    <glyph glyph-name="endash" unicode="&#x2013;" horiz-adv-x="1024" 
d="M0 555v82h1024v-82h-1024z" />
    <glyph glyph-name="emdash" unicode="&#x2014;" horiz-adv-x="1638" 
d="M0 555v82h1638v-82h-1638z" />
    <glyph glyph-name="quoteleft" unicode="&#x2018;" horiz-adv-x="397" 
d="M283 1260q-14 -31 -47.5 -42.5t-69 5t-53.5 58.5q-33 87 -14.5 158.5t75.5 117.5t128 48l5 -18q-47 -15 -72 -42.5t-28 -57t4.5 -56t22.5 -44.5q3 -4 14.5 -17t16.5 -19.5t12.5 -19t10 -22t2 -23t-6.5 -26.5z" />
    <glyph glyph-name="quoteright" unicode="&#x2019;" horiz-adv-x="387" 
d="M114 1552q13 30 45 41t66 -4.5t51 -55.5q48 -116 -12.5 -211t-166.5 -98l-5 17q44 14 68.5 40.5t27 54.5t-4.5 53t-21 42q-3 4 -14 16t-16 18t-12.5 18t-9.5 21.5t-2 22t6 25.5z" />
    <glyph glyph-name="quotesinglbase" unicode="&#x201a;" horiz-adv-x="397" 
d="M116 145q14 31 47.5 42.5t69 -4.5t53.5 -58q33 -87 14.5 -158.5t-75.5 -117.5t-128 -48l-5 18q47 15 72 42.5t28 56.5t-4.5 55.5t-22.5 44.5q-3 4 -14.5 17t-16.5 19.5t-12.5 19t-10 22t-2 23t6.5 26.5z" />
    <glyph glyph-name="quotedblleft" unicode="&#x201c;" horiz-adv-x="684" 
d="M278 1260q-14 -31 -47.5 -42.5t-69 5t-53.5 58.5q-33 87 -14.5 158.5t75 117.5t127.5 48l5 -18q-47 -15 -72 -42.5t-28 -57t4.5 -56t22.5 -44.5q4 -5 15 -17t16.5 -19t13 -19.5t10 -22t2 -23t-6.5 -26.5zM565 1260q-14 -31 -47.5 -42.5t-69 5t-53.5 58.5
q-33 87 -14.5 158.5t75 117.5t127.5 48l5 -18q-47 -15 -72 -42.5t-28 -57t4.5 -56t22.5 -44.5q4 -5 15 -17t16.5 -19t13 -19.5t10 -22t2 -23t-6.5 -26.5z" />
    <glyph glyph-name="quotedblright" unicode="&#x201d;" horiz-adv-x="684" 
d="M114 1552q13 30 45 41t66 -4.5t51 -55.5q48 -116 -12.5 -211t-166.5 -98l-5 17q44 14 68.5 40.5t27 54.5t-4.5 53t-21 42q-3 4 -14 16t-16 18t-12.5 18t-9.5 21.5t-2 22t6 25.5zM401 1552q13 30 45 41t66 -4.5t51 -55.5q48 -116 -12.5 -211t-166.5 -98l-5 17
q44 14 68.5 40.5t27 54.5t-4.5 53t-21 42q-3 4 -14 16t-16 18t-12.5 18t-9.5 21.5t-2 22t6 25.5z" />
    <glyph glyph-name="quotedblbase" unicode="&#x201e;" horiz-adv-x="677" 
d="M117 153q14 33 49 44.5t73 -5.5t56 -61q53 -128 -13.5 -232t-183.5 -108l-6 19q49 16 76 44.5t29.5 59.5t-5 58.5t-23.5 46.5q-1 2 -18.5 21t-21.5 26t-12.5 24t-7.5 31.5t8 31.5zM387 153q14 33 49.5 44.5t73.5 -5.5t56 -61q53 -128 -14 -232t-184 -108l-5 19
q49 16 76 44.5t29.5 59.5t-5 58.5t-23.5 46.5q-4 5 -15.5 18t-17.5 20t-14 20.5t-10.5 23.5t-2 24t6.5 28z" />
    <glyph glyph-name="dagger" unicode="&#x2020;" horiz-adv-x="1058" 
d="M979 898l-29 -77l-319 36l-92 31l32 -87l25 -483l-56 -687h-20l-57 687l26 483l31 87l-93 -31l-316 -36l-29 77l29 77l316 -36l93 -31l-31 86l-36 440l79 28l75 -28l-36 -440l-31 -86l91 31l319 36z" />
    <glyph glyph-name="daggerdbl" unicode="&#x2021;" horiz-adv-x="1060" 
d="M952 271l28 -77l-28 -77l-317 36l-92 31l30 -86l36 -440l-79 -29l-74 29l35 440l31 86l-91 -31l-319 -36l-29 78l29 76l319 -36l92 -31l-32 87l-37 255l35 255l31 87l-93 -31l-316 -36l-29 77l29 77l316 -36l93 -31l-31 86l-36 440l79 28l75 -28l-36 -440l-31 -86l91 31
l319 36l29 -77l-29 -77l-319 36l-92 31l32 -87l37 -255l-35 -255l-31 -86l93 30z" />
    <glyph glyph-name="bullet" unicode="&#x2022;" horiz-adv-x="686" 
d="M372 469q-28 -10 -56 0q-88 29 -113.5 54t-54.5 114q-10 28 0 56q29 89 54.5 114t113.5 54q28 10 56 0q88 -29 113.5 -54t54.5 -114q9 -24 -2 -59q-29 -86 -53.5 -111t-112.5 -54zM360 555q50 17 64 30.5t30 61.5q6 18 0 34q-17 50 -30.5 63.5t-63.5 30.5q-16 6 -32 0
q-50 -17 -64 -30.5t-30 -63.5q-6 -16 0 -32q16 -50 30 -63.5t64 -30.5q16 -6 32 0z" />
    <glyph glyph-name="ellipsis" unicode="&#x2026;" horiz-adv-x="1165" 
d="M184 -8q-38 0 -65 27t-27 65t27 65t65 27t65 -27t27 -65t-27 -65t-65 -27zM594 -8q-38 0 -65 27t-27 65t27 65t65 27t65 -27t27 -65t-27 -65t-65 -27zM983 -8q-38 0 -65 27t-27 65t27 65t65 27t65 -27t27 -65t-27 -65t-65 -27z" />
    <glyph glyph-name="perthousand" unicode="&#x2030;" horiz-adv-x="2078" 
d="M1062 1452l46 -18l-763 -1457l-53 23l730 1385q-7 -4 -34 -18t-39 -20t-38 -17t-44.5 -15.5t-44.5 -7.5t-51 -1q-58 5 -135 45q50 -96 23 -250q-30 -166 -124.5 -264t-218.5 -98q-125 0 -185.5 98t-30.5 264q29 163 120.5 260t214.5 101v1h6h3q37 0 72 -11
q42 -11 121.5 -56.5t135.5 -49.5q53 -4 104 12.5t116 54t69 39.5zM551 1100q26 149 -4.5 235t-110.5 86q-79 0 -140 -86t-87 -235t4.5 -234.5t109.5 -85.5q80 0 141 85.5t87 234.5zM1087 695q125 0 185.5 -98t30.5 -264t-124.5 -264t-219.5 -98t-185 98t-30 264t124.5 264
t218.5 98zM1763 695q125 0 185 -98t30 -264t-124.5 -264t-218.5 -98q-125 0 -185.5 98t-30.5 264t124.5 264t219.5 98zM1194 333q26 149 -4.5 234.5t-109.5 85.5q-80 0 -141 -85.5t-87 -234.5t4.5 -235t110.5 -86q79 0 140 86t87 235zM1870 333q26 149 -4.5 234.5
t-110.5 85.5t-140.5 -85.5t-86.5 -234.5t4.5 -235t109.5 -86q80 0 141 86t87 235z" />
    <glyph glyph-name="guilsinglleft" unicode="&#x2039;" horiz-adv-x="538" 
d="M82 598q201 -168 358 -414l18 10q-92 235 -243 403q150 164 241 396l-16 10q-78 -129 -160.5 -219.5t-197.5 -185.5z" />
    <glyph glyph-name="guilsinglright" unicode="&#x203a;" horiz-adv-x="538" 
d="M458 598q-115 95 -197.5 185.5t-160.5 219.5l-16 -10q91 -232 241 -396q-151 -168 -243 -403l18 -10q157 246 358 414z" />
    <glyph glyph-name="fraction" unicode="&#x2044;" horiz-adv-x="1110" 
d="M1021 1462l-980 -1458l50 -33l979 1457z" />
    <glyph glyph-name="Euro" unicode="&#x20ac;" horiz-adv-x="1501" 
d="M1379 315h21l-3 -215q-62 -63 -185.5 -95t-263.5 -32q-278 0 -485 172t-255 436h-228l21 61h199q-4 48 -4 75q0 35 3 69h-219l21 61h206q30 175 134 315t263 220t344 80q348 0 449 -121l-67 -197h-20q14 63 -5.5 111.5t-57.5 75t-94 43.5t-104.5 22t-100.5 5
q-221 0 -385 -156.5t-203 -397.5h871l-22 -61h-857q-2 -22 -2 -67q0 -39 3 -77h807l-22 -61h-777q41 -238 204.5 -392t382.5 -154q193 0 297.5 66t133.5 214z" />
    <glyph glyph-name="trademark" unicode="&#x2122;" horiz-adv-x="913" 
d="M90 1434h194q48 0 70 10v-84h-6v10q0 13 -9.5 23t-23.5 11h-97v-333q1 -15 11.5 -25t25.5 -10h7v-6h-150v6h7q15 0 25.5 10t11.5 25v333h-97q-14 -1 -23.5 -11t-9.5 -23v-10h-6v84q22 -10 70 -10zM885 1036h9v-6h-145v5h9q9 0 15.5 8t6.5 17v2l-37 247l-108 -228
q-16 -35 -20 -59h-5l-142 275l-17 -235v0v-1v-1q0 -9 6.5 -17t15.5 -8h9v-5h-125v6h9q37 0 42 36l43 369h6l170 -318l148 318h5l63 -369q8 -36 42 -36z" />
    <glyph glyph-name="partialdiff" unicode="&#x2202;" horiz-adv-x="1159" 
d="M600 1462q139 -17 243.5 -126t154.5 -281t38 -373q-20 -331 -148 -515t-349 -196q-108 -6 -191 25.5t-130.5 88t-72 131.5t-23 157t24.5 164q18 63 56 123.5t91 110.5t121.5 80t143 35.5t161.5 -27.5t171 -105q1 108 -16.5 205.5t-53.5 179t-94.5 137.5t-134.5 74
q-265 62 -431 -168l-18 15q80 154 188.5 219t268.5 46zM539 33q131 12 230 190t119 459q3 42 3 44q-106 58 -197 74.5t-157 -2.5t-118 -67.5t-84.5 -112.5t-52.5 -145q-25 -91 -15 -173.5t42 -144.5t92.5 -95.5t137.5 -26.5z" />
    <glyph glyph-name="product" unicode="&#x220f;" horiz-adv-x="1562" 
d="M1452 -389v-21h-403l1 21h22q46 0 79 32t34 78v1540q-1 45 -33 78t-77 33h-586q-44 0 -75.5 -31.5t-33.5 -76.5v-1544q1 -46 34 -77.5t79 -31.5h22v-21h-402v21h22q46 0 79 32t34 78v1581q-1 46 -33.5 78.5t-79.5 32.5h-22v21h1339v-21h-23q-46 0 -78.5 -31.5
t-34.5 -76.5v-1585q1 -46 34 -77.5t79 -31.5h23z" />
    <glyph glyph-name="summation" unicode="&#x2211;" horiz-adv-x="1300" 
d="M1210 18h20l-67 -387l-1081 -2v23l541 865l-530 896v21h825h-1q64 0 141.5 12t108.5 25v-258l-20 1v36q0 49 -34.5 84.5t-83.5 37.5h-758l466 -800l-501 -808l710 -1q102 6 168 75t96 180z" />
    <glyph glyph-name="minus" unicode="&#x2212;" horiz-adv-x="985" 
d="M82 588v92h823v-92h-823z" />
    <glyph glyph-name="radical" unicode="&#x221a;" horiz-adv-x="1216" 
d="M51 820l-10 62l285 40l252 -903l537 1708l61 -4l-630 -2024l-326 1145z" />
    <glyph glyph-name="infinity" unicode="&#x221e;" horiz-adv-x="1214" 
d="M648 538q-52 -86 -137 -143.5t-179 -57.5q-108 0 -179.5 77t-70.5 193q1 117 73 195t177 78q85 0 168.5 -55.5t148.5 -140.5q62 84 146.5 140t169.5 56q105 0 177 -78t73 -195q1 -116 -70.5 -193t-179.5 -77q-96 0 -180.5 58.5t-136.5 142.5zM332 425q72 0 141.5 54.5
t119.5 130.5q-137 181 -261 181q-64 0 -111 -54.5t-47 -129.5t47 -128.5t111 -53.5zM965 425q64 0 111 53.5t47 128.5t-47 129.5t-111 54.5q-125 0 -261 -181q53 -81 120.5 -133t140.5 -52z" />
    <glyph glyph-name="integral" unicode="&#x222b;" horiz-adv-x="901" 
d="M643 1622q53 5 108 -11.5t79 -54.5q14 -24 11 -49.5t-19 -44.5q-26 -28 -60 -28.5t-54 22.5q-13 12 -26 36t-25.5 38t-33.5 14q-63 0 -72 -184q-6 -126 -35 -684.5t-37 -671.5q-4 -53 -12 -101t-26 -101.5t-43.5 -92.5t-66.5 -67t-92 -33q-53 -5 -107.5 11t-78.5 54
q-14 24 -11.5 50t18.5 45q26 28 60 28.5t54 -22.5q13 -12 26 -36t25.5 -38t33.5 -14q64 0 73 184q6 137 34.5 690t36.5 665q5 68 18 128t38.5 121.5t72.5 101t111 45.5z" />
    <glyph glyph-name="approxequal" unicode="&#x2248;" horiz-adv-x="985" 
d="M137 716l-55 50q41 54 101.5 93.5t133.5 29.5t184.5 -62.5t151.5 -60.5q27 -5 54.5 0t58.5 23t43 26.5t42 31.5l54 -51l-9 -9q-23 -24 -40.5 -39.5t-51.5 -39t-72.5 -32.5t-78.5 -2q-68 12 -175.5 62.5t-160.5 59.5q-15 3 -28 4t-25.5 -1.5t-21 -4t-20.5 -8.5t-17 -9.5
t-17.5 -13t-16 -13.5t-17.5 -17zM137 368l-55 49q41 54 101.5 93.5t133.5 29.5t184.5 -62t151.5 -60q27 -5 54.5 0t58.5 23t43 26.5t42 31.5l53 -51l-10 -10q-23 -24 -40.5 -39.5t-51 -39t-71.5 -32.5t-78 -2q-68 12 -175.5 63t-160.5 60q-15 3 -28 4t-25.5 -1.5t-21 -4
t-20.5 -8.5t-17 -9.5t-17.5 -13t-16 -13.5t-17.5 -17z" />
    <glyph glyph-name="notequal" unicode="&#x2260;" horiz-adv-x="985" 
d="M905 837v-92h-287l-128 -266h415v-92h-460l-121 -251l-84 39l103 212h-261v92h306l129 266h-435v92h480l109 225l82 -38l-90 -187h242z" />
    <glyph glyph-name="lessequal" unicode="&#x2264;" horiz-adv-x="985" 
d="M82 816l823 391v-99l-702 -338l702 -339v-99l-823 391v93zM905 89h-823v92h823v-92z" />
    <glyph glyph-name="greaterequal" unicode="&#x2265;" horiz-adv-x="985" 
d="M82 1108v99l823 -391v-93l-823 -391v99l701 339zM905 89h-823v92h823v-92z" />
    <glyph glyph-name="lozenge" unicode="&#x25ca;" horiz-adv-x="1085" 
d="M985 716l-454 746l-429 -746l429 -745zM190 716l341 605l366 -605l-366 -604z" />
    <glyph glyph-name="fi" unicode="&#xfb01;" horiz-adv-x="1800" 
d="M722 1434q64 1 139 12.5t105 24.5v-60v-35v-136h-20v30q0 41 -29 70.5t-70 30.5h-433v-633h346q41 1 70 30.5t29 70.5v30h20v-324h-20v30q0 41 -28.5 70.5t-68.5 30.5h-348v-527q1 -53 39 -91t92 -38h26v-20h-448v20h26q54 0 92 38t39 91v1147q-5 50 -42 83.5t-88 33.5
h-26v21h163h435zM1679 21v-21h-448v21h26q54 0 92 37.5t39 90.5v1136q-2 53 -40 90.5t-91 37.5h-26v21h163h122h163v-21h-26q-53 0 -91.5 -37t-39.5 -90v-1137q1 -53 39 -90.5t92 -37.5h26z" />
    <glyph glyph-name="fl" unicode="&#xfb02;" horiz-adv-x="2258" 
d="M722 1434q64 1 139 12.5t105 24.5v-60v-35v-136h-20v30q0 41 -29 70.5t-70 30.5h-433v-633h346q41 1 70 30.5t29 70.5v30h20v-324h-20v30q0 41 -28.5 70.5t-68.5 30.5h-348v-527q1 -53 39 -91t92 -38h26v-20h-448v20h26q54 0 92 38t39 91v1147q-5 50 -42 83.5t-88 33.5
h-26v21h163h435zM2179 331h20l-119 -331h-849v21h26q54 0 92 37.5t39 90.5v1135q-1 53 -39 91t-92 38h-26v21h157h134h157v-21h-26q-54 0 -92 -38t-39 -91v-1221h293q79 0 139 19t101.5 57.5t69.5 83t54 108.5z" />
    </font>
</defs>
</svg>
